SplineFontDB: 3.2
FontName: Sorazora-Regular
FullName: Sorazora
FamilyName: Sorazora
Weight: Regular
Copyright: SIL Open Font License (OFL)
UComments: "Created for Xymyric 9. Drawn in Inkscape and compiled using FontForge."
FontLog: "Sorazora is a serif font designed for the 9th Edition of the Xymyric alphabet. It includes two styles (Roman, Italic) for one weight (Regular). The design of the serifs is inspired by Han characters and is descended from Xymyric 8. The most noticeable feature compared to V8 is the thin headline and shallow pen angle. This font can be regarded as a transitional style. The direction of the serifs is flipped to reflect the pen angle, which is opposite that of V8.+AAoACgAA-Xymyric 9 specification: https://docs.google.com/document/d/10HuhhSWbcs7u7IWC0UuAK0fY2e_X8Z23sTPiJAIG3fo/edit?usp+AD0A-sharing+AAoACgAA-This font:+AAoA    sorazora_serif_w4.otf+AAoACgAA-Designer:+AAoA    Kegfeng"
Version: 2.0
DefaultBaseFilename: sorazora_serif_w4
ItalicAngle: -20
UnderlinePosition: -79
UnderlineWidth: 39
Ascent: 735
Descent: 265
InvalidEm: 0
LayerCount: 2
Layer: 0 0 "Back" 1
Layer: 1 0 "Fore" 0
XUID: [1021 177 139733406 4461]
FSType: 0
OS2Version: 0
OS2_WeightWidthSlopeOnly: 0
OS2_UseTypoMetrics: 1
CreationTime: 1673642421
ModificationTime: 1675031839
PfmFamily: 17
TTFWeight: 400
TTFWidth: 5
LineGap: 72
VLineGap: 0
OS2TypoAscent: 0
OS2TypoAOffset: 1
OS2TypoDescent: 0
OS2TypoDOffset: 1
OS2TypoLinegap: 72
OS2WinAscent: 0
OS2WinAOffset: 1
OS2WinDescent: 0
OS2WinDOffset: 1
HheadAscent: 0
HheadAOffset: 1
HheadDescent: 0
HheadDOffset: 1
OS2Vendor: 'PfEd'
MarkAttachClasses: 1
DEI: 91125
LangName: 1033
GaspTable: 3 9 14 16 5 65535 15 1
OtfFeatName: 'ss01' 1033 "All disconnected"
OtfFeatName: 'ss02' 1033 "Override punctuation substitution"
OtfFeatName: 'ss03' 1033 "Traditional Xymyric figures"
OtfFeatName: 'ss04' 1033 "Double isolate K ligature"
OtfFeatName: 'ss05' 1033 "Use ideographic comma"
Encoding: ISO8859-1
UnicodeInterp: none
NameList: AGL For New Fonts

StartChar: a
Encoding: 97 97 26
Width: 815
Flags: HW
HStem: -21.2556 45.2498<366.183 506.622> 366.661 35.892<186.136 237.954 319.215 541.368 622.63 765.485> 494.231 106.453<403.613 488.918>
VStem: 237.954 81.2607<73.005 366.661> 393.038 106.454<504.806 590.11> 541.368 81.2617<55.2939 366.66>
LayerCount: 2
Fore
SplineSet
582.037109375 681.7734375 m 0
 582.037109375 652.376953125 558.206054688 628.546875 528.810546875 628.546875 c 0
 499.413085938 628.546875 475.583007812 652.376953125 475.583007812 681.7734375 c 0
 475.583007812 711.169921875 499.413085938 735 528.810546875 735 c 0
 558.206054688 735 582.037109375 711.169921875 582.037109375 681.7734375 c 0
485.291015625 512.16015625 m 2
 513.314453125 512.16015625 l 2
 576.99609375 512.16015625 654.309570312 465.2578125 654.309570312 346.62890625 c 0
 654.309570312 224.248046875 566.330078125 95.98828125 408.002929688 95.98828125 c 0
 307.409179688 95.98828125 231.203125 155.369140625 231.203125 270.797851562 c 0
 231.203125 409.983398438 342.809570312 512.16015625 485.291015625 512.16015625 c 2
442.266601562 476.268554688 m 0
 375.68359375 476.268554688 312.46484375 412.203125 312.46484375 306.689453125 c 0
 312.46484375 192.356445312 380.686523438 138.05859375 439.270507812 138.05859375 c 0
 512.530273438 138.05859375 573.048828125 203.942382812 573.048828125 310.737304688 c 0
 573.048828125 410.0234375 525.15234375 476.268554688 442.266601562 476.268554688 c 0
117.377929688 476.268554688 m 2
 111.143554688 476.268554688 110.692382812 480.45703125 114.280273438 484.182617188 c 0
 134.142578125 504.80859375 193.78125 553.729492188 218.622070312 572.530273438 c 1
 271.364257812 512.403320312 l 1
 678.481445312 512.159179688 l 2
 714.55078125 512.137695312 772.114257812 516.686523438 784.563476562 518.508789062 c 1
 765.782226562 467.556640625 l 2
 745.29296875 472.599609375 710.90234375 476.268554688 670.754882812 476.268554688 c 2
 117.377929688 476.268554688 l 2
-0 155.970703125 m 1
 46.36328125 109.607421875 l 1
 -0 109.607421875 l 1
 -0 155.970703125 l 1
666.279296875 155.971679688 m 1
 666.279296875 109.607421875 l 1
 619.915039062 109.607421875 l 1
 666.279296875 155.971679688 l 1
EndSplineSet
EndChar

StartChar: b
Encoding: 98 98 27
Width: 548
Flags: HW
HStem: -10.7051 21G<488.02 505.078> -9.75608e-15 35.8926<135.582 497.199> 194.574 35.8916<135.582 456.598> 366.66 35.8926<141.082 489.777>
VStem: 54.3203 81.2617<-37.1408 -7.10543e-15 35.8926 194.574 230.466 355.891>
LayerCount: 2
Fore
SplineSet
117.376953125 638.73828125 m 2
 111.142578125 638.73828125 110.692382812 642.926757812 114.280273438 646.65234375 c 0
 134.142578125 667.278320312 193.78125 716.19921875 218.62109375 735 c 1
 271.364257812 674.873046875 l 1
 442.192382812 674.629882812 l 2
 478.26171875 674.578125 535.825195312 679.157226562 548.274414062 680.978515625 c 1
 529.493164062 630.026367188 l 2
 509.00390625 635.069335938 474.61328125 638.73828125 434.465820312 638.73828125 c 2
 117.376953125 638.73828125 l 2
377.805664062 664.8984375 m 1
 391.48046875 638.73828125 l 1
 308.837890625 638.73828125 218.661132812 607.13671875 218.661132812 487.19921875 c 0
 218.661132812 380.4375 304.528320312 305.880859375 408.461914062 305.880859375 c 0
 431.78125 305.880859375 456.920898438 309.055664062 499.291992188 317.021484375 c 1
 499.291992188 293.576171875 l 1
 422.59375 262.65625 383.594726562 258.455078125 347.287109375 258.455078125 c 0
 229.17578125 258.455078125 137.399414062 335.87890625 137.399414062 451.307617188 c 0
 137.399414062 556.418945312 209.272460938 614.28125 246.125 632.907226562 c 0
 269.754882812 644.850585938 342.923828125 664.8984375 377.805664062 664.8984375 c 1
-0 318.44140625 m 1
 46.36328125 272.077148438 l 1
 -0 272.077148438 l 1
 -0 318.44140625 l 1
482.668945312 318.44140625 m 1
 482.668945312 272.077148438 l 1
 436.305664062 272.077148438 l 1
 482.668945312 318.44140625 l 1
EndSplineSet
EndChar

StartChar: c
Encoding: 99 99 28
Width: 472
Flags: HW
HStem: -233.054 21G<54.3242 67.8672> -14.04 21G<297.642 354.427> 58.5 19.4648<198.72 249.817> 366.66 35.8926<139.836 335.826> 412.692 20G<403.677 420.764>
VStem: 54.3242 81.2607<-207.307 353.826> 336.406 81.2607<73.1897 366.432>
LayerCount: 2
Fore
SplineSet
283.44140625 735 m 0
 385.612304688 735 470.889648438 674.724609375 470.889648438 563.65234375 c 0
 470.889648438 479.546875 422.987304688 410.834960938 379.76171875 374.544921875 c 0
 352.049804688 357.33984375 272.9375 326.905273438 245.154296875 318.8984375 c 0
 235.822265625 316.208007812 198.689453125 304.828125 172.512695312 304.828125 c 0
 136.275390625 304.828125 114.245117188 316.952148438 91.94921875 334.791015625 c 1
 167.279296875 370.130859375 l 1
 177.157226562 347.677734375 168.936523438 303.759765625 145.184570312 246.90625 c 2
 90.2646484375 115.447265625 l 2
 66.103515625 105.760742188 28.298828125 95.478515625 0 90.4462890625 c 1
 55.6416015625 223.631835938 l 2
 86.8095703125 298.236328125 91.2724609375 327.615234375 79.57421875 346.541015625 c 1
 160.834960938 378.087890625 l 2
 179.484375 363.959960938 196.38671875 356.053710938 228.853515625 356.053710938 c 0
 288.702148438 356.053710938 389.627929688 410.291015625 389.627929688 531.653320312 c 0
 389.627929688 636.904296875 315.19140625 687.345703125 221.362304688 687.345703125 c 0
 213.698242188 687.345703125 186.017578125 683.885742188 164.452148438 676.279296875 c 1
 164.452148438 700.610351562 l 1
 206.912109375 717.424804688 264.529296875 735 283.44140625 735 c 0
20.9765625 364.8125 m 1
 67.3408203125 318.448242188 l 1
 20.9765625 318.448242188 l 1
 20.9765625 364.8125 l 1
409.581054688 364.813476562 m 1
 409.581054688 318.44921875 l 1
 363.216796875 318.44921875 l 1
 409.581054688 364.813476562 l 1
EndSplineSet
EndChar

StartChar: d
Encoding: 100 100 29
Width: 552
Flags: HW
HStem: -10.6455 39.9248<208.825 354.919> 376.557 34.6523<194.513 346.366>
VStem: 34.0566 82.8096<121.19 287.212> 428.578 90.2979<122.314 305.552>
LayerCount: 2
Fore
SplineSet
358.54296875 735 m 0
 451.46875 735 524.572265625 666.203125 524.572265625 563.254882812 c 0
 524.572265625 420.26171875 425.7421875 304.828125 278.265625 304.828125 c 0
 177.671875 304.828125 99.51953125 373.571289062 99.51953125 477.97265625 c 0
 99.51953125 655.19140625 250.129882812 735 358.54296875 735 c 0
312.529296875 692.623046875 m 0
 250.075195312 692.623046875 180.78125 622.130859375 180.78125 513.864257812 c 0
 180.78125 406.560546875 250.045898438 346.8984375 309.533203125 346.8984375 c 0
 382.79296875 346.8984375 443.311523438 420.568359375 443.311523438 527.362304688 c 0
 443.311523438 626.649414062 395.415039062 692.623046875 312.529296875 692.623046875 c 0
-0 364.811523438 m 1
 46.3642578125 318.447265625 l 1
 -0 318.447265625 l 1
 -0 364.811523438 l 1
479.861328125 364.811523438 m 1
 479.861328125 318.447265625 l 1
 433.497070312 318.447265625 l 1
 479.861328125 364.811523438 l 1
EndSplineSet
EndChar

StartChar: e
Encoding: 101 101 30
Width: 599
Flags: HW
HStem: -233.054 21G<285.216 298.759> 155.644 35.8916<201.913 285.216 366.477 555.184> 366.66 35.8926<225.274 284.636> 412.688 20G<352.486 369.573>
VStem: 285.216 81.2607<-207.307 155.644 191.535 366.429>
LayerCount: 2
Fore
SplineSet
228.212890625 735 m 1
 280.958007812 674.872070312 l 1
 421.251953125 674.62890625 l 2
 455.196289062 674.62890625 453.88671875 661.040039062 430.42578125 595.888671875 c 2
 240.728515625 69.0791015625 l 2
 216.567382812 59.3935546875 178.762695312 49.107421875 150.46484375 44.0751953125 c 1
 338.154296875 565.311523438 l 2
 364.456054688 638.353515625 361.111328125 638.737304688 333.771484375 638.737304688 c 2
 126.969726562 638.737304688 l 2
 120.735351562 638.737304688 120.284179688 642.926757812 123.872070312 646.65234375 c 0
 143.734375 667.27734375 203.373046875 716.19921875 228.212890625 735 c 1
200.5390625 163.060546875 m 1
 246.543945312 276.506835938 337.876953125 375.69140625 412.201171875 434.186523438 c 0
 429.615234375 447.891601562 487.075195312 490.401367188 501.206054688 500.801757812 c 0
 549.96875 536.690429688 692.842773438 637.564453125 743.145507812 688.625 c 1
 798.0625 688.625 l 1
 750.6171875 642.153320312 624.275390625 553.221679688 590.4609375 528.950195312 c 0
 571.344726562 515.23046875 521.583007812 477.684570312 505.974609375 465.655273438 c 0
 422.416015625 401.259765625 329.381835938 315.26953125 278.497070312 173.958007812 c 1
 200.5390625 163.060546875 l 1
658.58984375 318.0546875 m 1
 658.58984375 271.69140625 l 1
 612.2265625 271.69140625 l 1
 658.58984375 318.0546875 l 1
0 318.440429688 m 1
 46.3642578125 272.076171875 l 1
 0 272.076171875 l 1
 0 318.440429688 l 1
EndSplineSet
EndChar

StartChar: f
Encoding: 102 102 31
Width: 530
Flags: HW
HStem: -20.79 21G<54.3193 85.8052> 370.873 42.7896<241.164 384.698>
VStem: 54.3193 81.2607<37.9395 321.603 358.646 548.572> 417.396 84.1846<196.833 339.387>
LayerCount: 2
Fore
SplineSet
334.786132812 735 m 0
 363.989257812 735 360.786132812 721.086914062 351.569335938 695.990234375 c 2
 160.163085938 174.827148438 l 1
 387.528320312 154.069335938 490.1328125 306.21875 490.1328125 399.37109375 c 0
 490.1328125 460.694335938 458.870117188 505.008789062 384.395507812 505.008789062 c 0
 327.239257812 505.008789062 270.650390625 477.11328125 243.935546875 402.92578125 c 1
 243.935546875 402.92578125 186.096679688 463.5703125 251.303710938 498.606445312 c 0
 281.221679688 512.215820312 334.71484375 531.639648438 367.749023438 543.189453125 c 0
 384.27734375 546.899414062 415.024414062 548.49609375 442.53125 548.49609375 c 0
 512.28125 548.49609375 571.393554688 514.305664062 571.393554688 425.530273438 c 0
 571.393554688 325.65625 478.560546875 215.557617188 353.3515625 162.14453125 c 0
 331.546875 152.842773438 296.201171875 141.487304688 272.08984375 135.985351562 c 0
 226 125.467773438 170.942382812 117.881835938 116.326171875 118.322265625 c 0
 93.1826171875 118.508789062 70.8916015625 120.131835938 60.259765625 123.565429688 c 1
 259.489257812 666.033203125 l 2
 270.389648438 695.712890625 263.055664062 703.685546875 217.515625 696.443359375 c 1
 217.515625 714.703125 l 1
 254.010742188 727.111328125 323.46484375 735 334.786132812 735 c 0
-0 178.306640625 m 1
 46.36328125 131.942382812 l 1
 -0 131.942382812 l 1
 -0 178.306640625 l 1
501.559570312 178.306640625 m 1
 501.559570312 131.942382812 l 1
 455.196289062 131.942382812 l 1
 501.559570312 178.306640625 l 1
EndSplineSet
EndChar

StartChar: g
Encoding: 103 103 32
Width: 472
Flags: HW
HStem: -233.054 21G<54.3242 67.8672> -14.0391 21G<297.643 354.427> 58.501 19.4648<198.721 249.817> 366.661 35.8916<139.836 335.827> 412.692 20G<403.677 420.765> 494.231 106.453<200.21 285.515>
VStem: 54.3242 81.2617<-207.306 353.826> 189.636 106.453<504.806 590.11> 336.406 81.2607<73.1898 366.433>
LayerCount: 2
Fore
SplineSet
401.876953125 681.7734375 m 0
 401.876953125 652.376953125 378.046875 628.546875 348.651367188 628.546875 c 0
 319.25390625 628.546875 295.422851562 652.376953125 295.422851562 681.7734375 c 0
 295.422851562 711.169921875 319.25390625 735 348.651367188 735 c 0
 378.046875 735 401.876953125 711.169921875 401.876953125 681.7734375 c 0
283.44140625 526.158203125 m 0
 385.612304688 526.158203125 470.889648438 465.8828125 470.889648438 354.811523438 c 0
 470.889648438 270.706054688 422.98828125 201.994140625 379.76171875 165.704101562 c 0
 352.049804688 148.499023438 272.9375 118.064453125 245.154296875 110.056640625 c 0
 235.822265625 107.3671875 198.689453125 95.9873046875 172.512695312 95.9873046875 c 0
 136.275390625 95.9873046875 114.245117188 108.110351562 91.94921875 125.950195312 c 1
 167.279296875 161.2890625 l 1
 177.157226562 138.8359375 168.936523438 94.9189453125 145.184570312 38.0654296875 c 2
 90.2646484375 -93.39453125 l 2
 66.103515625 -103.080078125 28.298828125 -113.362304688 0 -118.39453125 c 1
 55.6416015625 14.7900390625 l 2
 86.8095703125 89.39453125 91.2734375 118.774414062 79.57421875 137.69921875 c 1
 160.834960938 169.24609375 l 2
 179.484375 155.119140625 196.387695312 147.212890625 228.853515625 147.212890625 c 0
 288.702148438 147.212890625 389.627929688 201.450195312 389.627929688 322.8125 c 0
 389.627929688 428.063476562 315.192382812 478.50390625 221.362304688 478.50390625 c 0
 213.698242188 478.50390625 186.017578125 475.043945312 164.453125 467.438476562 c 1
 164.453125 491.76953125 l 1
 206.912109375 508.583007812 264.529296875 526.158203125 283.44140625 526.158203125 c 0
20.9765625 155.970703125 m 1
 67.3408203125 109.607421875 l 1
 20.9765625 109.607421875 l 1
 20.9765625 155.970703125 l 1
409.581054688 155.971679688 m 1
 409.581054688 109.607421875 l 1
 363.216796875 109.607421875 l 1
 409.581054688 155.971679688 l 1
EndSplineSet
EndChar

StartChar: h
Encoding: 104 104 33
Width: 530
Flags: HW
HStem: -218.401 106.453<209.625 294.929> -20.79 21G<54.3193 85.8047> 370.873 42.7896<241.164 384.698>
VStem: 54.3193 81.2607<37.9395 321.603 358.646 548.572> 199.051 106.453<-207.827 -122.523> 417.396 84.1846<196.833 339.387>
LayerCount: 2
Fore
SplineSet
334.786132812 735 m 0
 363.989257812 735 360.786132812 721.086914062 351.569335938 695.991210938 c 2
 160.163085938 174.827148438 l 1
 387.528320312 154.069335938 490.1328125 306.21875 490.1328125 399.37109375 c 0
 490.1328125 460.694335938 458.870117188 505.008789062 384.395507812 505.008789062 c 0
 327.239257812 505.008789062 270.650390625 477.11328125 243.935546875 402.92578125 c 1
 243.935546875 402.92578125 186.096679688 463.5703125 251.303710938 498.606445312 c 0
 281.221679688 512.215820312 334.71484375 531.639648438 367.749023438 543.189453125 c 0
 384.27734375 546.899414062 415.024414062 548.49609375 442.53125 548.49609375 c 0
 512.28125 548.49609375 571.393554688 514.305664062 571.393554688 425.530273438 c 0
 571.393554688 325.65625 478.560546875 215.557617188 353.3515625 162.14453125 c 0
 331.546875 152.842773438 296.201171875 141.487304688 272.08984375 135.985351562 c 0
 226 125.467773438 170.942382812 117.881835938 116.326171875 118.322265625 c 0
 93.1826171875 118.509765625 70.8916015625 120.131835938 60.259765625 123.565429688 c 1
 259.489257812 666.033203125 l 2
 270.389648438 695.712890625 263.055664062 703.686523438 217.515625 696.443359375 c 1
 217.515625 714.703125 l 1
 254.010742188 727.111328125 323.463867188 735 334.786132812 735 c 0
-0 178.306640625 m 1
 46.36328125 131.942382812 l 1
 -0 131.942382812 l 1
 -0 178.306640625 l 1
501.559570312 178.306640625 m 1
 501.559570312 131.942382812 l 1
 455.196289062 131.942382812 l 1
 501.559570312 178.306640625 l 1
285.775390625 -19.529296875 m 0
 285.775390625 -48.92578125 261.9453125 -72.755859375 232.549804688 -72.755859375 c 0
 203.153320312 -72.755859375 179.322265625 -48.92578125 179.321289062 -19.5283203125 c 0
 179.321289062 9.8671875 203.15234375 33.697265625 232.549804688 33.697265625 c 0
 261.9453125 33.697265625 285.775390625 9.8671875 285.775390625 -19.529296875 c 0
EndSplineSet
EndChar

StartChar: i
Encoding: 105 105 34
Width: 366
Flags: HW
HStem: -153.296 19.4639<54.1514 125.872> -12.1865 21G<106.304 116.246> 366.666 35.8877<156.631 230.184> 412.693 20G<298.035 315.121>
VStem: 106.304 59.6553<5.91434 244.021> 230.765 81.2549<-138.607 366.434>
LayerCount: 2
Fore
SplineSet
269.504882812 735 m 1
 322.249023438 674.872070312 l 1
 445.305664062 674.62890625 l 2
 479.250976562 674.62890625 477.940429688 661.036132812 454.479492188 595.884765625 c 2
 264.782226562 69.0751953125 l 2
 240.62109375 59.3896484375 202.817382812 49.107421875 174.518554688 44.0751953125 c 1
 362.166992188 565.197265625 l 2
 388.366210938 637.956054688 385.1796875 638.737304688 357.825195312 638.737304688 c 2
 168.26171875 638.737304688 l 2
 162.02734375 638.737304688 161.575195312 642.926757812 165.163085938 646.65234375 c 0
 185.025390625 667.27734375 244.665039062 716.19921875 269.504882812 735 c 1
0 318.44140625 m 1
 46.3642578125 272.077148438 l 1
 0 272.077148438 l 1
 0 318.44140625 l 1
392.19921875 318.439453125 m 1
 392.19921875 272.075195312 l 1
 345.834960938 272.075195312 l 1
 392.19921875 318.439453125 l 1
355.547851562 488.35546875 m 2
 328.46484375 484.3203125 295.885742188 476.965820312 270.211914062 469.616210938 c 0
 210.67578125 452.571289062 131.889648438 413.91015625 131.889648438 361.55859375 c 0
 131.889648438 314.41796875 166.986328125 298.245117188 218.599609375 298.245117188 c 0
 256.450195312 298.245117188 286.041992188 306.84765625 334.21484375 319.235351562 c 1
 260.235351562 278.6328125 l 2
 243.030273438 272.094726562 194.169921875 258.458007812 154.943359375 258.458007812 c 0
 70.6416015625 258.458007812 47.9306640625 296.525390625 47.9306640625 334.375 c 0
 47.9306640625 363.506835938 63.4541015625 392.418945312 82.6064453125 411.572265625 c 0
 102.12890625 431.09375 131.145507812 451.53125 203.116210938 475.795898438 c 0
 226.287109375 483.608398438 316.494140625 508.140625 355.375976562 517.775390625 c 1
 355.547851562 488.35546875 l 2
EndSplineSet
EndChar

StartChar: j
Encoding: 106 106 35
Width: 599
Flags: HW
HStem: -233.055 21G<285.215 298.758> 366.66 35.8926<201.916 285.215 366.477 555.187>
VStem: 285.215 81.2617<-207.308 366.66>
LayerCount: 2
Fore
SplineSet
360.732421875 652.901367188 m 1
 445.0546875 654.520507812 l 1
 234.119140625 69.080078125 l 2
 209.958007812 59.39453125 172.154296875 49.1083984375 143.85546875 44.076171875 c 1
 360.732421875 652.901367188 l 1
117.377929688 638.73828125 m 2
 111.143554688 638.73828125 110.693359375 642.926757812 114.280273438 646.65234375 c 0
 134.143554688 667.278320312 193.782226562 716.19921875 218.622070312 735 c 1
 271.365234375 674.873046875 l 1
 518.154296875 674.629882812 l 2
 554.223632812 674.592773438 611.787109375 679.157226562 624.236328125 680.978515625 c 1
 605.455078125 630.026367188 l 2
 584.965820312 635.069335938 550.575195312 638.73828125 510.427734375 638.73828125 c 2
 117.377929688 638.73828125 l 2
0 318.44140625 m 1
 46.3642578125 272.077148438 l 1
 0 272.077148438 l 1
 0 318.44140625 l 1
505.952148438 318.44140625 m 1
 505.952148438 272.077148438 l 1
 459.587890625 272.077148438 l 1
 505.952148438 318.44140625 l 1
EndSplineSet
EndChar

StartChar: k
Encoding: 107 107 36
Width: 190
Flags: HW
HStem: -20.7891 21G<54.3174 67.8613> 412.689 20G<119.046 135.58> 494.263 106.39<0.0219756 77.2885 112.608 189.876>
VStem: -9.55566 96.4238<503.348 591.567> 54.3174 81.2627<4.95759 365.452> 103.03 96.4238<503.348 591.567>
LayerCount: 2
Fore
SplineSet
140.372070312 501.33203125 m 1
 175.91015625 511.21484375 234.55859375 524.8984375 265.217773438 531.170898438 c 0
 277.541015625 523.180664062 286.9296875 503.412109375 266.139648438 453.650390625 c 2
 170.103515625 223.779296875 l 2
 135.015625 139.791992188 98.4091796875 96.0537109375 69.232421875 69.7177734375 c 1
 58.35546875 72.2958984375 l 1
 57.8564453125 106.826171875 65.744140625 163.5390625 89.939453125 221.453125 c 2
 171.953125 417.7578125 l 2
 193.119140625 468.420898438 197.333007812 481.567382812 178.622070312 483.537109375 c 2
 142.895507812 487.298828125 l 1
 140.372070312 501.33203125 l 1
0 161.364257812 m 1
 46.36328125 115 l 1
 0 115 l 1
 0 161.364257812 l 1
190.634765625 161.364257812 m 1
 190.634765625 115 l 1
 144.271484375 115 l 1
 190.634765625 161.364257812 l 1
295.400390625 686.788085938 m 0
 295.400390625 660.161132812 273.809570312 638.576171875 247.188476562 638.576171875 c 0
 220.560546875 638.576171875 198.977539062 660.161132812 198.977539062 686.788085938 c 0
 198.977539062 713.415039062 220.560546875 735 247.188476562 735 c 0
 273.809570312 735 295.400390625 713.415039062 295.400390625 686.788085938 c 0
407.986328125 686.788085938 m 0
 407.986328125 660.161132812 386.40234375 638.576171875 359.774414062 638.576171875 c 0
 333.1484375 638.576171875 311.5625 660.161132812 311.5625 686.788085938 c 0
 311.5625 713.4140625 333.1484375 735 359.774414062 735 c 0
 386.40234375 735 407.986328125 713.4140625 407.986328125 686.788085938 c 0
EndSplineSet
EndChar

StartChar: l
Encoding: 108 108 37
Width: 190
Flags: HW
HStem: -20.7891 21G<54.3164 67.8604> 412.689 20G<119.045 135.579>
VStem: 54.3164 81.2627<4.95759 365.452>
LayerCount: 2
Fore
SplineSet
169.303710938 705.161132812 m 1
 204.841796875 715.044921875 263.490234375 728.727539062 294.149414062 735 c 0
 306.47265625 727.009765625 315.861328125 707.2421875 295.071289062 657.479492188 c 2
 199.036132812 427.609375 l 2
 163.947265625 343.62109375 127.340820312 299.8828125 98.1640625 273.546875 c 1
 87.2880859375 276.125976562 l 1
 86.7880859375 310.655273438 94.6767578125 367.368164062 118.872070312 425.282226562 c 2
 200.884765625 621.586914062 l 2
 222.05078125 672.25 226.265625 685.397460938 207.553710938 687.3671875 c 2
 171.827148438 691.127929688 l 1
 169.303710938 705.161132812 l 1
28.931640625 365.193359375 m 1
 75.2958984375 318.829101562 l 1
 28.931640625 318.829101562 l 1
 28.931640625 365.193359375 l 1
219.567382812 365.193359375 m 1
 219.567382812 318.829101562 l 1
 173.203125 318.829101562 l 1
 219.567382812 365.193359375 l 1
146.821289062 216.938476562 m 1
 116.42578125 161.1796875 55.1708984375 85.1435546875 29.865234375 85.1435546875 c 0
 13.6298828125 85.1435546875 -3.513671875 153.754882812 0.6259765625 216.938476562 c 1
 22.0517578125 216.938476562 l 2
 24.2255859375 189.052734375 36.4423828125 159.875976562 53.1376953125 159.875976562 c 0
 71.1103515625 159.875976562 107.634765625 194.98828125 122.643554688 216.938476562 c 2
 146.821289062 216.938476562 l 1
EndSplineSet
EndChar

StartChar: m
Encoding: 109 109 38
Width: 190
Flags: HW
HStem: -218.401 106.453<57.1565 142.462> -20.7891 21G<54.3174 67.8613> 412.689 20G<119.046 135.58>
VStem: 46.582 106.454<-207.827 -122.523> 54.3174 81.2627<4.95759 365.452>
LayerCount: 2
Fore
SplineSet
161.215820312 705.161132812 m 1
 196.75390625 715.044921875 255.40234375 728.727539062 286.061523438 735 c 0
 298.384765625 727.009765625 307.7734375 707.2421875 286.983398438 657.479492188 c 2
 190.948242188 427.609375 l 2
 155.859375 343.62109375 119.252929688 299.8828125 90.076171875 273.546875 c 1
 79.2001953125 276.125976562 l 1
 78.7001953125 310.655273438 86.587890625 367.368164062 110.784179688 425.282226562 c 2
 192.796875 621.586914062 l 2
 213.962890625 672.25 218.177734375 685.397460938 199.465820312 687.3671875 c 2
 163.739257812 691.127929688 l 1
 161.215820312 705.161132812 l 1
20.84375 365.193359375 m 1
 67.2080078125 318.829101562 l 1
 20.84375 318.829101562 l 1
 20.84375 365.193359375 l 1
211.479492188 365.193359375 m 1
 211.479492188 318.829101562 l 1
 165.115234375 318.829101562 l 1
 211.479492188 365.193359375 l 1
106.454101562 166.969726562 m 0
 106.454101562 137.573242188 82.6240234375 113.743164062 53.228515625 113.743164062 c 0
 23.83203125 113.743164062 0.0009765625 137.573242188 0 166.970703125 c 0
 0 196.366210938 23.8310546875 220.196289062 53.228515625 220.196289062 c 0
 82.6240234375 220.196289062 106.454101562 196.366210938 106.454101562 166.969726562 c 0
EndSplineSet
EndChar

StartChar: n
Encoding: 110 110 39
Width: 191
Flags: HW
HStem: -233.056 21G<54.3213 67.8647> 412.688 20G<119.048 135.582>
VStem: 54.3213 81.2607<-207.309 365.451>
LayerCount: 2
Fore
SplineSet
282.39453125 735 m 0
 311.596679688 735 308.37109375 721.15625 299.313476562 696.001953125 c 2
 90.263671875 115.453125 l 2
 66.1025390625 105.767578125 28.298828125 95.4814453125 0 90.44921875 c 1
 207.099609375 666.044921875 l 2
 217.803710938 695.794921875 210.6640625 703.698242188 165.124023438 696.456054688 c 1
 165.124023438 714.71484375 l 1
 201.620117188 727.124023438 271.072265625 735 282.39453125 735 c 0
16.13671875 364.8125 m 1
 62.5009765625 318.448242188 l 1
 16.13671875 318.448242188 l 1
 16.13671875 364.8125 l 1
217.680664062 364.8125 m 1
 217.680664062 318.448242188 l 1
 171.317382812 318.448242188 l 1
 217.680664062 364.8125 l 1
EndSplineSet
EndChar

StartChar: o
Encoding: 111 111 40
Width: 463
Flags: HW
HStem: -20.793 21G<327.693 341.237> 164.932 106.453<141.87 227.175> 366.66 35.8926<180.539 327.116> 412.688 20G<394.965 412.051>
VStem: 131.296 106.454<175.506 260.811> 327.693 81.2617<4.95368 366.428>
LayerCount: 2
Fore
SplineSet
149.61328125 638.73828125 m 2
 143.37890625 638.73828125 142.927734375 642.926757812 146.515625 646.65234375 c 0
 166.377929688 667.278320312 226.016601562 716.19921875 250.857421875 735 c 1
 303.599609375 674.873046875 l 1
 456.666992188 674.755859375 l 2
 503.206054688 674.71875 535.29296875 645.412109375 535.29296875 592.178710938 c 0
 535.29296875 541.305664062 486.802734375 488.840820312 424.712890625 435.234375 c 0
 373.995117188 391.4453125 238.625976562 292.7890625 131.29296875 240.69140625 c 1
 103.90625 265.530273438 l 1
 154.04296875 287.584960938 280.353515625 367.258789062 333.46875 411.712890625 c 0
 420.7890625 484.793945312 451.701171875 520.330078125 451.701171875 570.981445312 c 0
 451.701171875 624.844726562 408.415039062 638.73828125 365.805664062 638.73828125 c 2
 149.61328125 638.73828125 l 2
342.278320312 517.198242188 m 0
 342.278320312 487.802734375 318.448242188 463.97265625 289.052734375 463.97265625 c 0
 259.655273438 463.97265625 235.825195312 487.802734375 235.82421875 517.19921875 c 0
 235.82421875 546.595703125 259.655273438 570.42578125 289.052734375 570.42578125 c 0
 318.448242188 570.42578125 342.278320312 546.595703125 342.278320312 517.198242188 c 0
-0 318.440429688 m 1
 46.36328125 272.076171875 l 1
 -0 272.076171875 l 1
 -0 318.440429688 l 1
446.35546875 318.440429688 m 1
 446.35546875 272.076171875 l 1
 399.9921875 272.076171875 l 1
 446.35546875 318.440429688 l 1
EndSplineSet
EndChar

StartChar: p
Encoding: 112 112 41
Width: 423
Flags: HW
HStem: -233.056 21G<287.444 300.988> -20.793 21G<54.3232 67.8667> 366.661 35.8916<141.084 286.867> 412.688 20G<354.716 371.802>
VStem: 54.3232 81.2607<4.95368 355.891> 287.444 81.2622<-214.272 366.428>
LayerCount: 2
Fore
SplineSet
246.196289062 735 m 0
 260.142578125 735 260.649414062 727.259765625 263.170898438 698.530273438 c 2
 293.908203125 348.385742188 l 1
 219.12109375 298.736328125 l 1
 189.45703125 636.673828125 l 2
 185.205078125 685.11328125 176.2265625 689.7578125 163.60546875 689.7578125 c 0
 154.77734375 689.7578125 134.10546875 683.869140625 121.1328125 678.541015625 c 1
 121.1328125 698.861328125 l 1
 175.208984375 721.682617188 232.415039062 735 246.196289062 735 c 0
575.159179688 735 m 0
 595.79296875 735 607.692382812 707.838867188 577.5625 668.83203125 c 2
 285.216796875 290.360351562 l 1
 267.1015625 330.1640625 l 1
 516.451171875 652.978515625 l 2
 535.48046875 677.61328125 526.0234375 688.765625 504.634765625 688.765625 c 0
 498.953125 688.765625 487.232421875 685.697265625 474.155273438 681.208984375 c 1
 474.155273438 701.051757812 l 1
 504.075195312 712.29296875 568.875976562 735 575.159179688 735 c 0
0 364.813476562 m 1
 46.36328125 318.44921875 l 1
 0 318.44921875 l 1
 0 364.813476562 l 1
478.669921875 364.813476562 m 1
 478.669921875 318.44921875 l 1
 432.306640625 318.44921875 l 1
 478.669921875 364.813476562 l 1
317.688476562 345.48046875 m 1
 221.584960938 115.44921875 l 2
 197.423828125 105.763671875 159.620117188 95.4833984375 131.321289062 90.451171875 c 1
 233.458007812 334.921875 l 1
 317.688476562 345.48046875 l 1
EndSplineSet
EndChar

StartChar: q
Encoding: 113 113 42
Width: 815
Flags: HW
HStem: -21.2556 45.2498<366.186 506.624> 366.66 35.8926<186.138 237.956 319.218 541.371 622.632 765.489> 496.435 35.8926<369.046 611.114>
VStem: 237.956 81.2617<73.0046 366.66> 541.371 81.2607<55.2939 366.66>
LayerCount: 2
Fore
SplineSet
418.778320312 580.541015625 m 1
 543.877929688 690.7734375 l 2
 585.563476562 727.504882812 609.05859375 735 669.963867188 735 c 2
 734.54296875 735 l 1
 734.54296875 707.854492188 l 1
 681.247070312 697.719726562 626.48046875 684.958007812 567.557617188 650.86328125 c 2
 446.028320312 580.541015625 l 1
 418.778320312 580.541015625 l 1
485.291992188 548.833984375 m 2
 513.315429688 548.833984375 l 2
 576.99609375 548.833984375 654.310546875 501.931640625 654.310546875 383.302734375 c 0
 654.310546875 260.921875 566.330078125 132.662109375 408.002929688 132.662109375 c 0
 307.409179688 132.662109375 231.203125 192.04296875 231.203125 307.470703125 c 0
 231.203125 446.657226562 342.810546875 548.833984375 485.291992188 548.833984375 c 2
442.266601562 512.942382812 m 0
 375.68359375 512.942382812 312.465820312 448.876953125 312.465820312 343.36328125 c 0
 312.465820312 229.030273438 380.6875 174.731445312 439.270507812 174.731445312 c 0
 512.530273438 174.731445312 573.048828125 240.616210938 573.048828125 347.41015625 c 0
 573.048828125 446.697265625 525.15234375 512.942382812 442.266601562 512.942382812 c 0
117.377929688 512.942382812 m 2
 111.143554688 512.942382812 110.693359375 517.129882812 114.28125 520.856445312 c 0
 134.143554688 541.481445312 193.782226562 590.403320312 218.622070312 609.203125 c 1
 271.365234375 549.077148438 l 1
 678.482421875 548.833007812 l 2
 714.551757812 548.811523438 772.115234375 553.360351562 784.564453125 555.182617188 c 1
 765.782226562 504.23046875 l 2
 745.29296875 509.272460938 710.90234375 512.94140625 670.755859375 512.94140625 c 2
 117.377929688 512.942382812 l 2
0 192.64453125 m 1
 46.3642578125 146.280273438 l 1
 0 146.280273438 l 1
 0 192.64453125 l 1
666.279296875 192.645507812 m 1
 666.279296875 146.28125 l 1
 619.916015625 146.28125 l 1
 666.279296875 192.645507812 l 1
EndSplineSet
EndChar

StartChar: r
Encoding: 114 114 43
Width: 501
Flags: HW
HStem: -10.7051 21G<441.679 458.738> -9.75608e-15 35.8926<135.582 450.858> 366.66 35.8926<141.082 443.438>
VStem: 54.3203 81.2617<-37.1408 -7.10543e-15 35.8926 355.891>
LayerCount: 2
Fore
SplineSet
117.376953125 638.73828125 m 2
 111.142578125 638.73828125 110.692382812 642.926757812 114.280273438 646.65234375 c 0
 134.142578125 667.278320312 193.78125 716.19921875 218.62109375 735 c 1
 271.364257812 674.873046875 l 1
 442.192382812 674.629882812 l 2
 478.26171875 674.578125 535.825195312 679.157226562 548.274414062 680.978515625 c 1
 529.493164062 630.026367188 l 2
 509.00390625 635.069335938 474.61328125 638.73828125 434.465820312 638.73828125 c 2
 117.376953125 638.73828125 l 2
385.774414062 665.658203125 m 1
 396.407226562 638.73828125 l 1
 322.465820312 638.73828125 218.661132812 603.243164062 218.661132812 483.306640625 c 0
 218.661132812 376.543945312 304.528320312 305.880859375 408.461914062 305.880859375 c 0
 431.78125 305.880859375 456.920898438 309.0546875 499.291992188 317.021484375 c 1
 499.291992188 293.576171875 l 1
 422.59375 262.65625 383.594726562 258.455078125 347.287109375 258.455078125 c 0
 229.17578125 258.455078125 137.399414062 331.986328125 137.399414062 447.415039062 c 0
 137.399414062 552.526367188 210.388671875 608.090820312 236.596679688 621.39453125 c 0
 260.205078125 633.37890625 329.603515625 655.774414062 385.774414062 665.658203125 c 1
-0 318.44140625 m 1
 46.36328125 272.077148438 l 1
 -0 272.077148438 l 1
 -0 318.44140625 l 1
482.668945312 318.44140625 m 1
 482.668945312 272.077148438 l 1
 436.305664062 272.077148438 l 1
 482.668945312 318.44140625 l 1
EndSplineSet
EndChar

StartChar: s
Encoding: 115 115 44
Width: 190
Flags: HW
HStem: -20.7891 21G<54.3174 67.8608> 412.689 20G<119.045 135.58>
VStem: 54.3174 81.2627<4.95759 365.452>
LayerCount: 2
Fore
SplineSet
140.37109375 705.161132812 m 1
 175.909179688 715.044921875 234.55859375 728.727539062 265.217773438 735 c 0
 277.541015625 727.009765625 286.9296875 707.2421875 266.139648438 657.479492188 c 2
 170.103515625 427.609375 l 2
 135.014648438 343.62109375 98.408203125 299.8828125 69.2314453125 273.546875 c 1
 58.35546875 276.125 l 1
 57.8564453125 310.655273438 65.744140625 367.368164062 89.939453125 425.282226562 c 2
 171.952148438 621.586914062 l 2
 193.118164062 672.25 197.333007812 685.397460938 178.62109375 687.3671875 c 2
 142.89453125 691.127929688 l 1
 140.37109375 705.161132812 l 1
-0 365.193359375 m 1
 46.36328125 318.829101562 l 1
 -0 318.829101562 l 1
 -0 365.193359375 l 1
190.634765625 365.193359375 m 1
 190.634765625 318.829101562 l 1
 144.271484375 318.829101562 l 1
 190.634765625 365.193359375 l 1
EndSplineSet
EndChar

StartChar: t
Encoding: 116 116 45
Width: 552
Flags: HW
HStem: -10.6455 39.9248<208.824 354.919> 155.258 106.453<229.921 315.225> 376.557 34.6523<194.512 346.366>
VStem: 34.0566 82.8086<121.19 287.212> 219.347 106.453<165.832 251.136> 428.578 90.2979<122.314 305.552>
LayerCount: 2
Fore
SplineSet
358.54296875 735 m 0
 451.46875 735 524.573242188 666.203125 524.573242188 563.254882812 c 0
 524.573242188 420.26171875 425.7421875 304.828125 278.265625 304.828125 c 0
 177.671875 304.828125 99.51953125 373.571289062 99.51953125 477.97265625 c 0
 99.51953125 655.19140625 250.129882812 735 358.54296875 735 c 0
312.530273438 692.623046875 m 0
 250.075195312 692.623046875 180.78125 622.130859375 180.78125 513.864257812 c 0
 180.78125 406.560546875 250.045898438 346.8984375 309.533203125 346.8984375 c 0
 382.79296875 346.8984375 443.311523438 420.568359375 443.311523438 527.362304688 c 0
 443.311523438 626.649414062 395.415039062 692.623046875 312.530273438 692.623046875 c 0
-0 364.811523438 m 1
 46.3642578125 318.447265625 l 1
 -0 318.447265625 l 1
 -0 364.811523438 l 1
479.861328125 364.811523438 m 1
 479.861328125 318.447265625 l 1
 433.497070312 318.447265625 l 1
 479.861328125 364.811523438 l 1
365.278320312 521.205078125 m 0
 365.278320312 491.809570312 341.447265625 467.979492188 312.052734375 467.979492188 c 0
 282.655273438 467.979492188 258.825195312 491.809570312 258.82421875 521.206054688 c 0
 258.82421875 550.602539062 282.655273438 574.432617188 312.052734375 574.432617188 c 0
 341.447265625 574.432617188 365.278320312 550.602539062 365.278320312 521.205078125 c 0
EndSplineSet
EndChar

StartChar: u
Encoding: 117 117 46
Width: 190
Flags: HW
HStem: -233.055 21G<54.3145 67.8584> 412.69 20G<119.043 135.577> 494.231 106.453<52.2936 137.596>
VStem: 41.7197 106.452<504.806 590.11> 54.3145 81.2627<-207.308 365.453>
LayerCount: 2
Fore
SplineSet
282.393554688 526.5390625 m 0
 311.596679688 526.5390625 308.37109375 512.6953125 299.313476562 487.541015625 c 2
 90.263671875 -93.0078125 l 2
 66.1025390625 -102.694335938 28.298828125 -112.98046875 -0 -118.012695312 c 1
 207.099609375 457.583984375 l 2
 217.803710938 487.333984375 210.6640625 495.237304688 165.124023438 487.994140625 c 1
 165.124023438 506.25390625 l 1
 201.620117188 518.663085938 271.072265625 526.5390625 282.393554688 526.5390625 c 0
16.13671875 156.3515625 m 1
 62.5009765625 109.987304688 l 1
 16.13671875 109.987304688 l 1
 16.13671875 156.3515625 l 1
217.680664062 156.3515625 m 1
 217.680664062 109.987304688 l 1
 171.31640625 109.987304688 l 1
 217.680664062 156.3515625 l 1
364.901367188 681.7734375 m 0
 364.901367188 652.376953125 341.0703125 628.546875 311.674804688 628.546875 c 0
 282.278320312 628.546875 258.447265625 652.376953125 258.447265625 681.7734375 c 0
 258.447265625 711.169921875 282.27734375 735 311.674804688 735 c 0
 341.0703125 735 364.901367188 711.169921875 364.901367188 681.7734375 c 0
EndSplineSet
EndChar

StartChar: v
Encoding: 118 118 47
Width: 530
Flags: HW
HStem: -20.79 21G<54.3076 85.7944> 370.873 42.7896<241.156 384.691>
VStem: 54.3076 81.2627<37.9395 321.603 358.646 548.572> 417.393 84.1826<196.833 339.387>
LayerCount: 2
Fore
SplineSet
334.786132812 735 m 0
 363.989257812 735 360.786132812 721.086914062 351.569335938 695.990234375 c 2
 160.163085938 174.827148438 l 1
 387.528320312 154.069335938 490.1328125 306.21875 490.1328125 399.37109375 c 0
 490.1328125 460.694335938 458.870117188 505.008789062 384.395507812 505.008789062 c 0
 327.239257812 505.008789062 270.650390625 477.11328125 243.935546875 402.92578125 c 1
 243.935546875 402.92578125 186.096679688 463.5703125 251.303710938 498.606445312 c 0
 281.221679688 512.215820312 334.71484375 531.639648438 367.749023438 543.189453125 c 0
 384.27734375 546.899414062 415.025390625 548.49609375 442.532226562 548.49609375 c 0
 512.282226562 548.49609375 571.393554688 514.305664062 571.393554688 425.530273438 c 0
 571.393554688 325.65625 478.560546875 215.557617188 353.3515625 162.14453125 c 0
 331.546875 152.842773438 296.201171875 141.487304688 272.08984375 135.985351562 c 0
 226 125.467773438 170.942382812 117.881835938 116.327148438 118.322265625 c 0
 93.18359375 118.508789062 70.8916015625 120.131835938 60.259765625 123.565429688 c 1
 259.489257812 666.033203125 l 2
 270.389648438 695.712890625 263.055664062 703.685546875 217.515625 696.443359375 c 1
 217.515625 714.703125 l 1
 254.010742188 727.111328125 323.46484375 735 334.786132812 735 c 0
-0 178.306640625 m 1
 46.36328125 131.942382812 l 1
 -0 131.942382812 l 1
 -0 178.306640625 l 1
501.559570312 178.306640625 m 1
 501.559570312 131.942382812 l 1
 455.196289062 131.942382812 l 1
 501.559570312 178.306640625 l 1
323.850585938 30.439453125 m 1
 293.454101562 -25.3193359375 232.19921875 -101.35546875 206.893554688 -101.35546875 c 0
 190.658203125 -101.35546875 173.515625 -32.744140625 177.654296875 30.439453125 c 1
 199.081054688 30.439453125 l 2
 201.25390625 2.5537109375 213.470703125 -26.623046875 230.166992188 -26.623046875 c 0
 248.138671875 -26.623046875 284.6640625 8.4892578125 299.671875 30.439453125 c 2
 323.850585938 30.439453125 l 1
EndSplineSet
EndChar

StartChar: w
Encoding: 119 119 48
Width: 677
Flags: HW
HStem: -233.056 21G<541.375 554.919> -21.2556 45.2498<366.194 507.045> 366.66 35.8926<186.141 237.969 319.224 540.795> 412.688 20G<608.645 625.731>
VStem: 237.969 81.2549<73.0046 366.66> 541.375 81.2627<-207.309 12.833 47.1168 366.428>
LayerCount: 2
Fore
SplineSet
358.54296875 735 m 0
 451.46875 735 524.572265625 666.203125 524.572265625 563.254882812 c 0
 524.572265625 420.26171875 425.7421875 304.828125 278.265625 304.828125 c 0
 177.671875 304.828125 99.51953125 373.571289062 99.51953125 477.97265625 c 0
 99.51953125 655.19140625 250.129882812 735 358.54296875 735 c 0
312.529296875 692.623046875 m 0
 250.075195312 692.623046875 180.78125 622.130859375 180.78125 513.864257812 c 0
 180.78125 406.560546875 250.045898438 346.8984375 309.533203125 346.8984375 c 0
 382.79296875 346.8984375 443.311523438 420.568359375 443.311523438 527.362304688 c 0
 443.311523438 626.649414062 395.415039062 692.623046875 312.529296875 692.623046875 c 0
-0 364.811523438 m 1
 46.36328125 318.447265625 l 1
 -0 318.447265625 l 1
 -0 364.811523438 l 1
479.861328125 364.811523438 m 1
 479.861328125 318.447265625 l 1
 433.497070312 318.447265625 l 1
 479.861328125 364.811523438 l 1
198.913085938 284.5703125 m 1
 198.913085938 293.861328125 l 1
 260.344726562 324.583007812 l 2
 319.529296875 324.583007812 349.280273438 315.7109375 349.280273438 257.21484375 c 0
 349.280273438 219.267578125 322.864257812 171.209960938 256.147460938 129.405273438 c 0
 223.625 109.026367188 174.830078125 91.23828125 128.374023438 76.2236328125 c 1
 128.374023438 96.869140625 l 1
 210.956054688 129.213867188 265.322265625 184.268554688 265.322265625 235.538085938 c 0
 265.322265625 275.795898438 246.064453125 284.5703125 198.913085938 284.5703125 c 1
EndSplineSet
EndChar

StartChar: x
Encoding: 120 120 49
Width: 355
Flags: HW
HStem: -153.298 19.4648<42.8232 110.88> 366.665 35.8877<145.303 218.856> 412.692 20G<286.707 303.792> 494.231 106.453<135.211 220.514>
VStem: 124.638 106.452<504.806 590.11> 219.437 81.2549<-138.608 366.433>
LayerCount: 2
Fore
SplineSet
482.021484375 681.7734375 m 0
 482.021484375 652.376953125 458.190429688 628.546875 428.794921875 628.546875 c 0
 399.397460938 628.546875 375.567382812 652.376953125 375.567382812 681.7734375 c 0
 375.567382812 711.169921875 399.397460938 735 428.794921875 735 c 0
 458.190429688 735 482.021484375 711.169921875 482.021484375 681.7734375 c 0
300.6875 566.5 m 1
 345.318359375 512.401367188 l 1
 503.172851562 512.157226562 l 2
 537.118164062 512.157226562 535.802734375 498.569335938 512.342773438 433.416992188 c 2
 322.645507812 -93.3916015625 l 2
 298.484375 -103.078125 260.680664062 -113.360351562 232.381835938 -118.392578125 c 1
 420.033203125 402.725585938 l 2
 445.999023438 474.8359375 443.0625 476.265625 416.379882812 476.265625 c 2
 209.579101562 476.265625 l 2
 203.344726562 476.265625 202.892578125 480.455078125 206.48046875 484.180664062 c 0
 226.342773438 504.806640625 275.84765625 547.69921875 300.6875 566.5 c 1
82.607421875 155.970703125 m 1
 128.971679688 109.606445312 l 1
 82.607421875 109.606445312 l 1
 82.607421875 155.970703125 l 1
450.064453125 155.970703125 m 1
 450.064453125 109.606445312 l 1
 403.700195312 109.606445312 l 1
 450.064453125 155.970703125 l 1
232.381835938 -118.393554688 m 1
 204.469726562 -85.1123046875 175.20703125 -73.998046875 143.676757812 -73.998046875 c 0
 120.607421875 -73.998046875 76.0078125 -87.201171875 6.2265625 -111.678710938 c 1
 -0 -98.3662109375 l 1
 49.5986328125 -79.6865234375 97.6943359375 -63.58203125 109.2890625 -59.2880859375 c 0
 155.32421875 -42.23828125 196.676757812 -34.3818359375 215.786132812 -34.3818359375 c 0
 254.434570312 -34.3818359375 281.91796875 -48.7685546875 314.5546875 -79.04296875 c 1
 232.381835938 -118.393554688 l 1
EndSplineSet
EndChar

StartChar: y
Encoding: 121 121 50
Width: 510
Flags: HW
HStem: -233.056 21G<54.3223 67.8657> -20.793 21G<256.302 269.845> 364.596 35.8926<141.08 256.302 337.563 459.016>
VStem: 54.3223 81.2627<-207.308 353.826> 256.302 81.2617<4.95293 364.596>
LayerCount: 2
Fore
SplineSet
274.607421875 735 m 0
 303.810546875 735 300.284179688 721.262695312 291.52734375 696.001953125 c 2
 90.263671875 115.453125 l 2
 66.1025390625 105.766601562 28.298828125 95.48046875 -0 90.44921875 c 1
 199.546875 666.044921875 l 2
 209.90234375 695.916992188 202.877929688 703.698242188 157.337890625 696.456054688 c 1
 157.337890625 714.71484375 l 1
 193.833984375 727.124023438 263.286132812 735 274.607421875 735 c 0
8.08984375 364.8125 m 1
 54.4541015625 318.44921875 l 1
 8.08984375 318.44921875 l 1
 8.08984375 364.8125 l 1
637.014648438 364.8125 m 1
 637.014648438 318.44921875 l 1
 590.651367188 318.44921875 l 1
 637.014648438 364.8125 l 1
245.522460938 563.302734375 m 1
 253.681640625 670.993164062 l 2
 263.359375 684.43359375 303.752929688 702.439453125 363.016601562 722.084960938 c 0
 383.751953125 728.958984375 415.501953125 735 434.819335938 735 c 0
 453.828125 735 487.541015625 726.284179688 498.608398438 685.819335938 c 1
 514.291992188 696.599609375 560.615234375 717.712890625 584.728515625 725.750976562 c 0
 600.524414062 731.016601562 615.890625 735 639.651367188 735 c 0
 673.486328125 735 736.375976562 707.782226562 761.107421875 637.350585938 c 0
 740.583984375 621.13671875 714.349609375 602.500976562 692.181640625 587.946289062 c 2
 675.872070312 587.946289062 l 1
 667.32421875 660.360351562 618.251953125 691.008789062 583.305664062 691.008789062 c 0
 556.9609375 691.008789062 528.30859375 671.221679688 506.802734375 642.189453125 c 2
 506.802734375 642.189453125 510.028320312 614.232421875 510.028320312 573.909179688 c 0
 510.028320312 435.735351562 439.059570312 304.829101562 365.940429688 304.829101562 c 0
 340.133789062 304.829101562 324.004882812 329.282226562 324.004882812 373.369140625 c 0
 324.004882812 442.186523438 368.090820312 545.951171875 424.543945312 623.372070312 c 1
 417.016601562 674.985351562 387.06640625 691.833984375 367.173828125 691.833984375 c 0
 330.287109375 691.833984375 275.556640625 649.934570312 245.522460938 563.302734375 c 1
EndSplineSet
EndChar

StartChar: z
Encoding: 122 122 51
Width: 355
Flags: HW
HStem: -153.297 19.4648<42.8242 114.544> 366.665 35.8877<145.303 218.857> 412.693 20G<286.707 303.793>
VStem: 219.437 81.2559<-138.608 366.433>
LayerCount: 2
Fore
SplineSet
310.822265625 735 m 1
 363.567382812 674.872070312 l 1
 503.172851562 674.62890625 l 2
 537.118164062 674.62890625 535.802734375 661.040039062 512.342773438 595.887695312 c 2
 322.645507812 69.0791015625 l 2
 298.484375 59.3935546875 260.680664062 49.111328125 232.381835938 44.0791015625 c 1
 420.033203125 565.197265625 l 2
 445.999023438 637.306640625 443.063476562 638.737304688 416.379882812 638.737304688 c 2
 209.579101562 638.737304688 l 2
 203.344726562 638.737304688 202.892578125 642.926757812 206.48046875 646.65234375 c 0
 226.342773438 667.27734375 285.982421875 716.19921875 310.822265625 735 c 1
82.607421875 318.44140625 m 1
 128.971679688 272.078125 l 1
 82.607421875 272.078125 l 1
 82.607421875 318.44140625 l 1
450.064453125 318.44140625 m 1
 450.064453125 272.078125 l 1
 403.700195312 272.078125 l 1
 450.064453125 318.44140625 l 1
232.381835938 44.0771484375 m 1
 204.469726562 77.3583984375 175.20703125 88.47265625 143.676757812 88.47265625 c 0
 120.607421875 88.47265625 76.0078125 75.26953125 6.2265625 50.79296875 c 1
 -0 64.10546875 l 1
 49.5986328125 82.78515625 97.6943359375 98.888671875 109.2890625 103.182617188 c 0
 155.32421875 120.232421875 196.676757812 128.088867188 215.786132812 128.088867188 c 0
 254.434570312 128.088867188 281.91796875 113.703125 314.5546875 83.4287109375 c 1
 232.381835938 44.0771484375 l 1
EndSplineSet
EndChar

StartChar: zero
Encoding: 48 48 52
Width: 473
VWidth: 800
Flags: HW
HStem: -13.1807 30.4502<183.261 290.011> 384.77 30.4512<182.272 291>
VStem: 29.4932 69.6465<104.179 300.265> 374.127 69.6465<104.179 300.265>
LayerCount: 2
Fore
SplineSet
378.364257812 735 m 0
 506.1875 735 544.184570312 641.866210938 500.588867188 520.798828125 c 0
 456.993164062 399.731445312 350.849609375 306.598632812 224.100585938 306.598632812 c 0
 97.3515625 306.598632812 58.279296875 399.731445312 101.875976562 520.798828125 c 0
 145.471679688 641.866210938 250.541015625 735 378.364257812 735 c 0
367.40234375 704.548828125 m 0
 289.78125 704.548828125 217.08203125 625.704101562 179.305664062 520.798828125 c 0
 141.528320312 415.893554688 158.044921875 337.048828125 235.069335938 337.048828125 c 0
 312.094726562 337.048828125 385.3828125 415.893554688 423.159179688 520.798828125 c 0
 460.936523438 625.704101562 445.0234375 704.548828125 367.40234375 704.548828125 c 0
-0 366.143554688 m 1
 46.3623046875 319.779296875 l 1
 -0 319.779296875 l 1
 -0 366.143554688 l 1
457.706054688 366.143554688 m 1
 457.706054688 319.779296875 l 1
 411.344726562 319.779296875 l 1
 457.706054688 366.143554688 l 1
EndSplineSet
EndChar

StartChar: one
Encoding: 49 49 53
Width: 270
VWidth: 800
Flags: HW
HStem: 0 24<24 93.7678 177.355 247> 378 24<24 94.1035 176.989 247>
VStem: 95 81<24.4002 377.678>
LayerCount: 2
Fore
SplineSet
239.955078125 735 m 1
 321.217773438 735 l 1
 176.267578125 332.44921875 l 1
 95.0048828125 332.44921875 l 1
 239.955078125 735 l 1
111.080078125 377.09765625 m 2
 119.267578125 399.830078125 l 1
 130.943359375 399.830078125 l 1
 95.0048828125 332.447265625 l 1
 23.8505859375 332.447265625 l 1
 32.568359375 356.66015625 l 1
 71.544921875 356.66015625 l 2
 95.46875 356.66015625 104.936523438 360.029296875 111.080078125 377.09765625 c 2
192.342773438 377.09765625 m 2
 186.19921875 360.029296875 193.240234375 356.66015625 217.1640625 356.66015625 c 2
 256.139648438 356.66015625 l 1
 247.421875 332.447265625 l 1
 176.267578125 332.447265625 l 1
 188.85546875 399.830078125 l 1
 200.530273438 399.830078125 l 1
 192.342773438 377.09765625 l 2
223.880859375 690.349609375 m 2
 230.0234375 707.41796875 222.983398438 710.787109375 199.05859375 710.787109375 c 2
 160.083007812 710.787109375 l 1
 168.80078125 735 l 1
 239.955078125 735 l 1
 227.368164062 667.6171875 l 1
 215.692382812 667.6171875 l 1
 223.880859375 690.349609375 l 2
305.143554688 690.349609375 m 2
 296.955078125 667.6171875 l 1
 285.280273438 667.6171875 l 1
 321.217773438 735 l 1
 392.372070312 735 l 1
 383.654296875 710.787109375 l 1
 344.678710938 710.787109375 l 2
 320.75390625 710.787109375 311.286132812 707.41796875 305.143554688 690.349609375 c 2
0 378.811523438 m 1
 46.3623046875 332.447265625 l 1
 0 332.447265625 l 1
 0 378.811523438 l 1
271.287109375 378.811523438 m 1
 271.287109375 332.447265625 l 1
 224.92578125 332.447265625 l 1
 271.287109375 378.811523438 l 1
EndSplineSet
EndChar

StartChar: two
Encoding: 50 50 54
Width: 335
VWidth: 800
Flags: HW
HStem: 0 65<91 306.034> 362 52<82.1597 189.745>
VStem: 216 78<241.063 337.185>
LayerCount: 2
Fore
SplineSet
315.494140625 735 m 0
 384.168945312 735 427.6328125 690.859375 404.385742188 626.297851562 c 0
 382.080078125 564.361328125 326.315429688 536.547851562 241.125 483.84375 c 0
 169.875 439.762695312 138.049804688 416.8671875 114.250976562 385.604492188 c 1
 300.463867188 385.604492188 l 2
 319.3046875 385.604492188 325.05078125 390.965820312 338.9765625 409.171875 c 2
 356.2578125 409.171875 l 1
 314.213867188 340.859375 l 2
 308.733398438 331.958007812 306.607421875 328.256835938 303.318359375 320.768554688 c 2
 17.5908203125 320.768554688 l 1
 23.51953125 337.235351562 l 2
 54.7568359375 384.76953125 100.20703125 422.578125 201.450195312 488.232421875 c 0
 254.330078125 522.524414062 299.83203125 554.465820312 318.827148438 607.22265625 c 0
 334.24609375 650.034179688 309.763671875 683.510742188 263.51171875 683.510742188 c 0
 225.734375 683.510742188 182.336914062 662.763671875 160.59765625 633.177734375 c 1
 136.284179688 633.177734375 l 1
 173.516601562 694.162109375 243.280273438 735 315.494140625 735 c 0
0 367.1328125 m 1
 46.3623046875 320.768554688 l 1
 0 320.768554688 l 1
 0 367.1328125 l 1
335.63671875 367.1328125 m 1
 335.63671875 320.768554688 l 1
 289.274414062 320.768554688 l 1
 335.63671875 367.1328125 l 1
EndSplineSet
EndChar

StartChar: three
Encoding: 51 51 55
Width: 325
VWidth: 800
Flags: HW
HStem: -243 19<8.31579 26.396> 161 17<72 95.2115> 365 49<71.2584 163.012>
VStem: 185 81<243.473 343.639> 208 82<-63.7969 88.0882>
LayerCount: 2
Fore
SplineSet
217.612304688 665.26953125 m 1
 262.760742188 705.010742188 320.48828125 735 380.681640625 735 c 0
 444.3984375 735 477.849609375 691.475585938 456.418945312 631.956054688 c 0
 437.071289062 578.220703125 387.361328125 539.124023438 330.369140625 511.793945312 c 1
 384.75 494.078125 411.778320312 442.38671875 380.0859375 354.37109375 c 0
 330.07421875 215.494140625 180.357421875 112.841796875 2.611328125 78.1533203125 c 1
 -0 97.51171875 l 1
 149.8125 140.299804688 251.284179688 224.791992188 286.139648438 321.583984375 c 0
 320.275390625 416.375976562 282.807617188 471.291015625 208.3203125 482.452148438 c 1
 214.610351562 499.91015625 l 1
 275.28125 515.125 346.295898438 552.103515625 365.180664062 604.541015625 c 0
 385.30859375 660.431640625 355.852539062 686.11328125 313.962890625 686.11328125 c 0
 288.70703125 686.11328125 253.895507812 669.268554688 231.33203125 652.23046875 c 2
 217.612304688 665.26953125 l 1
78.533203125 368.076171875 m 1
 124.895507812 321.711914062 l 1
 78.533203125 321.711914062 l 1
 78.533203125 368.076171875 l 1
404.465820312 368.076171875 m 1
 404.465820312 321.711914062 l 1
 358.103515625 321.711914062 l 1
 404.465820312 368.076171875 l 1
EndSplineSet
EndChar

StartChar: four
Encoding: 52 52 56
Width: 478
VWidth: 800
Flags: HW
HStem: 8 21G<-10 9.5> 19 54<84 261 342 465.204> 395 20G<303.417 342>
VStem: 261 81<-193.616 19 73 285>
LayerCount: 2
Fore
SplineSet
473.200195312 735 m 1
 495.498046875 735 l 1
 288.604492188 160.4375 l 2
 283.461914062 146.157226562 283.844726562 141.171875 282.248046875 127.211914062 c 2
 187.096679688 82.3818359375 l 1
 179.872070312 88.392578125 l 2
 186.0078125 101.799804688 191.215820312 115.655273438 196.71875 130.940429688 c 2
 367.46875 605.119140625 l 1
 114.206054688 392.616210938 l 1
 445.325195312 392.616210938 l 2
 466.704101562 392.616210938 494.078125 393.625976562 513.345703125 395.333984375 c 2
 518.083007812 388.194335938 l 1
 473.030273438 336.3046875 l 2
 458.684570312 338.521484375 442.56640625 339.072265625 416.177734375 339.072265625 c 2
 57.4853515625 339.072265625 l 2
 31.20703125 339.072265625 27.8447265625 337.85546875 8.857421875 328.366210938 c 2
 -0 336.680664062 l 1
 473.200195312 735 l 1
3.9794921875 366.42578125 m 1
 50.341796875 320.061523438 l 1
 3.9794921875 320.061523438 l 1
 3.9794921875 366.42578125 l 1
483.04296875 366.42578125 m 1
 483.04296875 320.061523438 l 1
 436.680664062 320.061523438 l 1
 483.04296875 366.42578125 l 1
EndSplineSet
EndChar

StartChar: five
Encoding: 53 53 57
Width: 350
VWidth: 800
Flags: HW
HStem: -243 19<29.3158 41.2865> 338 64<118 286.062>
VStem: 226 85<-59.7402 87.233>
LayerCount: 2
Fore
SplineSet
306.841796875 718.483398438 m 1
 457.043945312 718.483398438 l 2
 481.129882812 718.483398438 488.8984375 721.924804688 499.80859375 735 c 2
 516.942382812 735 l 1
 473.030273438 674.965820312 l 2
 468.116210938 668.252929688 464.658203125 663.015625 458.669921875 653.6484375 c 2
 297.395507812 653.6484375 l 1
 239.704101562 564.693359375 l 1
 385.93359375 550.1171875 420.296875 458.893554688 382.204101562 353.114257812 c 0
 337.475585938 228.887695312 193.635742188 108.538085938 2.861328125 72.3740234375 c 1
 -0 91.8505859375 l 1
 131.950195312 132.12109375 244.471679688 208.055664062 286.331054688 324.298828125 c 0
 313.631835938 400.120117188 295.748046875 484.965820312 162.826171875 499.778320312 c 1
 306.841796875 718.483398438 l 1
57.5068359375 362.295898438 m 1
 103.869140625 315.931640625 l 1
 57.5068359375 315.931640625 l 1
 57.5068359375 362.295898438 l 1
408.555664062 362.295898438 m 1
 408.555664062 315.931640625 l 1
 362.193359375 315.931640625 l 1
 408.555664062 362.295898438 l 1
EndSplineSet
EndChar

StartChar: six
Encoding: 54 54 58
Width: 450
VWidth: 800
Flags: HW
HStem: -10 36<190.732 293.184> 282 51<192.313 300.939> 578 20<362.261 384.4>
VStem: 37 86<116.842 240.905> 343 79<93.5061 236.868>
LayerCount: 2
Fore
SplineSet
595.181640625 714.798828125 m 1
 382.439453125 662.272460938 262.4296875 522.749023438 214.06640625 388.436523438 c 0
 157.610351562 231.65625 188.170898438 162.340820312 253.778320312 162.340820312 c 0
 307.518554688 162.340820312 372.353515625 218.123046875 397.587890625 288.193359375 c 0
 419.908203125 350.173828125 415.508789062 418.709960938 339.874023438 418.709960938 c 0
 296.130859375 418.709960938 233.48046875 386.592773438 179.26171875 339.552734375 c 1
 171.676757812 357.473632812 l 1
 234.848632812 422.181640625 323.556640625 469.384765625 389.818359375 469.384765625 c 0
 495.947265625 469.384765625 512.05859375 387.47265625 486.272460938 315.870117188 c 0
 451.923828125 220.490234375 339.54296875 127.686523438 231.237304688 127.686523438 c 0
 129.051757812 127.686523438 63.650390625 210.522460938 121.349609375 370.747070312 c 0
 172.611328125 513.100585938 310.71875 681.590820312 598.396484375 735 c 1
 595.181640625 714.798828125 l 1
-0 183.325195312 m 1
 46.3623046875 136.9609375 l 1
 -0 136.9609375 l 1
 -0 183.325195312 l 1
450.923828125 183.325195312 m 1
 450.923828125 136.9609375 l 1
 404.561523438 136.9609375 l 1
 450.923828125 183.325195312 l 1
EndSplineSet
EndChar

StartChar: seven
Encoding: 55 55 59
Width: 398
VWidth: 800
Flags: HW
HStem: 338 64<51.25 331>
VStem: 97 62<-212 -142.278>
LayerCount: 2
Fore
SplineSet
197.314453125 735 m 2
 536.725585938 735 l 1
 531.15625 719.534179688 l 1
 345.78125 497.370117188 l 2
 234.356445312 363.227539062 125.903320312 203.565429688 82.8662109375 120.649414062 c 1
 20.4658203125 120.649414062 l 1
 67.1962890625 202.490234375 171.073242188 333.244140625 302.751953125 490.845703125 c 2
 452.571289062 670.166015625 l 1
 222.092773438 670.166015625 l 2
 196.27734375 670.166015625 182.248046875 667.885742188 167.7109375 651.7734375 c 2
 155.138671875 637.8359375 l 1
 138.799804688 637.8359375 l 1
 180.01953125 705.362304688 l 2
 186.309570312 715.254882812 193.033203125 725.75 197.314453125 735 c 2
-0 378.811523438 m 1
 46.3623046875 332.447265625 l 1
 -0 332.447265625 l 1
 -0 378.811523438 l 1
398.344726562 378.811523438 m 1
 398.344726562 332.447265625 l 1
 351.982421875 332.447265625 l 1
 398.344726562 378.811523438 l 1
EndSplineSet
EndChar

StartChar: eight
Encoding: 56 56 60
Width: 433
VWidth: 800
Flags: HW
HStem: -8 34<172.011 282.577> 566 30<158.165 258.086>
VStem: 34 72<89.0986 230.57> 52 64<428.978 522.543> 307 67<406.766 523.63> 334 68<87.1321 209.17>
LayerCount: 2
Fore
SplineSet
438.204101562 735 m 0
 525.705078125 735 568.904296875 678.299804688 545.09765625 612.189453125 c 0
 525.138671875 556.763671875 462.944335938 502.903320312 367.020507812 459.762695312 c 1
 354.020507812 478.125976562 l 1
 400.030273438 506.918945312 449.651367188 534.365234375 470.853515625 593.24609375 c 0
 492.651367188 653.7734375 469.469726562 704.115234375 416.200195312 704.115234375 c 0
 370.610351562 704.115234375 309.379882812 674.877929688 289.701171875 620.237304688 c 0
 274.060546875 576.806640625 295.5859375 549.62890625 337.262695312 516.290039062 c 2
 411.6171875 456.80859375 l 2
 457.971679688 419.725585938 490.856445312 383.421875 462.194335938 303.82421875 c 0
 427.095703125 206.356445312 314.139648438 130.577148438 215.869140625 130.577148438 c 0
 110.28515625 130.577148438 55.4326171875 198.752929688 88.83984375 291.541992188 c 0
 121.24609375 381.529296875 207.87890625 432.435546875 303.782226562 454.280273438 c 1
 314.684570312 438.561523438 l 1
 238.866210938 411.413085938 187.913085938 364.80078125 165.048828125 301.296875 c 0
 139.049804688 229.099609375 169.646484375 165.485351562 232.752929688 165.485351562 c 0
 291.510742188 165.485351562 360.443359375 210.784179688 383.381835938 274.486328125 c 0
 403.001953125 328.983398438 392.231445312 362.4609375 349.526367188 395.745117188 c 2
 269.323242188 458.25390625 l 2
 221.8203125 495.2734375 196.512695312 541.09375 214.780273438 591.826171875 c 0
 243.405273438 671.31640625 346.958007812 735 438.204101562 735 c 0
0 185.075195312 m 1
 46.3623046875 138.7109375 l 1
 0 138.7109375 l 1
 0 185.075195312 l 1
433.900390625 185.075195312 m 1
 433.900390625 138.7109375 l 1
 387.538085938 138.7109375 l 1
 433.900390625 185.075195312 l 1
EndSplineSet
EndChar

StartChar: nine
Encoding: 57 57 61
Width: 450
VWidth: 800
Flags: HW
HStem: -235 20<47.25 69.3907> 70 54<162.149 264.965> 376 35<146.554 250.949>
VStem: 26 80<184.493 316.606>
LayerCount: 2
Fore
SplineSet
3.21484375 108.958984375 m 1
 215.95703125 161.484375 364.842773438 326.719726562 413.206054688 461.03125 c 0
 473.1484375 627.489257812 437.15234375 700.345703125 371.544921875 700.345703125 c 0
 315.736328125 700.345703125 260.0390625 653.048828125 234.8046875 582.978515625 c 0
 212.484375 520.998046875 233.223632812 448.391601562 301.288085938 448.391601562 c 0
 355.271484375 448.391601562 396.66015625 478.958007812 443.08203125 525.831054688 c 1
 440.764648438 493.487304688 l 1
 396.616210938 441.626953125 315.390625 394.274414062 246.6640625 394.274414062 c 0
 140.536132812 394.274414062 120.333984375 483.69921875 146.119140625 555.302734375 c 0
 180.467773438 650.681640625 285.780273438 735 394.0859375 735 c 0
 496.270507812 735 564.89453125 648.831054688 507.203125 488.60546875 c 0
 455.94140625 346.251953125 287.677734375 142.166015625 0 88.7568359375 c 1
 3.21484375 108.958984375 l 1
36.3427734375 370.510742188 m 1
 82.7041015625 324.146484375 l 1
 36.3427734375 324.146484375 l 1
 36.3427734375 370.510742188 l 1
487.266601562 370.510742188 m 1
 487.266601562 324.146484375 l 1
 440.904296875 324.146484375 l 1
 487.266601562 370.510742188 l 1
EndSplineSet
EndChar

StartChar: period
Encoding: 46 46 62
Width: 178
VWidth: 800
Flags: HW
HStem: -19 119<43.7454 136.255>
VStem: 30 120<-5.25464 86.6614>
LayerCount: 2
Fore
SplineSet
163.953125 675.247070312 m 0
 159.084960938 661.727539062 149.629882812 648.133789062 136.265625 636.959960938 c 0
 119.3671875 622.83203125 99.77734375 615.494140625 82.6826171875 615.494140625 c 0
 69.1650390625 615.495117188 57.2138671875 620.0546875 49.4052734375 629.39453125 c 0
 39.5302734375 641.206054688 38.294921875 658.15234375 44.4501953125 675.247070312 c 0
 49.318359375 688.766601562 58.7724609375 702.361328125 72.13671875 713.534179688 c 0
 89.033203125 727.66015625 108.619140625 734.998046875 125.712890625 735 c 0
 139.233398438 735.000976562 151.1875 730.44140625 158.998046875 721.099609375 c 0
 168.872070312 709.288085938 170.108398438 692.341796875 163.953125 675.247070312 c 0
0.0009765625 681.037109375 m 1
 46.3623046875 634.672851562 l 1
 0.0009765625 634.672851562 l 1
 0.0009765625 681.037109375 l 1
179.166015625 681.037109375 m 1
 179.166015625 634.672851562 l 1
 132.8046875 634.672851562 l 1
 179.166015625 681.037109375 l 1
EndSplineSet
EndChar

StartChar: comma
Encoding: 44 44 63
Width: 173
VWidth: 800
Flags: HW
HStem: -2 102<39.3665 97.509>
VStem: 99 58<-57.9812 40>
LayerCount: 2
Fore
SplineSet
131.075195312 735 m 0
 180.791992188 735 194.592773438 702.555664062 174.870117188 647.787109375 c 0
 153.895507812 589.54296875 94.0634765625 534.875 12.4775390625 499.94921875 c 1
 0 525.346679688 l 1
 64.1806640625 556.640625 96.1748046875 588.885742188 105.385742188 614.467773438 c 0
 109.46875 625.8046875 105.577148438 630.271484375 96.755859375 631.979492188 c 0
 60.126953125 639.05859375 49.4892578125 657.790039062 59.90625 686.716796875 c 0
 68.3662109375 710.201171875 99.3671875 735 131.075195312 735 c 0
13.30859375 681.03515625 m 1
 59.6708984375 634.671875 l 1
 13.30859375 634.671875 l 1
 13.30859375 681.03515625 l 1
187.119140625 681.03515625 m 1
 187.119140625 634.671875 l 1
 140.756835938 634.671875 l 1
 187.119140625 681.03515625 l 1
EndSplineSet
EndChar

StartChar: colon
Encoding: 58 58 64
Width: 179
VWidth: 800
Flags: HW
HStem: -19 119<43.7454 136.255> 264 119<43.7454 136.255>
VStem: 30 120<-5.25464 86.6614 277.339 369.255>
LayerCount: 2
Fore
SplineSet
265.798828125 675.247070312 m 0
 260.930664062 661.727539062 251.4765625 648.133789062 238.112304688 636.959960938 c 0
 221.212890625 622.83203125 201.624023438 615.494140625 184.529296875 615.494140625 c 0
 171.010742188 615.495117188 159.060546875 620.0546875 151.250976562 629.39453125 c 0
 141.375976562 641.206054688 140.140625 658.15234375 146.295898438 675.247070312 c 0
 151.1640625 688.766601562 160.618164062 702.361328125 173.983398438 713.534179688 c 0
 190.881835938 727.662109375 210.470703125 735 227.565429688 735 c 0
 241.083984375 734.999023438 253.03515625 730.439453125 260.84375 721.099609375 c 0
 270.71875 709.288085938 271.954101562 692.341796875 265.798828125 675.247070312 c 0
163.952148438 392.400390625 m 0
 159.083984375 378.880859375 149.629882812 365.287109375 136.265625 354.11328125 c 0
 119.366210938 339.985351562 99.77734375 332.647460938 82.6826171875 332.647460938 c 0
 69.1640625 332.6484375 57.2138671875 337.208007812 49.404296875 346.548828125 c 0
 39.529296875 358.359375 38.2939453125 375.306640625 44.44921875 392.400390625 c 0
 49.3173828125 405.919921875 58.771484375 419.514648438 72.13671875 430.6875 c 0
 89.033203125 444.813476562 108.619140625 452.151367188 125.711914062 452.153320312 c 0
 139.232421875 452.154296875 151.186523438 447.594726562 158.997070312 438.252929688 c 0
 168.872070312 426.44140625 170.107421875 409.495117188 163.952148438 392.400390625 c 0
-0 398.190429688 m 1
 46.3623046875 351.826171875 l 1
 -0 351.826171875 l 1
 -0 398.190429688 l 1
179.172851562 398.190429688 m 1
 179.172851562 351.826171875 l 1
 132.811523438 351.826171875 l 1
 179.172851562 398.190429688 l 1
EndSplineSet
EndChar

StartChar: semicolon
Encoding: 59 59 65
Width: 178
VWidth: 800
Flags: HW
HStem: -2 102<40.9366 101.578> 264 119<43.7454 136.255>
VStem: 30 120<277.339 369.255> 102 57<-57.9812 40>
LayerCount: 2
Fore
SplineSet
131.08203125 452.155273438 m 0
 180.791992188 452.155273438 194.592773438 419.7109375 174.869140625 364.942382812 c 0
 153.895507812 306.698242188 94.0634765625 252.030273438 12.4765625 217.104492188 c 1
 -0 242.501953125 l 1
 64.1875 273.795898438 96.1748046875 306.041015625 105.384765625 331.622070312 c 0
 109.467773438 342.959960938 105.583984375 347.42578125 96.7626953125 349.133789062 c 0
 60.1337890625 356.213867188 49.49609375 374.9453125 59.9130859375 403.872070312 c 0
 68.373046875 427.35546875 99.375 452.155273438 131.08203125 452.155273438 c 0
276.98828125 675.247070312 m 0
 272.120117188 661.727539062 262.666015625 648.133789062 249.301757812 636.959960938 c 0
 232.405273438 622.833984375 212.819335938 615.49609375 195.725585938 615.494140625 c 0
 182.208007812 615.495117188 170.256835938 620.0546875 162.448242188 629.39453125 c 0
 152.573242188 641.206054688 151.337890625 658.15234375 157.493164062 675.247070312 c 0
 162.361328125 688.766601562 171.815429688 702.361328125 185.1796875 713.534179688 c 0
 202.079101562 727.662109375 221.66796875 735 238.762695312 735 c 0
 252.27734375 734.997070312 264.225585938 730.438476562 272.033203125 721.099609375 c 0
 281.908203125 709.288085938 283.143554688 692.341796875 276.98828125 675.247070312 c 0
11.2041015625 398.190429688 m 1
 57.56640625 351.826171875 l 1
 11.2041015625 351.826171875 l 1
 11.2041015625 398.190429688 l 1
190.36328125 398.190429688 m 1
 190.36328125 351.827148438 l 1
 144.000976562 351.827148438 l 1
 190.36328125 398.190429688 l 1
EndSplineSet
EndChar

StartChar: exclam
Encoding: 33 33 66
Width: 236
VWidth: 800
Flags: HW
HStem: -19 119<71.7454 164.255>
VStem: 58 120<-5.25464 86.6614 396.125 598.563>
LayerCount: 2
Fore
SplineSet
192.533203125 161.1953125 m 0
 187.665039062 147.67578125 178.2109375 134.081054688 164.845703125 122.908203125 c 0
 147.947265625 108.780273438 128.358398438 101.442382812 111.262695312 101.442382812 c 0
 97.748046875 101.444335938 85.7998046875 106.00390625 77.9931640625 115.342773438 c 0
 68.1181640625 127.154296875 66.8818359375 144.100585938 73.037109375 161.1953125 c 0
 77.9052734375 174.71484375 87.3603515625 188.30859375 100.724609375 199.482421875 c 0
 117.618164062 213.606445312 137.201171875 220.944335938 154.29296875 220.948242188 c 0
 167.813476562 220.948242188 179.767578125 216.389648438 187.578125 207.047851562 c 0
 197.452148438 195.236328125 198.688476562 178.290039062 192.533203125 161.1953125 c 0
339.380859375 735 m 0
 370.375 734.991210938 386.486328125 709.858398438 375.318359375 678.860351562 c 0
 370.470703125 665.390625 356.581054688 635.802734375 348.385742188 618.903320312 c 2
 190.024414062 292.55078125 l 1
 170.2421875 292.55078125 l 1
 246.833007812 619.021484375 l 2
 252.123046875 641.572265625 257.404296875 663.208984375 263.040039062 678.860351562 c 0
 274.208007812 709.858398438 308.39453125 734.993164062 339.380859375 735 c 0
392.87890625 161.1953125 m 0
 388.010742188 147.67578125 378.556640625 134.081054688 365.192382812 122.908203125 c 0
 348.29296875 108.780273438 328.704101562 101.442382812 311.609375 101.442382812 c 0
 298.090820312 101.443359375 286.140625 106.001953125 278.331054688 115.342773438 c 0
 268.45703125 127.154296875 267.220703125 144.100585938 273.375976562 161.1953125 c 0
 278.244140625 174.71484375 287.698242188 188.30859375 301.063476562 199.482421875 c 0
 317.959960938 213.608398438 337.545898438 220.946289062 354.638671875 220.948242188 c 0
 368.16015625 220.948242188 380.11328125 216.389648438 387.923828125 207.047851562 c 0
 397.798828125 195.236328125 399.034179688 178.290039062 392.87890625 161.1953125 c 0
-0 166.984375 m 1
 46.3623046875 120.62109375 l 1
 -0 120.62109375 l 1
 -0 166.984375 l 1
236.342773438 166.984375 m 1
 236.342773438 120.62109375 l 1
 189.98046875 120.62109375 l 1
 236.342773438 166.984375 l 1
EndSplineSet
EndChar

StartChar: question
Encoding: 63 63 67
Width: 280
VWidth: 800
Flags: HW
HStem: -19 119<35.7454 128.255> 540 96<21.0346 69.4226>
VStem: 22 120<-5.25464 86.6614> 68 21<162 198> 207 39<357.477 461.642>
LayerCount: 2
Fore
SplineSet
330.72265625 492.333007812 m 0
 345.818359375 500.649414062 353.572265625 506.271484375 361.1796875 527.409179688 c 0
 377.422851562 572.505859375 310.28515625 608.21875 226.293945312 639.010742188 c 0
 217.303710938 665.14453125 229.0234375 707.916992188 245.060546875 735 c 1
 303.884765625 721.55859375 382.499023438 649.77734375 392.217773438 569.233398438 c 0
 395.903320312 538.7109375 394.564453125 510.91015625 384.31640625 482.4609375 c 0
 370.06640625 442.877929688 347.900390625 423.286132812 320.0625 407.62109375 c 0
 268.984375 378.877929688 196.771484375 360.729492188 179.115234375 325.29296875 c 2
 146.907226562 260.686523438 l 1
 126.448242188 260.686523438 l 1
 134.797851562 297.165039062 l 2
 152.895507812 376.265625 154.557617188 393.745117188 154.852539062 407.7109375 c 0
 215.471679688 433.5625 287.08984375 468.298828125 330.72265625 492.333007812 c 0
0 145.637695312 m 1
 46.3623046875 99.2734375 l 1
 0 99.2734375 l 1
 0 145.637695312 l 1
279.990234375 145.637695312 m 1
 279.990234375 99.2744140625 l 1
 233.627929688 99.2744140625 l 1
 279.990234375 145.637695312 l 1
EndSplineSet
EndChar

StartChar: quotesingle
Encoding: 39 39 68
Width: 149
VWidth: 800
Flags: HW
HStem: 458.437 198.905<59.4649 82.3369>
VStem: 27.8525 94.6349<537.789 649.777> 62.3555 19.9814<458.437 486.606>
LayerCount: 2
Fore
SplineSet
303.149414062 734.999023438 m 0
 337.90234375 735.12109375 360.178710938 721.43359375 343.810546875 694.541992188 c 2
 247.377929688 536.094726562 l 1
 247.377929688 536.094726562 l 1
 227.397460938 536.094726562 l 1
 250.13671875 645.28125 258.795898438 696.149414062 260.178710938 721.932617188 c 0
 260.384765625 725.6171875 263.268554688 730.13671875 274.583007812 732.205078125 c 0
 284.625 734.041015625 294.299804688 734.969726562 303.149414062 734.999023438 c 0
0 124.021484375 m 1
 46.3623046875 77.6572265625 l 1
 0 77.6572265625 l 1
 0 124.021484375 l 1
150.555664062 124.021484375 m 1
 150.555664062 77.65625 l 1
 104.194335938 77.65625 l 1
 150.555664062 124.021484375 l 1
EndSplineSet
EndChar

StartChar: quotedbl
Encoding: 34 34 69
Width: 268
VWidth: 800
Flags: HW
HStem: 458.437 198.905<59.421 82.293 177.703 200.574>
VStem: 27.8086 94.6349<537.789 649.777> 62.3115 19.9814<458.437 486.606> 146.091 94.6341<537.773 649.777> 180.594 19.9805<458.437 486.606>
LayerCount: 2
Fore
SplineSet
303.141601562 734.999023438 m 0
 337.887695312 735.12109375 360.1640625 721.43359375 343.794921875 694.541992188 c 2
 247.36328125 536.094726562 l 1
 247.36328125 536.094726562 l 1
 227.381835938 536.094726562 l 1
 250.12890625 645.28125 258.788085938 696.150390625 260.1640625 721.932617188 c 0
 260.370117188 725.618164062 263.25390625 730.13671875 274.568359375 732.205078125 c 0
 284.6171875 734.041015625 294.284179688 734.969726562 303.141601562 734.999023438 c 0
421.416015625 734.999023438 m 0
 456.168945312 735.12109375 478.4453125 721.43359375 462.077148438 694.541992188 c 2
 365.64453125 536.094726562 l 1
 345.65625 536.094726562 l 1
 368.403320312 645.28125 377.069335938 696.150390625 378.4453125 721.932617188 c 0
 378.651367188 725.618164062 381.53515625 730.13671875 392.849609375 732.205078125 c 0
 402.899414062 734.041015625 412.565429688 734.969726562 421.416015625 734.999023438 c 0
0 124.021484375 m 1
 46.3623046875 77.6572265625 l 1
 0 77.6572265625 l 1
 0 124.021484375 l 1
268.822265625 124.021484375 m 1
 268.822265625 77.6572265625 l 1
 222.4609375 77.6572265625 l 1
 268.822265625 124.021484375 l 1
EndSplineSet
EndChar

StartChar: quoteleft
Encoding: 256 8216 70
Width: 172
VWidth: 800
Flags: HW
HStem: 438 104<75.491 133.279>
VStem: 16 58<499 597.389>
LayerCount: 2
Fore
SplineSet
249.209960938 499.9453125 m 0
 199.493164062 499.9453125 185.69140625 532.387695312 205.415039062 587.159179688 c 0
 226.381835938 645.40234375 286.213867188 700.0703125 367.807617188 735 c 1
 380.28515625 709.604492188 l 1
 316.104492188 678.30859375 284.110351562 646.064453125 274.892578125 620.477539062 c 0
 270.81640625 609.140625 274.701171875 604.67578125 283.521484375 602.96875 c 0
 320.151367188 595.891601562 330.7890625 577.154296875 320.372070312 548.227539062 c 0
 311.918945312 524.744140625 280.916992188 499.9453125 249.209960938 499.9453125 c 0
0 108.068359375 m 1
 46.3623046875 61.7041015625 l 1
 0 61.7041015625 l 1
 0 108.068359375 l 1
173.045898438 108.068359375 m 1
 173.045898438 61.7041015625 l 1
 126.68359375 61.7041015625 l 1
 173.045898438 108.068359375 l 1
EndSplineSet
EndChar

StartChar: quoteright
Encoding: 257 8217 71
Width: 172
VWidth: 800
Flags: HW
HStem: 570 104<39.6279 97.509>
VStem: 99 58<514.338 613>
LayerCount: 2
Fore
SplineSet
324.09375 735 m 0
 373.802734375 735 387.603515625 702.555664062 367.880859375 647.787109375 c 0
 346.90625 589.54296875 287.07421875 534.875 205.48828125 499.950195312 c 1
 193.010742188 525.346679688 l 1
 257.198242188 556.640625 289.185546875 588.885742188 298.396484375 614.467773438 c 0
 302.479492188 625.8046875 298.602539062 630.271484375 289.774414062 631.979492188 c 0
 253.14453125 639.05859375 242.514648438 657.790039062 252.923828125 686.716796875 c 0
 261.384765625 710.201171875 292.385742188 735 324.09375 735 c 0
-0 108.0703125 m 1
 46.361328125 61.70703125 l 1
 -0 61.70703125 l 1
 -0 108.0703125 l 1
184.727539062 108.0703125 m 1
 184.727539062 61.70703125 l 1
 138.357421875 61.70703125 l 1
 184.727539062 108.0703125 l 1
EndSplineSet
EndChar

StartChar: quotedblleft
Encoding: 258 8220 72
Width: 315
VWidth: 800
Flags: HW
HStem: 438 104<75.491 133.279 216.379 275.565>
VStem: 16 58<499 597.389> 158 58<499 597.389>
LayerCount: 2
Fore
SplineSet
391.783203125 499.9453125 m 0
 342.07421875 499.9453125 328.272460938 532.387695312 347.99609375 587.159179688 c 0
 368.962890625 645.40234375 428.794921875 700.0703125 510.388671875 735 c 1
 522.866210938 709.604492188 l 1
 458.678710938 678.30859375 426.69140625 646.064453125 417.473632812 620.477539062 c 0
 413.397460938 609.140625 417.274414062 604.67578125 426.095703125 602.96875 c 0
 462.724609375 595.891601562 473.362304688 577.154296875 462.9453125 548.227539062 c 0
 454.4921875 524.744140625 423.491210938 499.9453125 391.783203125 499.9453125 c 0
249.1953125 499.9453125 m 0
 199.485351562 499.9453125 185.684570312 532.387695312 205.408203125 587.159179688 c 0
 226.375 645.40234375 286.20703125 700.0703125 367.80078125 735 c 1
 380.27734375 709.604492188 l 1
 316.08984375 678.30859375 284.102539062 646.064453125 274.884765625 620.477539062 c 0
 270.809570312 609.140625 274.686523438 604.67578125 283.506835938 602.96875 c 0
 320.135742188 595.891601562 330.774414062 577.154296875 320.356445312 548.227539062 c 0
 311.904296875 524.744140625 280.90234375 499.9453125 249.1953125 499.9453125 c 0
0 108.068359375 m 1
 46.3623046875 61.7041015625 l 1
 0 61.7041015625 l 1
 0 108.068359375 l 1
315.626953125 108.068359375 m 1
 315.626953125 61.7041015625 l 1
 269.256835938 61.7041015625 l 1
 315.626953125 108.068359375 l 1
EndSplineSet
EndChar

StartChar: quotedblright
Encoding: 259 8221 73
Width: 315
VWidth: 800
Flags: HW
HStem: 570 104<39.6279 97.509 181.628 241.578>
VStem: 99 58<514.338 613> 242 57<514.338 613>
LayerCount: 2
Fore
SplineSet
324.092773438 735 m 0
 373.802734375 735 387.603515625 702.556640625 367.880859375 647.786132812 c 0
 346.9140625 589.54296875 287.081054688 534.875 205.48828125 499.9453125 c 1
 193.010742188 525.33984375 l 1
 257.198242188 556.635742188 289.185546875 588.880859375 298.396484375 614.466796875 c 0
 302.479492188 625.803710938 298.602539062 630.26953125 289.774414062 631.9765625 c 0
 253.15234375 639.053710938 242.514648438 657.791015625 252.931640625 686.717773438 c 0
 261.384765625 710.200195312 292.385742188 735 324.092773438 735 c 0
466.681640625 735 m 0
 516.390625 735 530.192382812 702.556640625 510.46875 647.786132812 c 0
 489.501953125 589.54296875 429.669921875 534.875 348.076171875 499.9453125 c 1
 335.599609375 525.33984375 l 1
 399.787109375 556.635742188 431.7734375 588.880859375 440.984375 614.466796875 c 0
 445.067382812 625.803710938 441.190429688 630.26953125 432.362304688 631.9765625 c 0
 395.740234375 639.053710938 385.102539062 657.791015625 395.51953125 686.717773438 c 0
 403.97265625 710.200195312 434.973632812 735 466.681640625 735 c 0
-0 108.064453125 m 1
 46.361328125 61.7001953125 l 1
 -0 61.7001953125 l 1
 -0 108.064453125 l 1
315.6328125 108.069335938 m 1
 315.6328125 61.7060546875 l 1
 269.263671875 61.7060546875 l 1
 315.6328125 108.069335938 l 1
EndSplineSet
EndChar

StartChar: hyphen
Encoding: 45 45 74
Width: 493
VWidth: 800
Flags: HW
HStem: 146 62<94 401>
VStem: 94 307<146 208>
LayerCount: 2
Fore
SplineSet
168.189453125 735 m 1
 644.538085938 735 l 1
 622.350585938 673.384765625 l 1
 146.001953125 673.384765625 l 1
 168.189453125 735 l 1
-0 573.2421875 m 1
 46.3623046875 526.877929688 l 1
 -0 526.877929688 l 1
 -0 573.2421875 l 1
662.827148438 573.2421875 m 1
 662.827148438 526.87890625 l 1
 616.46484375 526.87890625 l 1
 662.827148438 573.2421875 l 1
EndSplineSet
EndChar

StartChar: endash
Encoding: 260 8211 75
Width: 392
VWidth: 800
Flags: HW
HStem: 146 62<0 393>
LayerCount: 2
Fore
SplineSet
74.943359375 735 m 1
 881.41796875 735 l 1
 859.23046875 673.384765625 l 1
 52.7548828125 673.384765625 l 1
 74.943359375 735 l 1
0 573.2421875 m 1
 46.3623046875 526.877929688 l 1
 0 526.877929688 l 1
 0 573.2421875 l 1
806.474609375 573.2421875 m 1
 806.474609375 526.87890625 l 1
 760.11328125 526.87890625 l 1
 806.474609375 573.2421875 l 1
EndSplineSet
EndChar

StartChar: emdash
Encoding: 261 8212 76
Width: 780
VWidth: 800
Flags: HW
HStem: 146 62<0 781>
LayerCount: 2
Fore
SplineSet
74.9501953125 735 m 1
 1318.04785156 735 l 1
 1295.859375 673.384765625 l 1
 52.7626953125 673.384765625 l 1
 74.9501953125 735 l 1
0 573.2421875 m 1
 46.3623046875 526.877929688 l 1
 0 526.877929688 l 1
 0 573.2421875 l 1
1243.09765625 573.2421875 m 1
 1243.09765625 526.877929688 l 1
 1196.73535156 526.877929688 l 1
 1243.09765625 573.2421875 l 1
EndSplineSet
EndChar

StartChar: ellipsis
Encoding: 262 8230 77
Width: 626
Flags: HW
HStem: -19.1787 119.506<43.4903 135.69 266.708 358.903 489.925 582.119>
VStem: 29.8389 119.503<-5.52618 86.6749> 253.057 119.496<-5.52393 86.6724> 476.275 119.495<-5.52393 86.6724>
LayerCount: 2
Fore
SplineSet
163.952148438 675.247070312 m 0
 152.077148438 642.26953125 115.663085938 615.495117188 82.6845703125 615.494140625 c 0
 49.70703125 615.495117188 32.57421875 642.26953125 44.44921875 675.247070312 c 0
 56.3251953125 708.225585938 92.7392578125 734.999023438 125.717773438 735 c 0
 158.6953125 734.999023438 175.827148438 708.225585938 163.952148438 675.247070312 c 0
375.48828125 675.247070312 m 0
 363.614257812 642.271484375 327.204101562 615.499023438 294.227539062 615.494140625 c 0
 261.25 615.495117188 244.1171875 642.26953125 255.9921875 675.247070312 c 0
 267.868164062 708.225585938 304.282226562 734.999023438 337.260742188 735 c 0
 370.233398438 734.995117188 387.362304688 708.22265625 375.48828125 675.247070312 c 0
587.03125 675.247070312 m 0
 575.15625 642.26953125 538.741210938 615.495117188 505.763671875 615.494140625 c 0
 472.791015625 615.499023438 455.661132812 642.271484375 467.53515625 675.247070312 c 0
 479.41015625 708.22265625 515.8203125 734.995117188 548.795898438 735 c 0
 581.7734375 734.999023438 598.90625 708.225585938 587.03125 675.247070312 c 0
16.6953125 681.037109375 m 1
 46.3623046875 634.672851562 l 1
 0 634.672851562 l 1
 16.6953125 681.037109375 l 1
618.947265625 681.037109375 m 1
 602.251953125 634.672851562 l 1
 555.889648438 634.672851562 l 1
 618.947265625 681.037109375 l 1
EndSplineSet
EndChar

StartChar: at
Encoding: 64 64 78
Width: 784
Flags: HW
HStem: -151.245 29.2627<300.877 483.494> -2.37891 39.501<347.903 473.005> 252.11 46.4934<303.552 404.472> 366.66 35.8916<352.778 622.904> 516.155 29.4551<301.308 484.906>
VStem: 40.1973 38.0195<87.9051 304.282> 198.485 84.9189<97.1088 232.591> 517.076 83.2412<99.1477 236.161> 705.541 38.0264<83.7966 283.177>
LayerCount: 2
Fore
SplineSet
590.327148438 734.999023438 m 1
 590.327148438 735 l 1
 669.32421875 735 736.233398438 713.057617188 788.98828125 651.791015625 c 1
 752.711914062 628.001953125 l 1
 706.784179688 684.001953125 646.797851562 705.543945312 578.497070312 705.543945312 c 0
 424.04296875 705.543945312 220.305664062 583.998046875 148.665039062 385.02734375 c 0
 77.0185546875 186.055664062 194.954101562 67.4072265625 347.952148438 67.4072265625 c 0
 500.95703125 67.4072265625 703.8046875 184.559570312 775.989257812 385.02734375 c 0
 815.60546875 495.048828125 774.36328125 556.048828125 670.70703125 556.048828125 c 2
 484.801757812 556.048828125 l 1
 517.701171875 550.6875 548.584960938 541.69921875 590.452148438 529.283203125 c 0
 671.08984375 505.372070312 693.173828125 447.266601562 667.477539062 375.909179688 c 0
 631.598632812 276.252929688 522.52734375 187.009765625 393.64453125 187.009765625 c 0
 275.444335938 187.009765625 226.234375 266.452148438 257.338867188 352.838867188 c 0
 312.18359375 505.147460938 513.971679688 528.171875 524.499023438 424.71484375 c 1
 495.255859375 409.971679688 l 1
 481.565429688 457.84765625 380.233398438 458.30859375 345.2890625 361.262695312 c 0
 311.9921875 268.788085938 374.819335938 226.510742188 423.6015625 226.510742188 c 0
 493.248046875 226.510742188 547.87109375 274.904296875 573.237304688 345.366210938 c 0
 603.194335938 428.5625 570.2578125 468.9140625 494.829101562 492.733398438 c 0
 436.02734375 511.303710938 366.961914062 528.260742188 293.592773438 556.048828125 c 1
 297.80078125 567.728515625 l 1
 381.807617188 595.551757812 l 2
 396.124023438 593.619140625 421.423828125 591.940429688 443.58203125 591.940429688 c 2
 673.98046875 591.940429688 l 2
 805.459960938 591.940429688 864.321289062 524.74609375 814.258789062 385.702148438 c 0
 743.90625 190.33203125 538.153320312 38.1435546875 338.072265625 38.1435546875 c 0
 137.991210938 38.1435546875 40.021484375 188.893554688 110.888671875 385.702148438 c 0
 181.755859375 582.510742188 388.759765625 734.999023438 590.327148438 734.999023438 c 1
0 235.751953125 m 1
 46.3623046875 189.388671875 l 1
 0 189.388671875 l 1
 0 235.751953125 l 1
783.765625 235.751953125 m 1
 783.765625 189.388671875 l 1
 737.403320312 189.388671875 l 1
 783.765625 235.751953125 l 1
EndSplineSet
EndChar

StartChar: numbersign
Encoding: 35 35 79
Width: 590
Flags: HW
HStem: 0 21G<133.547 173.25 336.828 376.531> 123.227 68.6123<62.3193 159.647 209.647 362.929 412.929 518.915> 412.451 68.6123<115.332 220.908 270.908 424.19 474.19 571.949>
LayerCount: 2
Fore
SplineSet
365.740234375 735 m 1
 401.20703125 735 l 1
 196.66796875 146.282226562 l 1
 161.201171875 146.282226562 l 1
 365.740234375 735 l 1
569.021484375 735 m 1
 604.48828125 735 l 1
 399.94921875 146.282226562 l 1
 364.482421875 146.282226562 l 1
 569.021484375 735 l 1
208.217773438 627.345703125 m 1
 679.358398438 627.345703125 l 1
 655.543945312 558.733398438 l 1
 184.404296875 558.733398438 l 1
 208.217773438 627.345703125 l 1
115.994140625 338.12109375 m 1
 587.133789062 338.12109375 l 1
 563.283203125 269.508789062 l 1
 92.1435546875 269.508789062 l 1
 115.994140625 338.12109375 l 1
0 192.646484375 m 1
 46.3623046875 146.282226562 l 1
 0 146.282226562 l 1
 0 192.646484375 l 1
568.080078125 192.646484375 m 1
 568.080078125 146.282226562 l 1
 521.717773438 146.282226562 l 1
 568.080078125 192.646484375 l 1
EndSplineSet
EndChar

StartChar: percent
Encoding: 37 37 80
Width: 615
Flags: HW
HStem: -11.4531 20.624<428.989 493.349> -0.000976562 21G<77.2461 139.528> 229.022 20.624<429.066 493.336> 339.068 20.626<121.298 185.59> 579.547 20.626<121.285 185.648>
VStem: 22.9092 55.3525<395.642 543.601> 228.641 55.3818<395.46 542.809> 330.612 55.3887<45.9015 192.312> 536.365 55.3594<45.1173 193.075>
LayerCount: 2
Fore
SplineSet
701.08203125 723.543945312 m 1
 749.372070312 723.543945312 l 1
 125.53515625 134.827148438 l 1
 77.2451171875 134.827148438 l 1
 701.08203125 723.543945312 l 1
369.580078125 735 m 0
 448.275390625 735.00390625 479.084960938 676.546875 453.123046875 604.451171875 c 0
 427.139648438 532.344726562 354.66796875 473.899414062 275.5390625 473.895507812 c 0
 196.431640625 473.89453125 166.048828125 532.349609375 192.010742188 604.4453125 c 0
 217.995117188 676.551757812 290.899414062 734.99609375 369.580078125 735 c 0
362.149414062 714.374023438 m 0
 320.083984375 714.368164062 271.905273438 672.611328125 247.362304688 604.444335938 c 0
 222.842773438 536.2890625 241.352539062 494.518554688 282.961914062 494.521484375 c 0
 324.541992188 494.520507812 372.883789062 535.413085938 397.7421875 604.452148438 c 0
 422.600585938 673.489257812 404.193359375 714.375 362.149414062 714.374023438 c 0
457.037109375 123.374023438 m 0
 378.341796875 123.365234375 347.532226562 181.826171875 373.494140625 253.918945312 c 0
 399.477539062 326.028320312 471.963867188 384.469726562 551.078125 384.473632812 c 0
 630.177734375 384.473632812 660.568359375 326.020507812 634.606445312 253.928710938 c 0
 608.623046875 181.818359375 535.717773438 123.375976562 457.037109375 123.374023438 c 0
464.467773438 143.998046875 m 0
 506.533203125 144.00390625 554.705078125 185.763671875 579.247070312 253.928710938 c 0
 603.767578125 322.08203125 585.264648438 363.854492188 543.663085938 363.849609375 c 0
 502.067382812 363.848632812 453.741210938 322.961914062 428.8828125 253.91796875 c 0
 404.009765625 184.883789062 422.423828125 143.998046875 464.467773438 143.998046875 c 0
-0 181.19140625 m 1
 46.3623046875 134.827148438 l 1
 -0 134.827148438 l 1
 -0 181.19140625 l 1
614.640625 181.190429688 m 1
 614.640625 134.826171875 l 1
 568.278320312 134.826171875 l 1
 614.640625 181.190429688 l 1
EndSplineSet
EndChar

StartChar: ampersand
Encoding: 38 38 81
Width: 705
Flags: HW
HStem: -25.4258 21G<208.468 222.744> -7.28613 13.6123<368.252 387.661> 332.933 86.2754<85.3681 135.813> 377.068 41.9121<368.896 505.033>
VStem: 35.5039 76.0993<70.9463 117.227> 240.351 92.6522<506.106 562.293> 576.025 88.8105<130.372 305.741>
LayerCount: 2
Fore
SplineSet
466.66796875 735 m 2
 466.704101562 735 l 2
 480.446289062 735 528.758789062 682.474609375 518.915039062 655.137695312 c 0
 516.884765625 649.491210938 505.591796875 643.250976562 493.151367188 635.822265625 c 0
 447.973632812 608.853515625 363.547851562 516.596679688 331.524414062 427.674804688 c 0
 293.084960938 320.909179688 281.21875 209.208984375 270.198242188 178.603515625 c 0
 258.90625 147.248046875 219.827148438 102.604492188 207.342773438 102.604492188 c 0
 197.182617188 102.604492188 187.508789062 114.0078125 187.65625 153.694335938 c 0
 187.729492188 170.794921875 189.053710938 214.560546875 149.489257812 277.327148438 c 1
 158.177734375 288.374023438 l 1
 197.396484375 261.44140625 210.34375 246.196289062 228.794921875 236.931640625 c 1
 237.15234375 257.888671875 265.475585938 327.581054688 280.681640625 369.80078125 c 0
 325.447265625 494.125976562 361.716796875 542.904296875 401.052734375 614.638671875 c 0
 430.58984375 668.5 450.122070312 711.478515625 436.615234375 732.092773438 c 1
 444.494140625 732.947265625 457.163085938 735 466.66796875 735 c 2
447.275390625 528.866210938 m 0
 443.552734375 518.51953125 427.610351562 516.583007812 411.779296875 506.399414062 c 0
 341.831054688 461.419921875 267.91015625 380.666015625 198.190429688 289.235351562 c 0
 129.750976562 199.478515625 122.592773438 164.770507812 101.633789062 164.770507812 c 0
 86.419921875 164.770507812 71.125 226.953125 84.845703125 265.072265625 c 0
 93.599609375 289.370117188 181.549804688 345.235351562 376.62890625 548.5625 c 1
 333.908203125 528.147460938 287.619140625 501.081054688 267.123046875 485.072265625 c 0
 242.56640625 465.900390625 237.0859375 460.962890625 227.787109375 460.962890625 c 0
 213.102539062 460.962890625 198.43359375 531.399414062 204.215820312 547.444335938 c 0
 206.716796875 554.390625 210.572265625 560.657226562 215.920898438 566.291992188 c 1
 220.75390625 552.798828125 227.80859375 547.23828125 244.28125 547.23828125 c 0
 276.627929688 547.23828125 333.9375 561.938476562 398.970703125 584.79296875 c 2
 398.970703125 584.79296875 416.920898438 608.16796875 426.1171875 598.9375 c 0
 441.69921875 583.3046875 451.939453125 541.8046875 447.275390625 528.866210938 c 0
618.99609375 539.940429688 m 0
 724.93359375 539.940429688 791.872070312 480.8203125 744.185546875 348.39453125 c 0
 691.607421875 202.38671875 547.040039062 123.590820312 366.03515625 113.672851562 c 1
 365.188476562 127.28515625 l 1
 506.584960938 156.735351562 611.315429688 226.038085938 653.344726562 342.763671875 c 0
 685.875976562 433.096679688 650.0859375 498.028320312 562.9453125 498.028320312 c 0
 485.994140625 498.028320312 408.579101562 446.083007812 296.661132812 332.885742188 c 1
 305.908203125 401.689453125 l 1
 425.92578125 488.032226562 518.296875 539.940429688 618.99609375 539.940429688 c 0
0 174.39453125 m 1
 46.3623046875 128.030273438 l 1
 0 128.030273438 l 1
 0 174.39453125 l 1
705.349609375 174.39453125 m 1
 705.349609375 128.030273438 l 1
 658.987304688 128.030273438 l 1
 705.349609375 174.39453125 l 1
EndSplineSet
EndChar

StartChar: asciicircum
Encoding: 94 94 82
Width: 395
Flags: HW
HStem: 349.386 239.332
LayerCount: 2
Fore
SplineSet
380.02734375 735 m 1
 438.844726562 735 l 1
 491.764648438 495.66796875 l 1
 429.055664062 495.66796875 l 1
 390.688476562 682.947265625 l 1
 217.446289062 495.66796875 l 1
 154.745117188 495.66796875 l 1
 380.02734375 735 l 1
16.6953125 192.646484375 m 1
 46.3623046875 146.282226562 l 1
 0 146.282226562 l 1
 16.6953125 192.646484375 l 1
411.590820312 192.646484375 m 1
 394.895507812 146.282226562 l 1
 348.533203125 146.282226562 l 1
 411.590820312 192.646484375 l 1
EndSplineSet
EndChar

StartChar: asterisk
Encoding: 42 42 83
Width: 351
Flags: HW
HStem: 449.34 79.2253<38.9972 72.5723>
VStem: 98.3878 79.16<357.448 405.695>
LayerCount: 2
Fore
SplineSet
403.26953125 718.880859375 m 0
 397.721679688 696.547851562 384.202148438 649.911132812 367.447265625 597.3359375 c 1
 351.497070312 593.04296875 l 1
 318.8515625 695.081054688 l 2
 335.918945312 708.157226562 382.323242188 737.202148438 398.439453125 734.8671875 c 0
 404.354492188 734.008789062 406.356445312 731.336914062 403.26953125 718.880859375 c 0
502.420898438 626.7734375 m 0
 478.591796875 617.477539062 428.948242188 599.987304688 373.03515625 581.657226562 c 1
 368.9375 594.038085938 l 1
 479.662109375 691.547851562 l 2
 493.138671875 683.861328125 522.799804688 658.625976562 519.747070312 641.79296875 c 0
 518.66796875 635.609375 515.689453125 631.955078125 502.420898438 626.7734375 c 0
400.137695312 472.479492188 m 0
 390.940429688 489.064453125 373.827148438 524.89453125 356.008789062 566.140625 c 1
 369.439453125 578.0859375 l 1
 470.5078125 536.309570312 l 2
 461.794921875 518.489257812 433.68359375 473.84375 415.7109375 465.775390625 c 0
 409.073242188 462.805664062 405.249023438 463.219726562 400.137695312 472.479492188 c 0
237.7890625 469.228515625 m 0
 255.9140625 488.776367188 294.977539062 528.408203125 339.905273438 572.231445312 c 1
 352.290039062 567.234375 l 1
 304.015625 443.899414062 l 2
 285.168945312 440.572265625 238.142578125 438.216796875 230.078125 450.064453125 c 0
 227.116210938 454.421875 227.676757812 458.329101562 237.7890625 469.228515625 c 0
239.729492188 621.51171875 m 1
 260.125976562 617.006835938 301.400390625 605.67578125 346.973632812 591.51171875 c 1
 341.19140625 576.4765625 l 1
 210.298828125 542.028320312 l 2
 207.360351562 557.791015625 206.412109375 600.982421875 219.392578125 616.374023438 c 0
 224.1796875 622.030273438 228.359375 624.033203125 239.737304688 621.51171875 c 1
 239.729492188 621.51171875 l 1
16.6953125 139.052734375 m 1
 46.3623046875 92.6884765625 l 1
 0 92.6884765625 l 1
 16.6953125 139.052734375 l 1
367.958007812 139.052734375 m 1
 351.262695312 92.6884765625 l 1
 304.900390625 92.6884765625 l 1
 367.958007812 139.052734375 l 1
EndSplineSet
EndChar

StartChar: less
Encoding: 60 60 84
Width: 424
Flags: HW
HStem: -24.7725 21G<350.279 384.228>
LayerCount: 2
Fore
SplineSet
96.4716796875 521.137695312 m 0
 243.14453125 592.424804688 389.811523438 663.712890625 536.477539062 735 c 1
 528.672851562 713.327148438 520.869140625 691.654296875 513.064453125 669.982421875 c 0
 402.967773438 617.05859375 292.875976562 564.126953125 182.7734375 511.208984375 c 1
 254.764648438 458.290039062 326.737304688 405.358398438 398.719726562 352.435546875 c 0
 390.915039062 330.762695312 383.111328125 309.08984375 375.306640625 287.416992188 c 1
 279.978515625 358.700195312 184.651367188 429.982421875 89.3154296875 501.265625 c 0
 91.701171875 507.889648438 94.0859375 514.513671875 96.4716796875 521.137695312 c 0
16.6943359375 358.553710938 m 1
 46.361328125 312.189453125 l 1
 -0 312.189453125 l 1
 16.6943359375 358.553710938 l 1
441.104492188 358.553710938 m 1
 424.41015625 312.189453125 l 1
 378.047851562 312.189453125 l 1
 441.104492188 358.553710938 l 1
EndSplineSet
EndChar

StartChar: asciitilde
Encoding: 126 126 85
Width: 685
Flags: HW
HStem: 211.026 70.708<406.553 541.778> 290.893 70.7041<142.801 276.689>
LayerCount: 2
Fore
SplineSet
358.302734375 735 m 2
 358.310546875 735 l 2
 416.479492188 734.998046875 454.12109375 711.415039062 482.713867188 694.857421875 c 0
 520.436523438 669.661132812 563.578125 655.137695312 599.57421875 655.137695312 c 0
 642.559570312 655.137695312 692.822265625 678.553710938 739.252929688 720.6484375 c 1
 758.08984375 709.399414062 l 1
 701.879882812 640.88671875 615.708007812 584.4296875 532.466796875 584.4296875 c 0
 474.2890625 584.4296875 435.853515625 607.07421875 408.0625 624.572265625 c 0
 369.520507812 648.842773438 327.200195312 664.295898438 291.204101562 664.295898438 c 0
 248.21875 664.295898438 197.956054688 640.880859375 151.5234375 598.78125 c 1
 132.6875 610.030273438 l 1
 188.89453125 678.540039062 275.060546875 734.997070312 358.302734375 735 c 2
16.6953125 419.767578125 m 1
 46.3623046875 373.403320312 l 1
 -0 373.403320312 l 1
 16.6953125 419.767578125 l 1
701.283203125 419.767578125 m 1
 684.587890625 373.403320312 l 1
 638.225585938 373.403320312 l 1
 701.283203125 419.767578125 l 1
EndSplineSet
EndChar

StartChar: greater
Encoding: 62 62 86
Width: 424
Flags: HW
HStem: -24.7725 21G<40.1826 74.1315>
LayerCount: 2
Fore
SplineSet
478.418945312 521.137695312 m 0
 476.034179688 514.513671875 473.6484375 507.889648438 471.263671875 501.265625 c 0
 324.591796875 429.982421875 177.926757812 358.700195312 31.2626953125 287.416992188 c 1
 39.06640625 309.08984375 46.87109375 330.762695312 54.6748046875 352.435546875 c 0
 164.771484375 405.358398438 274.864257812 458.290039062 384.966796875 511.208984375 c 1
 312.974609375 564.126953125 241.002929688 617.05859375 169.020507812 669.982421875 c 0
 176.82421875 691.654296875 184.62890625 713.327148438 192.432617188 735 c 1
 287.758789062 663.712890625 383.084960938 592.424804688 478.418945312 521.137695312 c 0
16.6953125 358.553710938 m 1
 46.3623046875 312.189453125 l 1
 0 312.189453125 l 1
 16.6953125 358.553710938 l 1
441.10546875 358.553710938 m 1
 424.41015625 312.189453125 l 1
 378.047851562 312.189453125 l 1
 441.10546875 358.553710938 l 1
EndSplineSet
EndChar

StartChar: equal
Encoding: 61 61 87
Width: 471
Flags: HW
HStem: 81.918 53.8291<38.9326 431.782> 249.325 53.8291<38.9326 431.782>
LayerCount: 2
Fore
SplineSet
87.8134765625 567.592773438 m 1
 480.663085938 567.592773438 l 1
 461.279296875 513.763671875 l 1
 68.4296875 513.763671875 l 1
 87.8134765625 567.592773438 l 1
16.6953125 478.208984375 m 1
 46.3623046875 431.845703125 l 1
 -0 431.845703125 l 1
 16.6953125 478.208984375 l 1
487.408203125 478.208984375 m 1
 470.712890625 431.845703125 l 1
 424.350585938 431.845703125 l 1
 487.408203125 478.208984375 l 1
148.094726562 735 m 1
 540.944335938 735 l 1
 521.560546875 681.170898438 l 1
 128.7109375 681.170898438 l 1
 148.094726562 735 l 1
EndSplineSet
EndChar

StartChar: plus
Encoding: 43 43 88
Width: 471
Flags: HW
HStem: -9.61035 21G<206.488 264.225> 173.057 53.8291<38.9316 206.488 264.225 431.781>
VStem: 206.488 57.7363<-9.61035 173.057 226.886 391.025>
LayerCount: 2
Fore
SplineSet
405.029296875 735 m 1
 260.764648438 334.364257812 l 1
 203.029296875 334.364257812 l 1
 347.293945312 735 l 1
 405.029296875 735 l 1
16.6953125 390.338867188 m 1
 46.3623046875 343.974609375 l 1
 0 343.974609375 l 1
 16.6953125 390.338867188 l 1
487.409179688 390.338867188 m 1
 470.713867188 343.974609375 l 1
 424.3515625 343.974609375 l 1
 487.409179688 390.338867188 l 1
120.631835938 570.860351562 m 1
 513.481445312 570.860351562 l 1
 494.09765625 517.03125 l 1
 101.248046875 517.03125 l 1
 120.631835938 570.860351562 l 1
EndSplineSet
EndChar

StartChar: dollar
Encoding: 36 36 89
Width: 413
Flags: HW
HStem: -17.7899 35.3207<134.188 183.919 232.443 273.626> 570.083 32.1682<161.189 183.919 232.443 282.932>
VStem: 50.7988 19.7822<138.741 149.659> 52.792 67.5273<426.353 519.93> 183.919 48.5244<-88.7451 -16.1099 18.0313 252.337 389.592 566.211 602.24 675.011> 323.667 65.7695<75.3295 190.282> 341.515 19.2676<465.874 479.74>
LayerCount: 2
Fore
SplineSet
451.65234375 662.240234375 m 0
 513.014648438 662.240234375 552.358398438 643.918945312 575.142578125 619.271484375 c 0
 566.91796875 611.29296875 555.206054688 587.92578125 547.657226562 570.356445312 c 2
 528.530273438 525.86328125 l 1
 509.262695312 525.86328125 l 1
 512.56640625 539.729492188 l 2
 526.956054688 600.17578125 473.494140625 631.004882812 422.284179688 631.004882812 c 0
 358.846679688 631.004882812 308.696289062 583.147460938 292.672851562 538.638671875 c 0
 279.806640625 502.918945312 291.959960938 479.791992188 330.288085938 443.747070312 c 2
 404.274414062 374.178710938 l 2
 442.5078125 338.240234375 477.408203125 304.29296875 447.165039062 220.307617188 c 0
 417.170898438 137.014648438 322.998046875 41.7275390625 193.114257812 41.7275390625 c 0
 117.479492188 41.7275390625 75.97265625 73.736328125 48.5546875 103.448242188 c 0
 63.3271484375 125.374023438 76.0390625 149.711914062 104.686523438 209.6484375 c 1
 124.46875 209.6484375 l 1
 121.672851562 198.73046875 l 2
 108.159179688 146.072265625 117.58984375 75.8505859375 214.5 75.8505859375 c 0
 281.181640625 75.8505859375 347.340820312 125.73046875 367.255859375 181.041992188 c 0
 389.34765625 242.395507812 366.556640625 272.014648438 329.427734375 306.615234375 c 2
 248.694335938 381.895507812 l 2
 217.075195312 411.375976562 193.1875 449.901367188 213.93359375 507.515625 c 0
 240.447265625 581.139648438 335.401367188 662.240234375 451.65234375 662.240234375 c 0
426.977539062 735 m 1
 475.502929688 735 l 1
 200.485351562 -28.755859375 l 1
 151.9609375 -28.755859375 l 1
 426.977539062 735 l 1
0 106.352539062 m 1
 46.3623046875 59.9892578125 l 1
 0 59.9892578125 l 1
 0 106.352539062 l 1
413.493164062 106.353515625 m 1
 413.493164062 59.9892578125 l 1
 367.123046875 59.9892578125 l 1
 413.493164062 106.353515625 l 1
EndSplineSet
EndChar

StartChar: parenleft
Encoding: 40 40 90
Width: 353
Flags: HW
VStem: 50.9814 86.1924<0.963118 373.938>
LayerCount: 2
Fore
SplineSet
538.197265625 735 m 1
 528.236328125 707.338867188 l 1
 424.29296875 673.719726562 356.301757812 622.076171875 292.938476562 522.876953125 c 0
 264.916992188 479.014648438 232.965820312 412.317382812 204.671875 333.73828125 c 0
 176.377929688 255.159179688 160.2890625 188.461914062 156.728515625 144.599609375 c 0
 148.650390625 45.400390625 179.446289062 -6.2431640625 259.185546875 -39.8623046875 c 1
 249.224609375 -67.5234375 l 1
 140.330078125 -51.3935546875 68.4033203125 14.0869140625 71.7802734375 132.631835938 c 0
 73.302734375 186.329101562 88.634765625 250.842773438 118.48046875 333.73828125 c 0
 148.327148438 416.633789062 179.4609375 481.147460938 216.604492188 534.844726562 c 0
 298.610351562 653.389648438 417.694335938 718.87109375 538.197265625 735 c 1
0 192.646484375 m 1
 46.3701171875 146.282226562 l 1
 0 146.282226562 l 1
 0 192.646484375 l 1
353.322265625 192.646484375 m 1
 353.322265625 146.282226562 l 1
 306.953125 146.282226562 l 1
 353.322265625 192.646484375 l 1
EndSplineSet
EndChar

StartChar: parenright
Encoding: 41 41 91
Width: 353
Flags: HW
VStem: 216.148 86.1914<0.974052 373.949>
LayerCount: 2
Fore
SplineSet
288.97265625 735 m 1
 397.8671875 718.87109375 469.793945312 653.389648438 466.416992188 534.844726562 c 0
 464.89453125 481.147460938 449.5625 416.633789062 419.716796875 333.73828125 c 0
 389.870117188 250.842773438 358.736328125 186.329101562 321.591796875 132.631835938 c 0
 239.586914062 14.0869140625 120.502929688 -51.3935546875 -0 -67.5234375 c 1
 9.9609375 -39.8623046875 l 1
 113.904296875 -6.2431640625 181.895507812 45.400390625 245.265625 144.599609375 c 0
 273.280273438 188.461914062 305.23046875 255.159179688 333.524414062 333.73828125 c 0
 361.819335938 412.317382812 377.908203125 479.014648438 381.475585938 522.876953125 c 0
 389.546875 622.076171875 358.750976562 673.719726562 279.01171875 707.338867188 c 1
 288.97265625 735 l 1
49.87890625 192.646484375 m 1
 96.240234375 146.282226562 l 1
 49.87890625 146.282226562 l 1
 49.87890625 192.646484375 l 1
403.200195312 192.646484375 m 1
 403.200195312 146.282226562 l 1
 356.837890625 146.282226562 l 1
 403.200195312 192.646484375 l 1
EndSplineSet
EndChar

StartChar: bracketleft
Encoding: 91 91 92
Width: 310
Flags: HW
HStem: -211.798 35.6484<160.362 283.345> 553.068 35.6494<160.362 283.345>
VStem: 79.0996 81.2627<-176.149 553.068>
LayerCount: 2
Fore
SplineSet
292.48828125 735 m 2
 320.24609375 733.053710938 372.95703125 731.107421875 436.967773438 731.107421875 c 2
 495.329101562 731.107421875 l 1
 483.807617188 699.108398438 l 1
 359.508789062 695.458984375 l 1
 96.931640625 -33.759765625 l 1
 218.59765625 -37.4091796875 l 1
 207.077148438 -69.408203125 l 1
 148.715820312 -69.408203125 l 2
 84.705078125 -69.408203125 30.603515625 -71.3544921875 1.43359375 -73.30078125 c 1
 292.48828125 735 l 2
-0.0009765625 188.75390625 m 1
 46.369140625 142.389648438 l 1
 -0.0009765625 142.389648438 l 1
 -0.0009765625 188.75390625 l 1
310.446289062 188.75390625 m 1
 310.446289062 142.389648438 l 1
 264.083984375 142.389648438 l 1
 310.446289062 188.75390625 l 1
EndSplineSet
EndChar

StartChar: bracketright
Encoding: 93 93 93
Width: 310
Flags: HW
HStem: -211.798 31.999<27.1025 150.085> 556.719 31.999<27.1025 150.085>
VStem: 150.085 81.2627<-176.149 553.068>
LayerCount: 2
Fore
SplineSet
493.90234375 735 m 1
 202.84765625 -73.30078125 l 2
 175.076171875 -71.3544921875 122.372070312 -69.408203125 58.361328125 -69.408203125 c 2
 0 -69.408203125 l 1
 11.521484375 -37.4091796875 l 1
 135.8203125 -33.759765625 l 1
 398.397460938 695.458984375 l 1
 276.731445312 699.108398438 l 1
 288.251953125 731.107421875 l 1
 346.61328125 731.107421875 l 2
 410.624023438 731.107421875 464.732421875 733.053710938 493.90234375 735 c 1
49.1650390625 188.75390625 m 1
 95.52734375 142.389648438 l 1
 49.1650390625 142.389648438 l 1
 49.1650390625 188.75390625 l 1
359.620117188 188.75390625 m 1
 359.620117188 142.389648438 l 1
 313.2578125 142.389648438 l 1
 359.620117188 188.75390625 l 1
EndSplineSet
EndChar

StartChar: braceleft
Encoding: 123 123 94
Width: 248
Flags: HW
HStem: -213.806 28.4062<190.469 221.055> 175.777 23.3574<31.1406 61.983> 560.312 28.4062<190.472 221.055>
VStem: 82.8171 82.6661<-170.957 164.661 210.25 545.873>
LayerCount: 2
Fore
SplineSet
433.0390625 735 m 1
 422.813476562 706.59375 l 1
 353.741210938 695.0859375 339.255859375 646.356445312 301.051757812 528.784179688 c 0
 254.859375 386.631835938 244.82421875 360.390625 195.431640625 335.5859375 c 0
 194.151367188 334.94140625 192.856445312 334.328125 191.532226562 333.73828125 c 1
 192.4296875 333.1484375 193.283203125 332.534179688 194.107421875 331.890625 c 0
 225.630859375 307.0859375 216.765625 280.844726562 160.583007812 138.692382812 c 0
 114.125 21.1201171875 93.51171875 -27.609375 154.29296875 -39.1171875 c 1
 144.06640625 -67.5234375 l 2
 114.55859375 -67.5234375 85.875 -64.9072265625 74.2734375 -61.2626953125 c 0
 11.40234375 -41.498046875 26.9326171875 14.734375 77.5615234375 144.071289062 c 0
 124.96875 265.198242188 157.3828125 310.169921875 94.4306640625 322.059570312 c 1
 102.846679688 345.416992188 l 1
 174.361328125 357.306640625 174.33203125 402.278320312 214.147460938 523.405273438 c 0
 256.668945312 652.7421875 281.629882812 708.973632812 358.744140625 728.73828125 c 0
 372.963867188 732.383789062 403.53125 735 433.0390625 735 c 1
-0 192.646484375 m 1
 46.3623046875 146.282226562 l 1
 -0 146.282226562 l 1
 -0 192.646484375 l 1
248.165039062 192.646484375 m 1
 248.165039062 146.282226562 l 1
 201.794921875 146.282226562 l 1
 248.165039062 192.646484375 l 1
EndSplineSet
EndChar

StartChar: braceright
Encoding: 125 125 95
Width: 248
Flags: HW
HStem: -213.806 28.4062<27.1016 58.5206> 175.777 23.3574<186.174 217.016> 560.312 28.4062<27.1016 58.5218>
VStem: 86.7033 84.0907<-166.578 168.024 206.888 541.487>
LayerCount: 2
Fore
SplineSet
288.97265625 735 m 2
 318.48046875 735 347.1640625 732.383789062 358.765625 728.73828125 c 0
 421.635742188 708.973632812 406.106445312 652.7421875 355.477539062 523.405273438 c 0
 308.0703125 402.278320312 275.65625 357.306640625 338.608398438 345.416992188 c 1
 330.192382812 322.059570312 l 1
 258.676757812 310.169921875 258.70703125 265.198242188 218.891601562 144.071289062 c 0
 176.370117188 14.734375 151.408203125 -41.498046875 74.294921875 -61.2626953125 c 0
 60.07421875 -64.9072265625 29.5078125 -67.5234375 -0 -67.5234375 c 1
 10.2255859375 -39.1171875 l 1
 79.3046875 -27.609375 93.783203125 21.1201171875 131.986328125 138.692382812 c 0
 178.1796875 280.844726562 188.221679688 307.0859375 237.607421875 331.890625 c 0
 238.887695312 332.534179688 240.182617188 333.1484375 241.506835938 333.73828125 c 1
 240.609375 334.328125 239.755859375 334.94140625 238.931640625 335.5859375 c 0
 207.415039062 360.390625 216.272460938 386.631835938 272.456054688 528.784179688 c 0
 318.9140625 646.356445312 339.53515625 695.0859375 278.74609375 706.59375 c 1
 288.97265625 735 l 2
49.8857421875 192.646484375 m 1
 96.248046875 146.282226562 l 1
 49.8857421875 146.282226562 l 1
 49.8857421875 192.646484375 l 1
298.04296875 192.646484375 m 1
 298.04296875 146.282226562 l 1
 251.680664062 146.282226562 l 1
 298.04296875 192.646484375 l 1
EndSplineSet
EndChar

StartChar: bar
Encoding: 124 124 96
Width: 213
Flags: HW
VStem: 79.1064 54.668<-211.798 588.718>
LayerCount: 2
Fore
SplineSet
291.091796875 735 m 1
 345.759765625 735 l 1
 57.5078125 -65.515625 l 1
 2.83984375 -65.515625 l 1
 291.091796875 735 l 1
0 192.646484375 m 1
 46.3623046875 146.282226562 l 1
 0 146.282226562 l 1
 0 192.646484375 l 1
212.881835938 192.646484375 m 1
 212.881835938 146.283203125 l 1
 166.51953125 146.283203125 l 1
 212.881835938 192.646484375 l 1
EndSplineSet
EndChar

StartChar: slash
Encoding: 47 47 97
Width: 217
Flags: HW
HStem: 0 21G<0 60.9243>
VStem: 0 216.642
LayerCount: 2
Fore
SplineSet
373.177734375 735 m 1
 428.625976562 735 l 1
 55.447265625 146.282226562 l 1
 -0 146.282226562 l 1
 373.177734375 735 l 1
-0 192.646484375 m 1
 46.3623046875 146.282226562 l 1
 -0 146.282226562 l 1
 -0 192.646484375 l 1
216.641601562 192.646484375 m 1
 216.641601562 146.282226562 l 1
 170.279296875 146.282226562 l 1
 216.641601562 192.646484375 l 1
EndSplineSet
EndChar

StartChar: backslash
Encoding: 92 92 98
Width: 217
Flags: HW
HStem: 0 21G<155.718 216.642>
VStem: 0 216.642
LayerCount: 2
Fore
SplineSet
267.432617188 735 m 1
 216.641601562 146.282226562 l 1
 161.193359375 146.282226562 l 1
 211.984375 735 l 1
 267.432617188 735 l 1
0 192.646484375 m 1
 46.3623046875 146.282226562 l 1
 0 146.282226562 l 1
 0 192.646484375 l 1
216.641601562 192.646484375 m 1
 216.641601562 146.282226562 l 1
 170.279296875 146.282226562 l 1
 216.641601562 192.646484375 l 1
EndSplineSet
EndChar

StartChar: underscore
Encoding: 95 95 100
Width: 781
Flags: HW
HStem: -204.035 61.6152<0.0078125 780.815>
LayerCount: 2
Fore
SplineSet
22.1865234375 546.215820312 m 1
 802.994140625 546.215820312 l 1
 780.807617188 484.599609375 l 1
 -0 484.599609375 l 1
 22.1865234375 546.215820312 l 1
90.1591796875 735 m 1
 119.826171875 688.635742188 l 1
 73.4638671875 688.635742188 l 1
 90.1591796875 735 l 1
870.973632812 735 m 1
 854.278320312 688.635742188 l 1
 807.916015625 688.635742188 l 1
 870.973632812 735 l 1
EndSplineSet
EndChar

StartChar: grave
Encoding: 96 96 101
Width: 309
Flags: HW
HStem: 461.852 176.383
VStem: 64.8945 182.866
LayerCount: 2
Fore
SplineSet
382.92578125 558.6171875 m 1
 286.7734375 712.96484375 l 2
 285.8984375 742.237304688 397.587890625 740.609375 399.611328125 718.296875 c 2
 414.067382812 558.6171875 l 1
 382.92578125 558.6171875 l 1
0 143.129882812 m 1
 46.3623046875 96.765625 l 1
 0 96.765625 l 1
 0 143.129882812 l 1
309.358398438 143.129882812 m 1
 309.358398438 96.765625 l 1
 262.99609375 96.765625 l 1
 309.358398438 143.129882812 l 1
EndSplineSet
EndChar

StartChar: placeholder
Encoding: 263 57424 103
Width: 422
VWidth: 800
Flags: W
HStem: -188 86<50 67 355 372> -188 17<67 120 133 204 217 288 300 355> -85 77<50 67 355 372> 14 81<50 67 355 372> 108 79<50 67 355 372> 126 8<111.947 116 161.348 181.906 255.824 260 308.361 330.872> 170 8<95.2812 100 110 128 137 148 158 182 192 203 212 223 233 244 254 272 281 296 303.931 332.495> 204 86<50 67 355 372> 228 9<156.464 178.923> 249 7<318 337.769> 274 8<113 124.993 152 164.486 197 207.938 236 245.959 276 288 297 307.993> 306 77<50 67 355 372> 405 81<50 67 355 372> 498 90<50 67 355 372> 570 18<67 120 133 204 217 288 300 355>
VStem: 50 70<-188 -171 570 588> 50 17<-171 -102 -85 -8 10 90 108 187 204 290 306 383 401 481 498 570> 103 9<134.605 170 229.125 273> 125 10<134.417 170 203.875 273.926> 133 71<-188 -171 570 588> 148 10<135.019 170> 167 10<250.183 272.437> 177 15<193.003 201.932> 182 10<137 170 178 193 273.004 274> 187 9<229.125 236 243.665 273> 203 9<126.026 170> 208 9<204.017 229 238 269.801> 217 71<-188 -171 570 588> 223 10<99.866 170 178 193 198 200> 244 10<134.857 170 262 273.47> 266 10<203.073 273> 272 9<134.872 170> 288 9<153 161.547 229.017 274> 300 72<-188 -171 570 588> 308 10<203.505 249 256 274> 355 17<-171 -98 -81 -4 14 95 112 191 209 294 311 387 405 486 502 570>
LayerCount: 2
Fore
SplineSet
50 481 m 1x301880
 67 482 l 1
 67 401 l 1
 50 400 l 1
 50 481 l 1x301880
50 383 m 1
 67 383 l 1
 67 306 l 1
 50 306 l 1
 50 383 l 1
50 290 m 1x311880
 67 290 l 1
 67 204 l 1
 50 204 l 1
 50 290 l 1x311880
50 187 m 1x381880
 67 187 l 1
 67 108 l 1
 50 108 l 1
 50 187 l 1x381880
50 90 m 1
 67 91 l 1
 67 10 l 1
 50 10 l 1
 50 90 l 1
50 -8 m 1
 67 -8 l 1
 67 -85 l 1
 50 -85 l 1
 50 -8 l 1
50 -102 m 1xb01880
 67 -102 l 1xb01880
 67 -171 l 1x701880
 120 -171 l 1
 120 -188 l 1x7019
 50 -188 l 1xb019
 50 -102 l 1xb01880
50 588 m 1x301d
 120 588 l 1
 120 570 l 1x301b
 67 570 l 1x301a80
 67 498 l 1
 50 498 l 1x301c80
 50 528 50 558 50 588 c 1x301d
133 588 m 1x301a10
 204 588 l 1
 204 570 l 1
 133 570 l 1
 133 588 l 1x301a10
217 588 m 1x301a0010
 288 588 l 1
 288 570 l 1
 217 570 l 1
 217 588 l 1x301a0010
300 588 m 1x301a000040
 372 588 l 1x301c000040
 372 502 l 1
 355 502 l 1
 355 570 l 1x301a000010
 300 570 l 1
 300 588 l 1x301a000040
372 486 m 1x3018000010
 372 405 l 1
 355 405 l 1
 355 486 l 1
 372 486 l 1x3018000010
372 387 m 1
 372 311 l 1
 355 310 l 1
 355 387 l 1
 372 387 l 1
372 294 m 1
 372 209 l 1
 355 208 l 1
 355 294 l 1
 372 294 l 1
187 236 m 1x30b800a0
 183 234 183 234 168 228 c 0
 162 228 147 228 141 240 c 1
 141 243 l 1
 149 245 150 246 150 246 c 1
 162 246 167 254 167 262 c 0
 167 267 165 275 152 275 c 1
 152 280 l 1
 160 282 l 2
 162 282 177 282 177 262 c 0
 177 247 164 242 156 239 c 1
 163 237 163 237 164 237 c 0
 173 235 184 242 187 250 c 1
 187 273 l 1x30b804a0
 187 273 182 278 182 279 c 2
 182 280 l 1x30b801
 182.376887462 280.376887462 182.611730765 280.469686606 183.346945861 280.760209395 c 0
 184.56248575 281.240534189 187.145762083 282.261324773 194 286 c 1
 197 282 l 1
 206 282 l 1
 208 283 208 283 218 285 c 1
 218 276 l 1
 224 278 230 280 236 282 c 1
 241 282 l 2
 251.304816468 282 257.756962008 274.053866212 257.756962008 264.305811359 c 0
 257.756962008 254.188480684 250.806716979 242.130122355 234 235 c 0
 230 234 217 229 217 229 c 1
 217 206 l 1
 213.5 204.5 212 203.75 211 203.25 c 0
 210 202.75 209.5 202.5 208 202 c 1
 208 274 l 1
 196 274 l 1
 196 231 l 1
 194 229.666666667 192 229.222222222 190 228.777777778 c 0
 189 228.555555556 188 228.333333333 187 228 c 1
 187 236 l 1x30b800a0
98 279 m 1
 110 286 l 1
 113 282 l 1
 124 282 l 1
 126 283 126 283 136 285 c 1
 135 282 135 278 135 273 c 2
 135 206 l 1
 128 203 128 203 125 202 c 1
 125 274 l 1
 112 274 l 1
 112 231 l 1
 110 229.666666667 108 229.222222222 106 228.777777778 c 0
 105 228.555555556 104 228.333333333 103 228 c 1
 103 273 l 1x30b860
 98 279 l 1
261 281 m 1
 264 283 272 286 272 286 c 1x30780001
 272.763932023 285.236067977 273.236067977 284.909830056 273.639320225 284.631189606 c 0
 274.291796068 284.180339887 274.763932023 283.854101966 276 282 c 1
 307 282 l 1
 309 283 309 283 319 285 c 1
 319 284.171572875 318.828427125 283.171572875 318.627416998 282 c 0
 318.343145751 280.343145751 318 278.343145751 318 276 c 2
 318 256 l 1
 320 256 l 2
 322.639320225 256 325.27864045 256.27864045 327.7708764 256.5417528 c 0
 330 256.77708764 332.11145618 257 334 257 c 2
 339 257 l 1
 339 256 338 253 336 247 c 0
 335.979889186 247 335.883893959 247.024782535 335.713275127 247.068830217 c 0
 334.351151831 247.42048175 328.232883012 249 318 249 c 1
 318 206 l 1
 311 203 311 203 308 202 c 1
 308 274 l 1
 297 274 l 1
 297 231 l 1
 293.5 229.5 292 228.75 291 228.25 c 0
 290 227.75 289.5 227.5 288 227 c 1
 288 274 l 1
 276 274 l 1
 276 206 l 1
 269 203 269 203 266 202 c 1
 266 273 l 1x30780002a0
 261 281 l 1
220 238 m 0
 245 242 247 262 247 262 c 2
 248 264 250 274 235 274 c 0
 229 274 219 269 217 267 c 1
 217 238 l 1x30380020
 218 238 219 238 220 238 c 0
168 221 m 2
 169 221 170 221 170 220 c 2
 170 218 l 2
 170 217.798753882 168.82943443 210.439245907 161 200 c 1
 159 206 153 219 153 219 c 1
 153 220 l 2
 153 221 155 221 156 221 c 2
 156 221 157 220 162 217 c 1
 168 221 l 2
223 193 m 1x37180108
 219 198 l 1
 219 200 l 1
 220 200 l 1
 225 202 229 203 233 204 c 1
 233 178 l 1
 328 178 l 1
 328 178 330 179 332 179 c 0
 334 179 334 178 334 178 c 2
 334 177.552786405 333.8 177.105572809 333.4 176.211145618 c 0
 332.905572809 175.105572809 332.105572809 173.316718427 331 170 c 0
 330.85714476 170.047479584 325.197612609 171.895188433 318.752928135 171.895188433 c 0
 310.086388411 171.895188433 300 168.553840632 300 153 c 1
 300 153 301.640441438 133.314702741 323.492359465 133.314702741 c 0
 325.768600926 133.314702741 328.264150943 133.528301887 331 134 c 1
 331 129 l 1
 313 126 l 1
 297.735140889 126 289.518022381 139.654997417 289.518022381 152.640112904 c 0
 289.518022381 159.220042468 291.627963845 165.627963845 296 170 c 1
 281 170 l 1
 281 141 l 1
 277 127 260 126 260 126 c 1
 246 126 244 138 244 142 c 2
 244 170 l 1
 233 170 l 1
 233 103 l 1
 230 101 227 100 223 99 c 1
 223 170 l 1
 212 170 l 1
 212 128 l 1
 209.725082782 126.483388522 208.025193159 126.116832231 205.592190955 125.592190955 c 0
 204.816721855 125.424972406 203.966777043 125.241694261 203 125 c 1
 203 170 l 1
 192 170 l 1
 192 137 l 1
 195 128 l 1
 192.946024685 126.630683123 190.423292192 126.198880601 187.752741079 125.741776762 c 0
 186.522732493 125.531242823 185.261366246 125.315341562 184 125 c 1
 183 129 l 1
 180 127 169 125 164 125 c 0
 149 125 148 142 148 144 c 2
 148 170 l 1
 137 170 l 1
 137 141 l 1
 133 127 116 126 116 126 c 1
 107 124 100 132 100 142 c 2
 100 170 l 1
 81 170 l 1
 79 171 l 1
 79 174 79 175 92 186 c 1
 94 184 96 181 98 178 c 1
 182 178 l 1
 182 193 l 1x3718094d40
 182 193 177 197 177 198 c 0x371802
 177.04249431 198.084988619 177.083182853 198.168171472 177.123063182 198.249702028 c 0
 178.021669196 200.086794385 178.509931715 201.084988619 190 203 c 0
 191 203 191 204 191 204 c 1
 192 204 l 1
 192 178 l 1
 223 178 l 1
 223 193 l 1x37180108
372 191 m 1x3018000010
 372 112 l 1
 355 112 l 1
 355 191 l 1
 372 191 l 1x3018000010
119 134 m 0x3618
 124 134 128 136 128 143 c 2
 128 170 l 1
 110 170 l 1
 110 161 110 154 110 145 c 0
 110 134 118 134 119 134 c 0x3618
158 170 m 1x361809
 158 146 l 2
 158 144 161 136 164 134 c 1
 176 134 l 1
 178 135 180 136 182 138 c 1
 182 170 l 1
 158 170 l 1x361809
263 134 m 0
 266 134 272 134 272 143 c 2
 272 170 l 1
 254 170 l 1
 254 147 l 2x36180005
 254 143 254 134 263 134 c 0
201 118 m 2
 201 118 202 117 208 114 c 1x30180020
 216 117 l 1
 216 114 l 1
 207 98 l 1
 206 100 205 102 199 116 c 1
 199 117 l 2
 199 118 200 118 201 118 c 2
372 95 m 1x3018000010
 372 14 l 1
 355 14 l 1
 355 95 l 1
 372 95 l 1x3018000010
372 -4 m 1
 372 -81 l 1
 355 -81 l 1
 355 -4 l 1
 372 -4 l 1
372 -98 m 1
 372 -188 l 1xb018000040
 300 -188 l 1
 300 -171 l 1x7018000040
 355 -171 l 1x7018000010
 355 -98 l 1
 372 -98 l 1
133 -171 m 1x701810
 204 -171 l 1
 204 -188 l 1
 133 -188 l 1
 133 -171 l 1x701810
217 -171 m 1x70180010
 288 -171 l 1
 288 -188 l 1
 217 -188 l 1
 217 -171 l 1x70180010
EndSplineSet
Validated: 1
EndChar

StartChar: a.init
Encoding: 264 57344 104
Width: 540
VWidth: 800
Flags: HW
HStem: -22.1366 53.2079<211.244 364.779> 366.661 35.8916<485.642 547.75> 370.042 40.7932<200.578 359.632>
VStem: 35.7891 81.042<125.918 295.417> 404.381 81.2607<55.2949 335.853 402.552 548.571>
LayerCount: 2
Fore
SplineSet
676.270507812 735 m 0
 688.95703125 735 687.790039062 721.064453125 677.635742188 696.333007812 c 2
 474.290039062 201.08203125 l 2
 461.7890625 170.633789062 462.96875 162.829101562 468.390625 162.829101562 c 0
 479.681640625 162.829101562 498.862304688 171.317382812 534.583007812 194.029296875 c 1
 534.583007812 165.809570312 l 1
 474.166015625 125.81640625 450.485351562 118.665039062 421.08203125 118.665039062 c 0
 382.940429688 118.665039062 373.448242188 150.411132812 387.166992188 183.734375 c 2
 582.254882812 657.58984375 l 2
 593.953125 686.125976562 587.263671875 699.534179688 511.791015625 687.15234375 c 1
 511.791015625 705.411132812 l 1
 548.286132812 717.8203125 641.55078125 735 676.270507812 735 c 0
430.532226562 255.666992188 m 1
 430.098632812 197.97265625 l 1
 388.345703125 175.411132812 301.649414062 131.575195312 285.385742188 124.427734375 c 0
 270.387695312 120.672851562 253.626953125 118.665039062 223.170898438 118.665039062 c 0
 167.258789062 118.665039062 85.8671875 146.807617188 85.8671875 257.87890625 c 0
 85.8671875 377.2421875 162.466796875 468.736328125 258.015625 507.204101562 c 0
 279.692382812 515.930664062 329.450195312 533.091796875 354.836914062 538.431640625 c 0
 379.073242188 543.528320312 418.810546875 548.8359375 481.333007812 548.8359375 c 0
 518.1875 548.8359375 554.708984375 534.724609375 598.245117188 518.29296875 c 1
 512.697265625 475.587890625 l 1
 481.26953125 499.8359375 435.544921875 509.079101562 383.302734375 509.079101562 c 0
 296.645507812 509.079101562 167.127929688 432.74609375 167.127929688 285.182617188 c 0
 167.127929688 193.970703125 234.125976562 167.227539062 266.426757812 167.227539062 c 0
 330.448242188 167.227539062 384.852539062 202.333984375 430.532226562 255.666992188 c 1
574.370117188 534.837890625 m 1
 670.768554688 534.837890625 l 2
 677.99609375 534.837890625 678.553710938 516.892578125 678.553710938 516.892578125 c 1
 678.553710938 516.892578125 678.870117188 498.946289062 670.768554688 498.946289062 c 0
 630.076171875 498.946289062 588.38671875 478.967773438 560.803710938 411.7890625 c 1
 574.370117188 534.837890625 l 1
-0 178.647460938 m 1
 46.36328125 132.284179688 l 1
 -0 132.284179688 l 1
 -0 178.647460938 l 1
538.739257812 178.650390625 m 1
 538.739257812 132.286132812 l 1
 492.376953125 132.286132812 l 1
 538.739257812 178.650390625 l 1
EndSplineSet
EndChar

StartChar: a.fina
Encoding: 265 57346 105
Width: 530
VWidth: 800
Flags: HW
HStem: -233.049 21G<54.3223 67.8657> 366.661 35.8916<-7.78516 53.7434> 370.583 42.7896<241.3 384.701> 412.688 20G<121.595 138.918>
VStem: 54.3223 81.2617<-207.302 -5.90594 37.8651 321.315 358.48 365.609> 417.4 84.1855<193.907 339.098>
LayerCount: 2
Fore
SplineSet
260.939453125 589.4296875 m 1
 260.939453125 589.4296875 207.801757812 650.072265625 273.008789062 685.109375 c 0
 302.926757812 698.71875 356.692382812 719.188476562 389.7265625 730.73828125 c 0
 406.794921875 733.197265625 430.454101562 735 452.012695312 735 c 0
 521.762695312 735 580.875 700.80859375 580.875 612.033203125 c 0
 580.875 512.159179688 488.04296875 402.0625 362.833984375 348.649414062 c 0
 341.029296875 339.34765625 305.68359375 327.991210938 281.572265625 322.489257812 c 0
 226.069335938 309.82421875 212.364257812 302.072265625 113.31640625 297.764648438 c 1
 162.197265625 356.485351562 l 1
 400.465820312 333.48046875 499.61328125 490.690429688 499.61328125 585.874023438 c 0
 499.61328125 647.197265625 468.350585938 691.509765625 393.875976562 691.509765625 c 0
 336.71875 691.509765625 287.653320312 663.6171875 260.939453125 589.4296875 c 1
159.80859375 720.998046875 m 2
 270.787109375 720.998046875 l 2
 304.6953125 720.998046875 303.4296875 707.431640625 280.037109375 642.465820312 c 2
 90.263671875 115.444335938 l 2
 66.1025390625 105.758789062 28.2978515625 95.4765625 -0 90.4443359375 c 1
 187.6484375 611.565429688 l 2
 213.84765625 684.325195312 210.661132812 685.106445312 183.306640625 685.106445312 c 2
 159.80859375 685.106445312 l 2
 152.018554688 685.106445312 152.022460938 703.051757812 152.022460938 703.051757812 c 1
 152.022460938 703.051757812 151.961914062 720.998046875 159.80859375 720.998046875 c 2
27.77734375 364.807617188 m 1
 74.1416015625 318.444335938 l 1
 27.77734375 318.444335938 l 1
 27.77734375 364.807617188 l 1
512.987304688 364.807617188 m 1
 512.987304688 318.444335938 l 1
 466.624023438 318.444335938 l 1
 512.987304688 364.807617188 l 1
EndSplineSet
EndChar

StartChar: b.init
Encoding: 266 57347 106
Width: 493
VWidth: 800
Flags: HW
HStem: -233.05 21G<357.735 371.279> -21.2555 45.2497<182.552 323.356> 166.626 106.453<229.618 314.923> 366.661 35.8922<139.834 500.986>
VStem: 54.3223 81.2607<73.0056 353.826> 219.044 106.453<177.2 262.505> 357.735 81.2617<-207.303 12.8516>
LayerCount: 2
Fore
SplineSet
423.7421875 105.100585938 m 2
 399.581054688 95.4150390625 361.776367188 85.1318359375 333.477539062 80.1005859375 c 1
 362.999023438 150.76171875 l 2
 410.239257812 263.833984375 327.390625 280.955078125 218.291015625 295.7890625 c 0
 137.244140625 306.80859375 89.7275390625 358.456054688 89.7275390625 444.109375 c 0
 89.7275390625 552.655273438 147.750976562 625.197265625 205.48828125 663.157226562 c 0
 209.703125 665.360351562 264.967773438 692.3828125 269.250976562 694.422851562 c 0
 311.100585938 714.3515625 383.02734375 735 447.435546875 735 c 0
 505.682617188 735 574.00390625 720.310546875 611.473632812 682.831054688 c 1
 589.614257812 663.501953125 561.83203125 650.689453125 530.815429688 641.43359375 c 0
 499.573242188 673.389648438 445.3125 687.85546875 389.677734375 687.85546875 c 0
 293.827148438 687.85546875 178.493164062 616.5 178.493164062 478.048828125 c 0
 178.493164062 388.743164062 226.38671875 345.020507812 297.017578125 335.532226562 c 0
 368.827148438 325.885742188 511.661132812 315.543945312 442.720703125 150.52734375 c 2
 423.7421875 105.100585938 l 2
554.432617188 710.654296875 m 1
 690.004882812 710.654296875 l 2
 698.978515625 710.654296875 697.791992188 692.708007812 697.791992188 692.708007812 c 1
 697.791992188 692.708007812 698.953125 674.762695312 690.004882812 674.762695312 c 2
 554.432617188 674.762695312 l 1
 554.432617188 710.654296875 l 1
411.361328125 499.278320312 m 0
 411.361328125 469.881835938 387.53125 446.051757812 358.135742188 446.051757812 c 0
 328.73828125 446.051757812 304.908203125 469.881835938 304.908203125 499.278320312 c 0
 304.908203125 528.674804688 328.73828125 552.504882812 358.135742188 552.504882812 c 0
 387.53125 552.504882812 411.361328125 528.674804688 411.361328125 499.278320312 c 0
-0 354.466796875 m 1
 46.36328125 308.102539062 l 1
 -0 308.102539062 l 1
 -0 354.466796875 l 1
557.9765625 354.466796875 m 1
 557.9765625 308.102539062 l 1
 511.611328125 308.102539062 l 1
 557.9765625 354.466796875 l 1
EndSplineSet
EndChar

StartChar: b.medi
Encoding: 267 57348 107
Width: 445
VWidth: 800
Flags: HW
HStem: -16.3253 45.8126<166.473 283.334> 366.659 35.8916<-7.78613 53.7414 394.773 452.629> 412.692 20G<121.592 138.679> 494.231 106.453<180.594 265.899>
VStem: 54.3184 81.2607<62.0048 366.434> 170.02 106.453<504.806 590.11> 309.26 81.2607<62.8725 353.826>
LayerCount: 2
Fore
SplineSet
342.541015625 519.149414062 m 1
 330.712890625 476.266601562 l 1
 222.966796875 476.266601562 173.190429688 356.936523438 173.190429688 274.778320312 c 0
 173.190429688 182.770507812 229.037109375 142.223632812 284.694335938 142.223632812 c 0
 396.12890625 142.223632812 469.903320312 306.877929688 428.682617188 469.8984375 c 0
 426.137695312 479.966796875 423.219726562 488.763671875 420.540039062 495.90625 c 2
 429.284179688 514.853515625 l 2
 457.7109375 512.55078125 469.451171875 512.158203125 508.119140625 512.158203125 c 2
 606.48828125 512.158203125 l 2
 615.34765625 512.158203125 614.274414062 494.212890625 614.274414062 494.212890625 c 1
 614.274414062 494.212890625 616.592773438 476.266601562 606.48828125 476.266601562 c 2
 514.506835938 476.266601562 l 1
 544.39453125 254.266601562 416.456054688 96.3681640625 238.883789062 96.3681640625 c 0
 130.389648438 96.3681640625 94.9013671875 165.55078125 94.9013671875 245.995117188 c 0
 94.9013671875 346.814453125 172.700195312 439.642578125 245.916992188 476.266601562 c 1
 132.029296875 476.267578125 l 2
 124.243164062 476.267578125 124.243164062 494.213867188 124.243164062 494.213867188 c 1
 124.243164062 494.213867188 122.770507812 512.16015625 132.029296875 512.16015625 c 2
 251.721679688 512.158203125 l 2
 284.522460938 512.158203125 310.057617188 512.16015625 342.541015625 519.149414062 c 1
517.626953125 681.7734375 m 0
 517.626953125 652.376953125 493.795898438 628.546875 464.400390625 628.546875 c 0
 435.002929688 628.546875 411.172851562 652.376953125 411.172851562 681.7734375 c 0
 411.172851562 711.169921875 435.002929688 735 464.400390625 735 c 0
 493.795898438 735 517.626953125 711.169921875 517.626953125 681.7734375 c 0
0 155.971679688 m 1
 46.36328125 109.607421875 l 1
 0 109.607421875 l 1
 0 155.971679688 l 1
474.458007812 155.971679688 m 1
 474.458007812 109.607421875 l 1
 428.094726562 109.607421875 l 1
 474.458007812 155.971679688 l 1
EndSplineSet
EndChar

StartChar: b.fina
Encoding: 268 57349 108
Width: 440
VWidth: 800
Flags: HW
HStem: -15.5741 39.123<234.869 359.98> 155.396 106.453<231.361 316.666> 366.659 35.8916<-7.78711 150.201 171.999 398.061>
VStem: 28.543 81.1133<138.148 296.501> 220.787 106.453<165.971 251.275>
LayerCount: 2
Fore
SplineSet
132.03125 730.133789062 m 2
 437.176757812 730.133789062 l 2
 467.103515625 730.133789062 529.260742188 733.296875 546.291992188 735 c 1
 528.7734375 681.58984375 l 1
 499.8203125 690.28515625 434.874023438 694.2421875 395.151367188 694.2421875 c 0
 277.876953125 694.2421875 192.978515625 634.73828125 192.978515625 525.517578125 c 0
 192.978515625 444.122070312 228.844726562 344.014648438 382.974609375 344.014648438 c 0
 492.280273438 344.014648438 516.494140625 336.026367188 516.494140625 308.776367188 c 0
 516.494140625 295.39453125 501.409179688 276.416015625 482.431640625 263.520507812 c 0
 463.453125 250.625 421.846679688 236.916992188 398.247070312 227.510742188 c 1
 398.247070312 246.732421875 l 1
 398.247070312 246.732421875 434.256835938 262.060546875 434.256835938 282.499023438 c 0
 434.256835938 299.530273438 397.759765625 309.110351562 302.641601562 309.110351562 c 0
 153.508789062 309.110351562 110.0625 410.8046875 110.0625 497.282226562 c 0
 110.0625 591.059570312 162.122070312 651.131835938 227.6171875 675.458007812 c 2
 278.189453125 694.2421875 l 1
 132.03125 694.2421875 l 2
 122.635742188 694.2421875 124.24609375 712.1875 124.24609375 712.1875 c 1
 124.24609375 712.1875 123.858398438 730.133789062 132.03125 730.133789062 c 2
420.340820312 523.985351562 m 0
 420.340820312 494.588867188 396.510742188 470.758789062 367.115234375 470.758789062 c 0
 337.71875 470.758789062 313.887695312 494.588867188 313.88671875 523.986328125 c 0
 313.88671875 553.381835938 337.717773438 577.211914062 367.115234375 577.211914062 c 0
 396.510742188 577.211914062 420.340820312 553.381835938 420.340820312 523.985351562 c 0
0 373.947265625 m 1
 46.36328125 327.583007812 l 1
 0 327.583007812 l 1
 0 373.947265625 l 1
519.461914062 373.947265625 m 1
 519.461914062 327.583007812 l 1
 473.09765625 327.583007812 l 1
 519.461914062 373.947265625 l 1
EndSplineSet
EndChar

StartChar: c.init
Encoding: 269 57350 109
Width: 424
VWidth: 800
Flags: HW
HStem: -233.054 21G<54.3203 67.8643> -21.0781 21G<287.442 300.986> 366.66 35.8926<139.832 287.442 368.704 430.815>
VStem: 54.3203 81.2617<-207.308 353.826> 287.442 81.2617<4.6685 366.66>
LayerCount: 2
Fore
SplineSet
128.483398438 672.267578125 m 1
 179.334960938 689.298828125 242.506835938 708.407226562 250.448242188 708.407226562 c 0
 282.696289062 708.407226562 338.662109375 680.956054688 338.662109375 599.970703125 c 0
 338.662109375 478.075195312 228.443359375 374.084960938 109.830078125 322.381835938 c 1
 192.821289062 312.69921875 311.055664062 277.580078125 367.219726562 103.734375 c 1
 319.28515625 171.547851562 l 1
 494.63671875 658.516601562 l 1
 462.827148438 706.192382812 l 1
 494.03515625 716.427734375 532.146484375 727.23828125 564.22265625 735 c 1
 580.23828125 694.407226562 l 1
 630.221679688 694.408203125 l 2
 640.708984375 694.408203125 638.006835938 676.461914062 638.006835938 676.461914062 c 1
 638.006835938 676.461914062 641.684570312 658.516601562 630.221679688 658.516601562 c 2
 575.900390625 658.516601562 l 1
 370.771484375 88.85546875 l 2
 346.610351562 79.1689453125 308.806640625 68.88671875 280.506835938 63.8544921875 c 0
 250.936523438 220.845703125 123.438476562 282.474609375 11.4150390625 283.231445312 c 1
 11.4150390625 302.392578125 l 1
 147.516601562 367.021484375 255.560546875 446.666992188 255.560546875 572.297851562 c 0
 255.560546875 637.36328125 220.750976562 662.895507812 183.086914062 662.895507812 c 0
 167.811523438 662.895507812 138.702148438 654.8671875 128.483398438 651.947265625 c 1
 128.483398438 672.267578125 l 1
0 338.219726562 m 1
 46.36328125 291.85546875 l 1
 0 291.85546875 l 1
 0 338.219726562 l 1
498.192382812 338.219726562 m 1
 498.192382812 291.85546875 l 1
 451.829101562 291.85546875 l 1
 498.192382812 338.219726562 l 1
EndSplineSet
EndChar

StartChar: c.medi
Encoding: 270 57351 110
Width: 423
VWidth: 800
Flags: HW
HStem: -233.054 21G<54.3213 67.8647> -21.0781 21G<287.443 300.987> 366.661 35.8916<-7.78516 54.3213 135.583 287.443 368.705 430.816>
VStem: 54.3213 81.2617<-207.308 366.661> 287.443 81.2617<4.6685 366.661>
LayerCount: 2
Fore
SplineSet
132.029296875 694.408203125 m 2
 309.712890625 694.408203125 l 2
 326.8203125 672.583007812 338.662109375 636.46484375 338.662109375 599.970703125 c 0
 338.662109375 478.075195312 228.443359375 374.084960938 109.830078125 322.381835938 c 1
 192.822265625 312.69921875 311.055664062 277.580078125 367.219726562 103.734375 c 1
 319.28515625 171.547851562 l 1
 494.637695312 658.516601562 l 1
 462.828125 706.192382812 l 1
 494.03515625 716.427734375 532.147460938 727.23828125 564.22265625 735 c 1
 580.23828125 694.407226562 l 1
 630.22265625 694.408203125 l 2
 639.541015625 694.408203125 638.0078125 676.333984375 638.0078125 676.333984375 c 1
 638.0078125 676.333984375 641.3828125 658.516601562 630.22265625 658.516601562 c 2
 575.901367188 658.516601562 l 1
 370.771484375 88.85546875 l 2
 346.610351562 79.1689453125 308.806640625 68.88671875 280.5078125 63.8544921875 c 0
 250.9375 220.845703125 123.438476562 282.474609375 11.416015625 283.231445312 c 1
 11.416015625 302.392578125 l 1
 147.516601562 367.021484375 255.561523438 446.666992188 255.561523438 572.297851562 c 0
 255.561523438 605.169921875 245.037109375 637.796875 230.811523438 658.516601562 c 2
 132.029296875 658.516601562 l 2
 121.810546875 658.516601562 124.243164062 676.484375 124.243164062 676.484375 c 1
 124.243164062 676.484375 123.2890625 694.408203125 132.029296875 694.408203125 c 2
-0 338.219726562 m 1
 46.36328125 291.85546875 l 1
 -0 291.85546875 l 1
 -0 338.219726562 l 1
498.193359375 338.219726562 m 1
 498.193359375 291.85546875 l 1
 451.830078125 291.85546875 l 1
 498.193359375 338.219726562 l 1
EndSplineSet
EndChar

StartChar: c.fina
Encoding: 271 57352 111
Width: 424
VWidth: 800
Flags: HW
HStem: -233.054 21G<54.3213 67.8647> -21.0781 21G<287.443 300.987> 366.521 35.7497<-7.78516 54.3213 135.583 286.863> 412.407 20G<354.714 371.801>
VStem: 54.3213 81.2617<-207.308 366.521> 287.443 81.2617<4.66852 366.148>
LayerCount: 2
Fore
SplineSet
132.028320312 721.005859375 m 2
 309.711914062 721.005859375 l 2
 326.8203125 699.1796875 338.662109375 663.0625 338.662109375 626.567382812 c 0
 338.662109375 504.672851562 228.443359375 400.681640625 109.830078125 348.979492188 c 1
 213.09765625 336.931640625 302.887695312 305.213867188 332.264648438 130.33203125 c 1
 329.9765625 115.452148438 l 2
 305.815429688 105.765625 268.01171875 95.4833984375 239.712890625 90.451171875 c 1
 237.165039062 240.108398438 123.438476562 309.072265625 11.4150390625 309.829101562 c 1
 11.4150390625 328.989257812 l 1
 147.516601562 393.618164062 255.560546875 473.264648438 255.560546875 598.895507812 c 0
 255.560546875 631.767578125 245.037109375 664.39453125 230.811523438 685.114257812 c 2
 132.028320312 685.114257812 l 2
 122.94921875 685.114257812 124.243164062 702.646484375 124.243164062 702.646484375 c 1
 124.243164062 702.646484375 124.112304688 721.005859375 132.028320312 721.005859375 c 2
252.018554688 104.5546875 m 1
 286.182617188 288.834960938 444.072265625 427.737304688 542.79296875 505.43359375 c 0
 555.36328125 515.327148438 584.083984375 536.776367188 598.21484375 547.17578125 c 0
 646.977539062 583.065429688 789.8515625 683.939453125 840.154296875 735 c 1
 895.071289062 735 l 1
 847.625976562 688.528320312 721.28515625 599.596679688 687.469726562 575.325195312 c 0
 678.395507812 568.8125 646.358398438 544.44921875 636.56640625 536.90234375 c 0
 481.96484375 417.756835938 365.627929688 313.923828125 329.9765625 115.452148438 c 1
 252.018554688 104.5546875 l 1
0 364.817382812 m 1
 46.36328125 318.453125 l 1
 0 318.453125 l 1
 0 364.817382812 l 1
755.73828125 364.817382812 m 1
 755.73828125 318.453125 l 1
 709.375 318.453125 l 1
 755.73828125 364.817382812 l 1
EndSplineSet
EndChar

StartChar: d.init
Encoding: 272 57353 112
Width: 190
VWidth: 800
Flags: HW
HStem: -233.055 21G<54.3203 67.8638> 366.66 35.892<135.582 197.689>
VStem: 54.3203 81.2617<-207.308 366.66 402.552 548.571>
LayerCount: 2
Fore
SplineSet
349.712890625 735 m 0
 378.915039062 735 375.694335938 721.141601562 366.631835938 695.989257812 c 2
 90.263671875 -71.0576171875 l 2
 66.1025390625 -80.7431640625 28.298828125 -91.029296875 0 -96.0615234375 c 1
 274.41796875 666.03125 l 2
 285.129882812 695.778320312 277.983398438 703.685546875 232.442382812 696.442382812 c 1
 232.442382812 714.702148438 l 1
 268.938476562 727.110351562 338.390625 735 349.712890625 735 c 0
273.149414062 534.495117188 m 1
 349.712890625 534.495117188 l 2
 359.927734375 534.495117188 357.498046875 516.166992188 357.498046875 516.166992188 c 1
 357.498046875 516.166992188 359.716796875 498.603515625 349.712890625 498.603515625 c 0
 319.774414062 498.603515625 289.459960938 482.061523438 264.032226562 411.446289062 c 1
 273.149414062 534.495117188 l 1
16.13671875 178.3046875 m 1
 62.5009765625 131.940429688 l 1
 16.13671875 131.940429688 l 1
 16.13671875 178.3046875 l 1
217.681640625 178.3046875 m 1
 217.681640625 131.940429688 l 1
 171.317382812 131.940429688 l 1
 217.681640625 178.3046875 l 1
EndSplineSet
EndChar

StartChar: d.medi
Encoding: 273 57354 113
Width: 190
VWidth: 800
Flags: HW
HStem: -233.055 21G<54.3223 67.8657> 366.66 35.8916<-7.78613 54.3223 135.583 197.691>
VStem: 54.3223 81.2607<-207.308 366.66 402.552 548.571>
LayerCount: 2
Fore
SplineSet
349.712890625 735 m 0
 378.915039062 735 375.694335938 721.141601562 366.631835938 695.989257812 c 2
 90.263671875 -71.056640625 l 2
 66.1025390625 -80.7421875 28.298828125 -91.029296875 -0 -96.060546875 c 1
 274.41796875 666.03125 l 2
 285.129882812 695.778320312 277.983398438 703.685546875 232.442382812 696.442382812 c 1
 232.442382812 714.702148438 l 1
 268.938476562 727.110351562 338.390625 735 349.712890625 735 c 0
273.149414062 534.495117188 m 1
 349.712890625 534.495117188 l 2
 357.78125 534.495117188 357.498046875 516.704101562 357.498046875 516.704101562 c 1
 357.498046875 516.704101562 357.572265625 498.603515625 349.712890625 498.603515625 c 0
 319.774414062 498.603515625 289.459960938 482.061523438 264.032226562 411.446289062 c 1
 273.149414062 534.495117188 l 1
250.216796875 568.4765625 m 1
 265.345703125 563.196289062 l 1
 234.421875 481.821289062 250.306640625 498.602539062 171.48828125 498.602539062 c 2
 148.16796875 498.602539062 l 2
 138.892578125 498.602539062 140.381835938 517.509765625 140.381835938 517.509765625 c 1
 140.381835938 517.509765625 139.393554688 534.494140625 148.16796875 534.494140625 c 2
 190.174804688 534.494140625 l 2
 219.063476562 534.494140625 237.840820312 537.83984375 250.216796875 568.4765625 c 1
16.13671875 178.303710938 m 1
 62.5 131.939453125 l 1
 16.13671875 131.939453125 l 1
 16.13671875 178.303710938 l 1
217.681640625 178.303710938 m 1
 217.681640625 131.939453125 l 1
 171.317382812 131.939453125 l 1
 217.681640625 178.303710938 l 1
EndSplineSet
EndChar

StartChar: d.fina
Encoding: 274 57355 114
Width: 190
VWidth: 800
Flags: HW
HStem: -233.055 21G<54.3213 67.8647> 366.66 35.8926<-7.78613 54.3213>
VStem: 54.3213 81.2617<-207.308 366.66 402.552 548.571>
LayerCount: 2
Fore
SplineSet
349.712890625 735 m 0
 378.915039062 735 375.694335938 721.141601562 366.631835938 695.989257812 c 2
 90.263671875 -71.056640625 l 2
 66.1025390625 -80.7431640625 28.298828125 -91.029296875 -0 -96.0615234375 c 1
 274.41796875 666.03125 l 2
 285.129882812 695.778320312 277.983398438 703.685546875 232.442382812 696.442382812 c 1
 232.442382812 714.702148438 l 1
 268.938476562 727.110351562 338.390625 735 349.712890625 735 c 0
250.216796875 568.4765625 m 1
 265.345703125 563.196289062 l 1
 234.421875 481.821289062 250.306640625 498.602539062 171.48828125 498.602539062 c 2
 148.16796875 498.602539062 l 2
 141.580078125 498.602539062 140.381835938 516.836914062 140.381835938 516.836914062 c 1
 140.381835938 516.836914062 140.092773438 534.494140625 148.16796875 534.494140625 c 2
 190.174804688 534.494140625 l 2
 219.063476562 534.494140625 237.840820312 537.83984375 250.216796875 568.4765625 c 1
16.13671875 178.302734375 m 1
 62.5 131.938476562 l 1
 16.13671875 131.938476562 l 1
 16.13671875 178.302734375 l 1
217.680664062 178.302734375 m 1
 217.680664062 131.938476562 l 1
 171.317382812 131.938476562 l 1
 217.680664062 178.302734375 l 1
EndSplineSet
EndChar

StartChar: e.init
Encoding: 275 57356 115
Width: 190
VWidth: 800
Flags: HW
HStem: -233.054 21G<54.3203 67.8643> 366.66 35.8916<139.832 197.689>
VStem: 54.3203 81.2617<-207.308 353.826>
LayerCount: 2
Fore
SplineSet
257.924804688 734.999023438 m 0
 272.609375 734.747070312 283.963867188 695.451171875 285.305664062 657.096679688 c 2
 90.263671875 115.446289062 l 2
 66.1025390625 105.759765625 28.298828125 95.4775390625 0 90.4453125 c 1
 191.118164062 621.205078125 l 2
 201.31640625 649.525390625 199.267578125 686.4375 162.078125 691.650390625 c 2
 151.173828125 693.178710938 l 1
 148.649414062 707.2109375 l 1
 182.541992188 716.672851562 249.805664062 735.138671875 257.924804688 734.999023438 c 0
156.318359375 524.560546875 m 1
 223.387695312 680.65625 288.48046875 721.000976562 349.711914062 721.000976562 c 0
 357.5078125 721.000976562 357.498046875 703.615234375 357.498046875 703.615234375 c 1
 357.498046875 703.615234375 359.435546875 685.109375 349.711914062 685.109375 c 0
 321.728515625 685.109375 288.48046875 659.637695312 255.545898438 574.451171875 c 1
 156.318359375 524.560546875 l 1
217.682617188 364.811523438 m 1
 217.682617188 318.447265625 l 1
 171.318359375 318.447265625 l 1
 217.682617188 364.811523438 l 1
34.2099609375 364.811523438 m 1
 80.5732421875 318.447265625 l 1
 34.2099609375 318.447265625 l 1
 34.2099609375 364.811523438 l 1
EndSplineSet
EndChar

StartChar: e.medi
Encoding: 276 57357 116
Width: 445
VWidth: 800
Flags: HW
HStem: -16.3235 45.8148<166.475 283.332> 366.66 35.8923<-7.78516 54.3213 135.582 309.263 390.524 452.63>
VStem: 54.3213 81.2607<62.0053 366.66> 309.263 81.2617<62.8753 366.661>
LayerCount: 2
Fore
SplineSet
132.029296875 721 m 2
 183.000976562 721 l 1
 226.469726562 659.475585938 l 1
 209.224609375 658.532226562 l 2
 193.328125 671.248046875 164.672851562 685.109375 132.030273438 685.109375 c 0
 122.754882812 685.109375 124.244140625 702.942382812 124.244140625 702.942382812 c 1
 124.244140625 702.942382812 123.686523438 721 132.029296875 721 c 2
358.54296875 735 m 0
 451.46875 735 524.573242188 666.203125 524.573242188 563.254882812 c 0
 524.573242188 420.26171875 425.7421875 304.828125 278.265625 304.828125 c 0
 177.671875 304.828125 99.51953125 373.571289062 99.51953125 477.97265625 c 0
 99.51953125 655.19140625 250.129882812 735 358.54296875 735 c 0
312.530273438 692.623046875 m 0
 250.075195312 692.623046875 180.78125 622.130859375 180.78125 513.864257812 c 0
 180.78125 406.560546875 250.045898438 346.8984375 309.533203125 346.8984375 c 0
 382.79296875 346.8984375 443.311523438 420.568359375 443.311523438 527.36328125 c 0
 443.311523438 626.649414062 395.415039062 692.623046875 312.530273438 692.623046875 c 0
559.338867188 729.946289062 m 2
 580.260742188 722.09765625 600.8125 721 611.893554688 721 c 0
 621.400390625 721 619.6796875 704.067382812 619.6796875 704.067382812 c 1
 619.6796875 704.067382812 622.918945312 685.109375 611.893554688 685.109375 c 0
 559.336914062 685.109375 520.809570312 659.870117188 479.93359375 632.1328125 c 1
 468.586914062 650.01171875 l 1
 559.338867188 729.946289062 l 2
0 364.811523438 m 1
 46.3642578125 318.447265625 l 1
 0 318.447265625 l 1
 0 364.811523438 l 1
479.861328125 364.811523438 m 1
 479.861328125 318.447265625 l 1
 433.497070312 318.447265625 l 1
 479.861328125 364.811523438 l 1
EndSplineSet
EndChar

StartChar: e.fina
Encoding: 277 57358 117
Width: 344
VWidth: 800
Flags: HW
HStem: -233.055 21G<54.3213 67.8647> 156.611 35.8916<135.583 299.961> 366.66 35.8926<-7.78516 53.7424> 412.688 20G<121.593 138.68>
VStem: 54.3213 81.2617<-207.308 156.611 192.503 366.429>
LayerCount: 2
Fore
SplineSet
159.80859375 721.001953125 m 2
 270.787109375 721.001953125 l 2
 304.732421875 721.001953125 303.421875 707.413085938 279.9609375 642.26171875 c 2
 90.2646484375 115.452148438 l 2
 66.103515625 105.766601562 28.298828125 95.484375 -0 90.4521484375 c 1
 187.690429688 611.684570312 l 2
 213.9921875 684.7265625 210.646484375 685.110351562 183.306640625 685.110351562 c 2
 159.80859375 685.110351562 l 2
 150.106445312 685.110351562 152.022460938 702.73828125 152.022460938 702.73828125 c 1
 152.022460938 702.73828125 150.287109375 721.001953125 159.80859375 721.001953125 c 2
50.0732421875 209.434570312 m 1
 96.078125 322.880859375 187.411132812 422.065429688 261.735351562 480.560546875 c 0
 279.149414062 494.266601562 336.609375 536.776367188 350.740234375 547.17578125 c 0
 399.502929688 583.065429688 542.376953125 683.939453125 592.6796875 735 c 1
 647.596679688 735 l 1
 600.151367188 688.528320312 473.809570312 599.596679688 439.995117188 575.325195312 c 0
 420.87890625 561.60546875 371.1171875 524.05859375 355.508789062 512.030273438 c 0
 271.950195312 447.634765625 178.916015625 361.643554688 128.03125 220.33203125 c 1
 50.0732421875 209.434570312 l 1
508.259765625 364.8125 m 1
 508.259765625 318.448242188 l 1
 461.896484375 318.448242188 l 1
 508.259765625 364.8125 l 1
27.7763671875 364.8125 m 1
 74.1396484375 318.448242188 l 1
 27.7763671875 318.448242188 l 1
 27.7763671875 364.8125 l 1
EndSplineSet
EndChar

StartChar: f.init
Encoding: 278 57359 118
Width: 675
VWidth: 800
Flags: HW
HStem: -233.055 21G<54.3213 67.8647> -19.1224 40.1986<382.435 500.904> 366.66 35.8926<624.392 682.251> 371.507 39.2689<203.249 373.46> 412.689 20G<119.048 135.582>
VStem: 54.3213 81.2607<-207.308 349.226> 237.962 80.877<82.1454 232.796> 538.882 81.2617<64.3402 353.826>
LayerCount: 2
Fore
SplineSet
362.623046875 735 m 1
 376.977539062 722.853515625 l 1
 342.692382812 702.7421875 306.772460938 682.905273438 274.491210938 663.603515625 c 0
 241.784179688 644.047851562 214.375 612.705078125 214.375 584.09765625 c 0
 214.375 550.37109375 255.317382812 528.794921875 320.918945312 528.809570312 c 2
 322.641601562 528.810546875 l 2
 330.06640625 528.810546875 330.426757812 510.907226562 330.426757812 510.907226562 c 1
 330.426757812 510.907226562 330.456054688 492.91796875 322.641601562 492.91796875 c 2
 227.171875 492.91796875 l 2
 168.83203125 492.91796875 133.114257812 520.655273438 133.114257812 553.7109375 c 0
 133.114257812 596.084960938 168.564453125 632.166992188 258.311523438 674.287109375 c 1
 247.267578125 676.561523438 235.9375 679.125 223.60546875 682.688476562 c 1
 228.442382812 694.854492188 l 1
 228.442382812 694.854492188 321.747070312 708.236328125 362.623046875 735 c 1
-0 173.001953125 m 1
 46.36328125 126.637695312 l 1
 -0 126.637695312 l 1
 -0 173.001953125 l 1
190.336914062 172.622070312 m 1
 190.336914062 126.2578125 l 1
 143.973632812 126.2578125 l 1
 190.336914062 172.622070312 l 1
EndSplineSet
EndChar

StartChar: f.medi
Encoding: 279 57360 119
Width: 190
VWidth: 800
Flags: HW
HStem: -233.055 21G<54.3223 67.8657> 366.661 35.8916<-7.78516 54.3223 135.583 197.691>
VStem: 54.3223 81.2607<-207.308 366.661>
LayerCount: 2
Fore
SplineSet
159.80859375 734.99609375 m 2
 349.7109375 735 l 2
 358.850585938 735 357.49609375 715.055664062 357.49609375 715.055664062 c 1
 357.49609375 715.055664062 360.493164062 699.108398438 349.7109375 699.108398438 c 0
 319.772460938 699.108398438 289.462890625 682.564453125 264.032226562 611.950195312 c 2
 90.2646484375 129.442382812 l 2
 66.103515625 119.755859375 28.298828125 109.473632812 0 104.44140625 c 1
 187.6484375 625.564453125 l 2
 213.84765625 698.323242188 210.662109375 699.104492188 183.306640625 699.104492188 c 2
 159.80859375 699.104492188 l 2
 150.396484375 699.104492188 152.022460938 716.668945312 152.022460938 716.668945312 c 1
 152.022460938 716.668945312 151.405273438 734.99609375 159.80859375 734.99609375 c 2
27.7763671875 378.8046875 m 1
 74.1396484375 332.440429688 l 1
 27.7763671875 332.440429688 l 1
 27.7763671875 378.8046875 l 1
217.680664062 378.8046875 m 1
 217.680664062 332.440429688 l 1
 171.317382812 332.440429688 l 1
 217.680664062 378.8046875 l 1
EndSplineSet
EndChar

StartChar: f.fina
Encoding: 280 57361 120
Width: 472
VWidth: 800
Flags: HW
HStem: -233.056 21G<54.3213 67.8647> -14.042 21G<297.635 354.419> 58.499 19.4639<198.717 249.813> 366.66 35.8926<-7.78418 335.823> 412.688 20G<403.674 420.761>
VStem: 54.3213 81.2617<-207.308 237.137> 336.402 81.2617<73.1877 366.429>
LayerCount: 2
Fore
SplineSet
132.2265625 691.158203125 m 2
 159.740234375 691.158203125 l 2
 362.3046875 691.158203125 369.3359375 652.896484375 460.178710938 735 c 1
 482.076171875 735 l 1
 411.029296875 651.788085938 371.614257812 613.83203125 325.385742188 613.83203125 c 0
 292.001953125 613.83203125 274.244140625 632.130859375 223.611328125 643.526367188 c 0
 189.791992188 651.137695312 156.047851562 655.267578125 132.2265625 655.267578125 c 0
 123.35546875 655.267578125 124.440429688 671.752929688 124.440429688 671.752929688 c 1
 124.440429688 671.752929688 123.318359375 691.158203125 132.2265625 691.158203125 c 2
0 334.962890625 m 1
 46.36328125 288.598632812 l 1
 0 288.598632812 l 1
 0 334.962890625 l 1
347.532226562 334.962890625 m 1
 347.532226562 288.598632812 l 1
 301.168945312 288.598632812 l 1
 347.532226562 334.962890625 l 1
EndSplineSet
EndChar

StartChar: g.init
Encoding: 281 57362 121
Width: 423
VWidth: 800
Flags: HW
HStem: -233.054 21G<54.3203 67.8643> -21.0781 21G<287.442 300.986> 366.661 35.8916<139.831 287.442 368.704 430.815> 494.231 106.453<168.858 254.163>
VStem: 54.3203 81.2617<-207.308 353.826> 158.283 106.454<504.806 590.11> 287.442 81.2617<4.6685 366.661>
LayerCount: 2
Fore
SplineSet
128.483398438 490.01953125 m 1
 179.334960938 507.05078125 242.506835938 526.159179688 250.448242188 526.159179688 c 0
 282.696289062 526.159179688 338.662109375 498.708007812 338.662109375 417.72265625 c 0
 338.662109375 295.827148438 228.443359375 191.836914062 109.830078125 140.133789062 c 1
 192.821289062 130.451171875 311.055664062 95.33203125 367.219726562 -78.5126953125 c 1
 319.28515625 -10.7001953125 l 1
 494.63671875 476.268554688 l 1
 462.827148438 523.9453125 l 1
 494.03515625 534.1796875 532.146484375 544.990234375 564.22265625 552.751953125 c 1
 580.23828125 512.16015625 l 1
 630.221679688 512.16015625 l 2
 638.022460938 512.16015625 638.0078125 493.896484375 638.0078125 493.896484375 c 1
 638.0078125 493.896484375 637.447265625 476.268554688 630.221679688 476.268554688 c 2
 575.900390625 476.268554688 l 1
 370.771484375 -93.392578125 l 2
 346.610351562 -103.078125 308.806640625 -113.361328125 280.506835938 -118.393554688 c 0
 250.936523438 38.5986328125 123.438476562 100.227539062 11.4150390625 100.984375 c 1
 11.4150390625 120.14453125 l 1
 147.516601562 184.7734375 255.560546875 264.419921875 255.560546875 390.049804688 c 0
 255.560546875 455.115234375 220.750976562 480.6484375 183.086914062 480.6484375 c 0
 167.811523438 480.6484375 138.702148438 472.619140625 128.483398438 469.69921875 c 1
 128.483398438 490.01953125 l 1
0 155.971679688 m 1
 46.36328125 109.607421875 l 1
 0 109.607421875 l 1
 0 155.971679688 l 1
498.192382812 155.971679688 m 1
 498.192382812 109.607421875 l 1
 451.829101562 109.607421875 l 1
 498.192382812 155.971679688 l 1
526.875976562 681.7734375 m 0
 526.875976562 652.376953125 503.045898438 628.546875 473.650390625 628.546875 c 0
 444.252929688 628.546875 420.421875 652.376953125 420.421875 681.7734375 c 0
 420.421875 711.169921875 444.252929688 735 473.650390625 735 c 0
 503.045898438 735 526.875976562 711.169921875 526.875976562 681.7734375 c 0
EndSplineSet
EndChar

StartChar: g.medi
Encoding: 282 57363 122
Width: 424
VWidth: 800
Flags: HW
HStem: -233.054 21G<54.3203 67.8643> -21.0781 21G<287.443 300.987> 366.661 35.8916<-7.78516 54.3203 135.583 287.443 368.704 430.816> 494.231 106.453<168.858 254.163>
VStem: 54.3203 81.2627<-207.308 366.661> 158.284 106.453<504.806 590.11> 287.443 81.2607<4.6685 366.661>
LayerCount: 2
Fore
SplineSet
132.029296875 512.161132812 m 2
 309.712890625 512.161132812 l 2
 326.8203125 490.3359375 338.662109375 454.21875 338.662109375 417.72265625 c 0
 338.662109375 295.828125 228.443359375 191.836914062 109.830078125 140.133789062 c 1
 192.822265625 130.452148438 311.055664062 95.3330078125 367.219726562 -78.5126953125 c 1
 319.28515625 -10.69921875 l 1
 494.637695312 476.26953125 l 1
 462.828125 523.9453125 l 1
 494.03515625 534.180664062 532.147460938 544.991210938 564.22265625 552.752929688 c 1
 580.23828125 512.161132812 l 1
 630.22265625 512.161132812 l 2
 638.0078125 512.161132812 638.0078125 493.565429688 638.0078125 493.565429688 c 1
 638.0078125 493.565429688 638.829101562 476.26953125 630.22265625 476.26953125 c 2
 575.901367188 476.26953125 l 1
 370.771484375 -93.392578125 l 2
 346.610351562 -103.078125 308.806640625 -113.360351562 280.5078125 -118.392578125 c 0
 250.9375 38.5986328125 123.438476562 100.227539062 11.416015625 100.984375 c 1
 11.416015625 120.145507812 l 1
 147.516601562 184.774414062 255.561523438 264.420898438 255.561523438 390.05078125 c 0
 255.561523438 422.922851562 245.037109375 455.549804688 230.811523438 476.26953125 c 2
 132.029296875 476.26953125 l 2
 123.853515625 476.26953125 124.243164062 492.186523438 124.243164062 492.186523438 c 1
 124.243164062 492.186523438 124.765625 512.161132812 132.029296875 512.161132812 c 2
-0 155.97265625 m 1
 46.36328125 109.608398438 l 1
 -0 109.608398438 l 1
 -0 155.97265625 l 1
498.193359375 155.97265625 m 1
 498.193359375 109.608398438 l 1
 451.830078125 109.608398438 l 1
 498.193359375 155.97265625 l 1
526.876953125 681.774414062 m 0
 526.876953125 652.376953125 503.045898438 628.546875 473.651367188 628.546875 c 0
 444.25390625 628.546875 420.422851562 652.377929688 420.422851562 681.774414062 c 0
 420.422851562 711.169921875 444.25390625 735 473.651367188 735 c 0
 503.045898438 735 526.876953125 711.169921875 526.876953125 681.774414062 c 0
EndSplineSet
EndChar

StartChar: g.fina
Encoding: 283 57364 123
Width: 423
VWidth: 800
Flags: HW
HStem: -233.054 21G<54.3203 67.8643> -21.0781 21G<287.442 300.986> 366.521 35.7497<-7.78613 54.3203 135.582 286.863> 412.407 20G<354.713 371.8> 494.231 106.453<168.858 254.163>
VStem: 54.3203 81.2617<-207.308 366.521> 158.283 106.454<504.806 590.11> 287.442 81.2617<4.66852 366.148>
LayerCount: 2
Fore
SplineSet
132.028320312 512.161132812 m 1
 309.711914062 512.161132812 l 2
 326.8203125 490.334960938 338.662109375 454.217773438 338.662109375 417.72265625 c 0
 338.662109375 295.827148438 228.443359375 191.836914062 109.830078125 140.134765625 c 1
 213.09765625 128.086914062 302.887695312 96.369140625 332.264648438 -78.513671875 c 1
 329.9765625 -93.3935546875 l 2
 305.815429688 -103.079101562 268.01171875 -113.361328125 239.712890625 -118.393554688 c 1
 237.165039062 31.263671875 123.438476562 100.227539062 11.4150390625 100.984375 c 1
 11.4150390625 120.14453125 l 1
 147.516601562 184.7734375 255.560546875 264.419921875 255.560546875 390.05078125 c 0
 255.560546875 422.922851562 245.037109375 455.549804688 230.811523438 476.26953125 c 2
 132.028320312 476.26953125 l 1
 132.028320312 512.161132812 l 1
252.018554688 -104.291015625 m 1
 286.182617188 79.990234375 444.072265625 218.892578125 542.79296875 296.588867188 c 0
 555.36328125 306.482421875 584.083984375 327.930664062 598.21484375 338.331054688 c 0
 646.977539062 374.220703125 789.8515625 475.094726562 840.154296875 526.155273438 c 1
 895.071289062 526.155273438 l 1
 847.625976562 479.68359375 721.284179688 390.750976562 687.469726562 366.48046875 c 0
 678.395507812 359.967773438 646.358398438 335.604492188 636.56640625 328.057617188 c 0
 481.96484375 208.912109375 365.627929688 105.079101562 329.9765625 -93.3935546875 c 1
 252.018554688 -104.291015625 l 1
-0 155.97265625 m 1
 46.36328125 109.608398438 l 1
 -0 109.608398438 l 1
 -0 155.97265625 l 1
755.73828125 155.97265625 m 1
 755.73828125 109.608398438 l 1
 709.375 109.608398438 l 1
 755.73828125 155.97265625 l 1
515.393554688 681.774414062 m 0
 515.393554688 652.376953125 491.563476562 628.546875 462.16796875 628.546875 c 0
 432.770507812 628.546875 408.939453125 652.377929688 408.939453125 681.774414062 c 0
 408.939453125 711.169921875 432.770507812 735 462.16796875 735 c 0
 491.563476562 735 515.393554688 711.169921875 515.393554688 681.774414062 c 0
EndSplineSet
EndChar

StartChar: h.init
Encoding: 284 57365 124
Width: 590
VWidth: 800
Flags: HW
HStem: -16.3253 45.8165<311.189 428.045> 366.66 35.8926<147.211 199.034 280.295 453.976 535.236 597.343>
VStem: 199.034 81.2607<62.0048 366.66> 453.976 81.2607<62.8743 366.66>
LayerCount: 2
Fore
SplineSet
564.178710938 688.630859375 m 0
 657.104492188 688.630859375 730.208007812 619.833984375 730.208007812 516.885742188 c 0
 730.208007812 373.893554688 631.377929688 258.458984375 483.901367188 258.458984375 c 0
 383.307617188 258.458984375 305.155273438 327.202148438 305.155273438 431.603515625 c 0
 305.155273438 608.822265625 455.765625 688.630859375 564.178710938 688.630859375 c 0
518.165039062 646.25390625 m 0
 455.7109375 646.25390625 386.416992188 575.762695312 386.416992188 467.49609375 c 0
 386.416992188 360.19140625 455.681640625 300.529296875 515.168945312 300.529296875 c 0
 588.428710938 300.529296875 648.947265625 374.19921875 648.947265625 480.994140625 c 0
 648.947265625 580.280273438 601.05078125 646.25390625 518.165039062 646.25390625 c 0
764.974609375 683.578125 m 2
 785.895507812 675.728515625 806.448242188 674.631835938 817.529296875 674.631835938 c 0
 824.922851562 674.631835938 825.314453125 657.245117188 825.314453125 657.245117188 c 1
 825.314453125 657.245117188 825.314453125 638.740234375 817.529296875 638.740234375 c 0
 764.971679688 638.740234375 726.444335938 613.501953125 685.569335938 585.764648438 c 1
 674.22265625 603.642578125 l 1
 764.974609375 683.578125 l 2
144.967773438 638.73828125 m 2
 138.733398438 638.73828125 138.282226562 642.926757812 141.870117188 646.65234375 c 0
 161.732421875 667.278320312 221.372070312 716.19921875 246.211914062 735 c 1
 298.954101562 674.873046875 l 1
 456.078125 674.629882812 l 2
 474.381835938 674.629882812 490.7890625 679.096679688 510.995117188 683.255859375 c 0
 526.354492188 686.41796875 544.02734375 688.630859375 564.178710938 688.630859375 c 1
 448.3515625 638.73828125 l 1
 144.967773438 638.73828125 l 2
0 318.44140625 m 1
 46.36328125 272.078125 l 1
 0 272.078125 l 1
 0 318.44140625 l 1
685.49609375 318.44140625 m 1
 685.49609375 272.078125 l 1
 639.1328125 272.078125 l 1
 685.49609375 318.44140625 l 1
EndSplineSet
EndChar

StartChar: h.medi
Encoding: 285 57366 125
Width: 190
VWidth: 800
Flags: HW
HStem: -21.0791 21G<54.3213 67.8652> 366.659 35.8916<-7.78516 54.3213 135.584 197.691>
VStem: 54.3213 81.2627<4.6668 366.659 402.551 548.57>
LayerCount: 2
Fore
SplineSet
132.033203125 603.96875 m 2
 226.336914062 603.96875 l 2
 283.701171875 603.96875 286.931640625 589.830078125 266.141601562 540.067382812 c 2
 170.106445312 310.197265625 l 2
 135.017578125 226.208984375 98.4111328125 182.471679688 69.234375 156.135742188 c 1
 58.3583984375 158.71484375 l 1
 57.8583984375 193.244140625 65.74609375 249.95703125 89.9423828125 307.870117188 c 2
 171.955078125 504.17578125 l 2
 193.12109375 554.838867188 196.578125 568.077148438 177.763671875 568.077148438 c 2
 132.033203125 568.077148438 l 2
 124.063476562 568.077148438 124.247070312 586.178710938 124.247070312 586.178710938 c 1
 124.247070312 586.178710938 125.278320312 603.96875 132.033203125 603.96875 c 2
315.481445312 647.912109375 m 0
 315.481445312 617.96875 332.434570312 603.96875 388.799804688 603.96875 c 2
 396.145507812 603.96875 l 2
 402.989257812 603.96875 403.931640625 585.704101562 403.931640625 585.704101562 c 1
 403.931640625 585.704101562 403.188476562 568.078125 396.145507812 568.078125 c 2
 320.669921875 568.078125 l 2
 269.734375 568.078125 232.654296875 581.978515625 232.654296875 619.420898438 c 0
 232.654296875 655.875 256.494140625 682.870117188 300.762695312 702.916992188 c 0
 324.016601562 713.448242188 382.759765625 735 382.759765625 735 c 1
 382.759765625 715.53515625 l 1
 336.135742188 698.502929688 315.481445312 670.7421875 315.481445312 647.912109375 c 0
-0 247.779296875 m 1
 46.36328125 201.415039062 l 1
 -0 201.415039062 l 1
 -0 247.779296875 l 1
264.114257812 247.779296875 m 1
 264.114257812 201.415039062 l 1
 217.750976562 201.415039062 l 1
 264.114257812 247.779296875 l 1
EndSplineSet
EndChar

StartChar: h.fina
Encoding: 286 57367 126
Width: 190
VWidth: 800
Flags: HW
HStem: -21.0791 21G<54.3213 67.8652> 366.66 35.8916<-7.78516 54.3213>
VStem: 54.3213 81.2627<4.6668 366.66 402.551 548.57>
LayerCount: 2
Fore
SplineSet
132.03125 579.546875 m 2
 226.334960938 579.546875 l 2
 283.698242188 579.546875 286.9296875 565.408203125 266.139648438 515.645507812 c 2
 170.104492188 285.775390625 l 2
 135.015625 201.787109375 98.4091796875 158.049804688 69.232421875 131.713867188 c 1
 58.35546875 134.291992188 l 1
 57.8564453125 168.821289062 65.744140625 225.53515625 89.939453125 283.448242188 c 2
 171.953125 479.75390625 l 2
 193.119140625 530.416992188 196.576171875 543.65625 177.760742188 543.65625 c 2
 132.03125 543.65625 l 2
 124.5546875 543.65625 124.24609375 561.47265625 124.24609375 561.47265625 c 1
 124.24609375 561.47265625 124.424804688 579.546875 132.03125 579.546875 c 2
0 223.358398438 m 1
 46.36328125 176.994140625 l 1
 0 176.994140625 l 1
 0 223.358398438 l 1
190.634765625 223.358398438 m 1
 190.634765625 176.994140625 l 1
 144.271484375 176.994140625 l 1
 190.634765625 223.358398438 l 1
249.837890625 696.731445312 m 2
 249.837890625 705.247070312 l 1
 328.533203125 735 l 2
 335.83203125 721.130859375 339.245117188 705.077148438 339.245117188 689.91796875 c 0
 339.245117188 664.657226562 322.192382812 637.763671875 297.407226562 627.286132812 c 0
 287.17578125 622.961914062 264.479492188 617.296875 251.053710938 615.249023438 c 2
 246.188476562 622.03515625 l 2
 253.748046875 630.080078125 258.201171875 645.12109375 258.201171875 659.197265625 c 0
 258.201171875 673.232421875 254.216796875 685.5390625 249.837890625 696.731445312 c 2
EndSplineSet
EndChar

StartChar: i.init
Encoding: 287 57368 127
Width: 445
VWidth: 800
Flags: HW
HStem: -16.3253 45.8165<166.479 283.328> 366.659 35.8925<139.837 309.266 390.527 452.634>
VStem: 54.3242 81.2607<62.0048 353.826> 309.266 81.2617<62.8744 366.66>
LayerCount: 2
Fore
SplineSet
358.543945312 735 m 0
 451.469726562 735 524.573242188 666.203125 524.573242188 563.254882812 c 0
 524.573242188 420.26171875 425.743164062 304.828125 278.266601562 304.828125 c 0
 177.672851562 304.828125 99.5205078125 373.571289062 99.5205078125 477.97265625 c 0
 99.5205078125 655.19140625 250.130859375 735 358.543945312 735 c 0
312.530273438 692.623046875 m 0
 250.076171875 692.623046875 180.782226562 622.130859375 180.782226562 513.864257812 c 0
 180.782226562 406.560546875 250.046875 346.8984375 309.534179688 346.8984375 c 0
 382.793945312 346.8984375 443.3125 420.568359375 443.3125 527.362304688 c 0
 443.3125 626.649414062 395.416015625 692.623046875 312.530273438 692.623046875 c 0
559.33984375 729.946289062 m 2
 580.260742188 722.09765625 600.8125 721 611.89453125 721 c 0
 620.09375 721 619.6796875 702.538085938 619.6796875 702.538085938 c 1
 619.6796875 702.538085938 620.231445312 685.109375 611.89453125 685.109375 c 0
 559.336914062 685.109375 520.809570312 659.870117188 479.934570312 632.1328125 c 1
 468.587890625 650.01171875 l 1
 559.33984375 729.946289062 l 2
0 364.810546875 m 1
 46.36328125 318.446289062 l 1
 0 318.446289062 l 1
 0 364.810546875 l 1
479.861328125 364.810546875 m 1
 479.861328125 318.446289062 l 1
 433.498046875 318.446289062 l 1
 479.861328125 364.810546875 l 1
EndSplineSet
EndChar

StartChar: i.medi
Encoding: 288 57369 128
Width: 397
VWidth: 800
Flags: HW
HStem: 366.66 76.7714<174.874 227.827> 366.66 35.8926<-7.78809 172.933 229.739 405.241> 542.056 35.8926<199.869 348.996>
LayerCount: 2
Fore
SplineSet
423.162109375 735 m 1
 437.516601562 722.853515625 l 1
 403.231445312 702.7421875 367.311523438 682.905273438 335.030273438 663.603515625 c 0
 302.323242188 644.047851562 274.915039062 612.705078125 274.915039062 584.09765625 c 0
 274.915039062 550.37109375 315.856445312 528.794921875 381.458984375 528.809570312 c 2
 383.180664062 528.809570312 l 2
 390.60546875 528.809570312 390.966796875 510.907226562 390.966796875 510.907226562 c 1
 390.966796875 510.907226562 390.995117188 492.91796875 383.180664062 492.91796875 c 2
 287.711914062 492.91796875 l 2
 229.37109375 492.91796875 193.653320312 520.655273438 193.653320312 553.7109375 c 0
 193.653320312 596.084960938 229.103515625 632.166992188 318.8515625 674.287109375 c 1
 307.807617188 676.561523438 296.477539062 679.125 284.145507812 682.688476562 c 1
 288.981445312 694.854492188 l 1
 288.981445312 694.854492188 382.286132812 708.236328125 423.162109375 735 c 1
238.392578125 540.166015625 m 2
 272.985351562 541.454101562 l 1
 255.78125 519.260742188 227.173828125 492.91796875 177.181640625 492.918945312 c 2
 132.033203125 492.919921875 l 2
 125.172851562 492.919921875 124.247070312 510.88671875 124.247070312 510.88671875 c 1
 124.247070312 510.88671875 125.702148438 528.811523438 132.033203125 528.811523438 c 2
 171.293945312 528.810546875 l 2
 200.182617188 528.809570312 221.150390625 534.102539062 238.392578125 540.166015625 c 2
-0 172.622070312 m 1
 46.36328125 126.2578125 l 1
 -0 126.2578125 l 1
 -0 172.622070312 l 1
250.876953125 172.622070312 m 1
 250.876953125 126.2578125 l 1
 204.512695312 126.2578125 l 1
 250.876953125 172.622070312 l 1
EndSplineSet
EndChar

StartChar: i.fina
Encoding: 289 57370 129
Width: 320
VWidth: 800
Flags: HW
HStem: -153.297 19.4648<7.78711 79.509> -12.1865 21G<59.9336 69.876> 366.661 35.8916<-7.78711 183.821> 412.692 20G<251.671 268.758>
VStem: 59.9336 59.6553<5.91406 244.021> 184.4 81.2617<-138.608 366.433>
LayerCount: 2
Fore
SplineSet
132.3046875 735 m 2
 445.305664062 734.998046875 l 2
 479.250976562 734.998046875 477.939453125 721.407226562 454.479492188 656.254882812 c 2
 264.780273438 129.4453125 l 2
 240.620117188 119.759765625 202.81640625 109.477539062 174.516601562 104.4453125 c 1
 362.166015625 625.565429688 l 2
 388.366210938 698.32421875 385.178710938 699.106445312 357.82421875 699.106445312 c 2
 132.3046875 699.108398438 l 2
 124.129882812 699.108398438 124.518554688 717.021484375 124.518554688 717.021484375 c 1
 124.518554688 717.021484375 124.590820312 735 132.3046875 735 c 2
-0 378.811523438 m 1
 46.3642578125 332.448242188 l 1
 -0 332.448242188 l 1
 -0 378.811523438 l 1
392.19921875 378.809570312 m 1
 392.19921875 332.4453125 l 1
 345.834960938 332.4453125 l 1
 392.19921875 378.809570312 l 1
355.547851562 548.725585938 m 2
 332.676757812 545.319335938 294.424804688 536.91796875 270.211914062 529.986328125 c 0
 210.67578125 512.94140625 131.889648438 474.280273438 131.889648438 421.928710938 c 0
 131.889648438 374.788085938 166.986328125 358.616210938 218.599609375 358.616210938 c 0
 256.450195312 358.616210938 286.041992188 367.217773438 334.21484375 379.60546875 c 1
 260.235351562 339.002929688 l 2
 243.030273438 332.46484375 194.169921875 318.828125 154.943359375 318.828125 c 0
 70.6416015625 318.828125 47.9306640625 356.895507812 47.9306640625 394.745117188 c 0
 47.9306640625 423.876953125 63.453125 452.7890625 82.6064453125 471.942382812 c 0
 102.12890625 491.46484375 131.145507812 511.901367188 203.116210938 536.166992188 c 0
 226.287109375 543.978515625 316.494140625 568.510742188 355.375976562 578.145507812 c 1
 355.547851562 548.725585938 l 2
EndSplineSet
EndChar

StartChar: j.fina
Encoding: 290 57373 130
Width: 493
VWidth: 800
Flags: HW
HStem: -21.2547 45.2498<182.548 322.986> 366.664 35.8889<-7.78613 54.3184 135.58 357.152> 412.696 20G<425.003 442.09>
VStem: 54.3184 81.2617<73.0056 366.662> 357.735 81.2571<55.2939 366.437>
LayerCount: 2
Fore
SplineSet
132.029296875 721 m 2
 183.000976562 721 l 1
 226.469726562 659.475585938 l 1
 209.224609375 658.532226562 l 2
 193.328125 671.248046875 164.672851562 685.109375 132.030273438 685.109375 c 0
 124.231445312 685.109375 124.244140625 703.2109375 124.244140625 703.2109375 c 1
 124.244140625 703.2109375 124.017578125 721 132.029296875 721 c 2
358.54296875 735 m 0
 451.46875 735 524.573242188 666.203125 524.573242188 563.254882812 c 0
 524.573242188 420.26171875 425.7421875 304.828125 278.265625 304.828125 c 0
 177.671875 304.828125 99.51953125 373.571289062 99.51953125 477.97265625 c 0
 99.51953125 655.19140625 250.129882812 735 358.54296875 735 c 0
312.530273438 692.623046875 m 0
 250.075195312 692.623046875 180.78125 622.130859375 180.78125 513.864257812 c 0
 180.78125 406.560546875 250.045898438 346.8984375 309.533203125 346.8984375 c 0
 382.79296875 346.8984375 443.311523438 420.568359375 443.311523438 527.362304688 c 0
 443.311523438 626.649414062 395.415039062 692.623046875 312.530273438 692.623046875 c 0
0 364.811523438 m 1
 46.3642578125 318.447265625 l 1
 0 318.447265625 l 1
 0 364.811523438 l 1
479.861328125 364.811523438 m 1
 479.861328125 318.447265625 l 1
 433.497070312 318.447265625 l 1
 479.861328125 364.811523438 l 1
EndSplineSet
EndChar

StartChar: k.init
Encoding: 291 57374 131
Width: 566
VWidth: 800
Flags: HW
HStem: -152.569 35.8926<100.098 249.221> -20.254 46.4679<145.785 315.132> 366.661 35.8916<517.142 573.752> 376.422 33.0353<139.15 184.961>
VStem: 247.977 82.0566<173.236 325.092> 430.382 81.2607<4.6685 52.9886 102.715 355.891>
LayerCount: 2
Fore
SplineSet
0 362.706054688 m 1
 46.36328125 316.341796875 l 1
 0 316.341796875 l 1
 0 362.706054688 l 1
283.0390625 362.706054688 m 1
 283.0390625 316.341796875 l 1
 236.67578125 316.341796875 l 1
 283.0390625 362.706054688 l 1
179.564453125 487.852539062 m 0
 147.69140625 488.219726562 113.221679688 498.783203125 105.678710938 510.123046875 c 2
 105.677734375 527.142578125 l 1
 105.677734375 527.142578125 159.817382812 545.936523438 179.646484375 552.018554688 c 0
 199.090820312 543.40234375 219.811523438 534.692382812 253.107421875 534.692382812 c 0
 274.518554688 534.692382812 323.19921875 546.470703125 345.583007812 556.203125 c 2
 356.045898438 545.497070312 l 1
 317.041992188 528.266601562 230.056640625 487.270507812 179.564453125 487.852539062 c 0
272.20703125 735 m 0
 286.788085938 735 308.028320312 718.897460938 375.7265625 718.897460938 c 2
 415.071289062 718.897460938 l 2
 423.263671875 718.897460938 422.858398438 700.952148438 422.858398438 700.952148438 c 1
 422.858398438 700.952148438 422.129882812 683.005859375 415.071289062 683.005859375 c 2
 293.731445312 683.005859375 l 2
 238.291015625 683.005859375 237.092773438 685.053710938 212.579101562 685.053710938 c 0
 187.8671875 685.053710938 165.668945312 677.01171875 129.883789062 663.591796875 c 1
 129.883789062 680.755859375 l 1
 192.6328125 708.4375 262.23046875 735 272.20703125 735 c 0
EndSplineSet
EndChar

StartChar: k.medi
Encoding: 292 57375 132
Width: 310
VWidth: 800
Flags: HW
HStem: -152.568 35.8916<27.0556 130.923> -21.252 21G<114.462 128.005> 366.661 35.8916<-7.78613 114.462 195.723 317.97>
VStem: 114.462 81.2607<4.49565 366.661>
LayerCount: 2
Fore
SplineSet
132.03125 735 m 2
 302.42578125 734.998046875 l 2
 316.370117188 734.998046875 325.116210938 730.938476562 327.857421875 724.935546875 c 1
 338.002929688 731.391601562 347.555664062 734.999023438 361.50390625 734.998046875 c 2
 387.8203125 734.998046875 l 2
 396.154296875 734.998046875 395.60546875 717.052734375 395.60546875 717.052734375 c 1
 395.60546875 717.052734375 395.760742188 699.106445312 387.8203125 699.106445312 c 0
 333.7109375 699.106445312 298.033203125 688.327148438 258.583984375 649.557617188 c 1
 239.120117188 649.557617188 l 1
 273.71484375 694.775390625 281.911132812 698.9921875 239.495117188 699.024414062 c 2
 132.03125 699.108398438 l 2
 124.046875 699.108398438 124.245117188 717.0546875 124.245117188 717.0546875 c 1
 124.245117188 717.0546875 122.905273438 735 132.03125 735 c 2
154.19140625 503.94921875 m 0
 122.319335938 504.31640625 87.849609375 514.880859375 80.306640625 526.219726562 c 2
 80.3056640625 543.240234375 l 1
 80.3056640625 543.240234375 134.444335938 562.033203125 154.274414062 568.116210938 c 0
 173.71875 559.499023438 194.438476562 550.7890625 227.734375 550.7890625 c 0
 249.145507812 550.7890625 297.827148438 562.567382812 320.2109375 572.299804688 c 2
 330.672851562 561.59375 l 1
 291.669921875 544.364257812 204.68359375 503.3671875 154.19140625 503.94921875 c 0
0 378.80859375 m 1
 46.3642578125 332.4453125 l 1
 0 332.4453125 l 1
 0 378.80859375 l 1
255.790039062 378.80859375 m 1
 255.790039062 332.4453125 l 1
 209.426757812 332.4453125 l 1
 255.790039062 378.80859375 l 1
EndSplineSet
EndChar

StartChar: k.fina
Encoding: 293 57376 133
Width: 472
VWidth: 800
Flags: HW
HStem: -233.056 21G<54.3203 67.8638> -14.041 21G<297.634 354.418> 58.499 19.4648<198.716 249.811> 366.66 35.8926<-7.78613 335.822> 412.688 20G<403.672 420.759> 486.923 35.8926<201.642 350.769>
VStem: 54.3203 81.2607<-207.308 237.137> 336.401 81.2617<73.1877 366.429>
LayerCount: 2
Fore
SplineSet
194.067382812 460.108398438 m 0
 162.194335938 460.475585938 127.724609375 471.0390625 120.181640625 482.37890625 c 2
 120.180664062 499.3984375 l 1
 120.180664062 499.3984375 174.3203125 518.192382812 194.149414062 524.274414062 c 0
 213.59375 515.658203125 234.314453125 506.948242188 267.610351562 506.948242188 c 0
 289.021484375 506.948242188 337.702148438 518.7265625 360.0859375 528.458984375 c 2
 370.548828125 517.752929688 l 1
 331.544921875 500.522460938 244.559570312 459.526367188 194.067382812 460.108398438 c 0
132.2265625 691.158203125 m 2
 159.740234375 691.158203125 l 2
 362.3046875 691.158203125 369.3359375 652.896484375 460.178710938 735 c 1
 482.076171875 735 l 1
 411.029296875 651.788085938 371.61328125 613.83203125 325.385742188 613.83203125 c 0
 292.001953125 613.83203125 274.244140625 632.130859375 223.611328125 643.526367188 c 0
 189.791992188 651.137695312 156.047851562 655.267578125 132.2265625 655.267578125 c 0
 124.95703125 655.267578125 124.440429688 673.212890625 124.440429688 673.212890625 c 1
 124.440429688 673.212890625 125.772460938 691.158203125 132.2265625 691.158203125 c 2
-0 334.962890625 m 1
 46.36328125 288.598632812 l 1
 -0 288.598632812 l 1
 -0 334.962890625 l 1
347.532226562 334.962890625 m 1
 347.532226562 288.598632812 l 1
 301.168945312 288.598632812 l 1
 347.532226562 334.962890625 l 1
EndSplineSet
EndChar

StartChar: l.init
Encoding: 294 57377 134
Width: 566
VWidth: 800
Flags: HW
HStem: -20.254 46.4679<145.785 315.132> 366.661 35.8916<517.142 573.752> 376.422 33.0353<139.15 184.961>
VStem: 247.977 82.0566<173.236 325.092> 430.382 81.2607<4.95368 52.9881 102.715 355.891>
LayerCount: 2
Fore
SplineSet
320.642578125 567.241210938 m 1
 290.248046875 511.482421875 228.9921875 435.446289062 203.686523438 435.446289062 c 0
 187.452148438 435.446289062 170.30859375 504.057617188 174.447265625 567.241210938 c 1
 195.874023438 567.241210938 l 2
 198.046875 539.35546875 210.263671875 510.178710938 226.958984375 510.178710938 c 0
 244.931640625 510.178710938 281.456054688 545.291015625 296.46484375 567.241210938 c 2
 320.642578125 567.241210938 l 1
0 362.706054688 m 1
 46.3642578125 316.341796875 l 1
 0 316.341796875 l 1
 0 362.706054688 l 1
263.575195312 362.706054688 m 1
 263.575195312 316.341796875 l 1
 217.211914062 316.341796875 l 1
 263.575195312 362.706054688 l 1
272.20703125 735 m 0
 286.7890625 735 308.028320312 718.897460938 375.7265625 718.897460938 c 2
 395.606445312 718.897460938 l 2
 403.2734375 718.897460938 403.392578125 701.240234375 403.392578125 701.240234375 c 1
 403.392578125 701.240234375 403.001953125 683.005859375 395.606445312 683.005859375 c 2
 293.731445312 683.005859375 l 2
 238.291015625 683.005859375 237.092773438 685.053710938 212.580078125 685.053710938 c 0
 187.8671875 685.053710938 165.669921875 677.01171875 129.883789062 663.591796875 c 1
 129.883789062 680.755859375 l 1
 192.6328125 708.4375 262.231445312 735 272.20703125 735 c 0
EndSplineSet
EndChar

StartChar: l.medi
Encoding: 295 57378 135
Width: 190
VWidth: 800
Flags: HW
HStem: -21.25 21G<54.3232 67.8667> 366.661 35.8916<-7.78613 54.3232 135.584 197.691>
VStem: 54.3232 81.2607<4.49688 366.661>
LayerCount: 2
Fore
SplineSet
132.032226562 735 m 2
 234.54296875 735 l 2
 248.48828125 735 257.233398438 730.940429688 259.975585938 724.936523438 c 1
 270.120117188 731.392578125 277.11328125 735 290.497070312 735 c 0
 297.823242188 735 298.282226562 717.072265625 298.282226562 717.072265625 c 1
 298.282226562 717.072265625 297.826171875 699.108398438 290.497070312 699.108398438 c 0
 241.497070312 699.108398438 230.151367188 688.328125 190.702148438 649.55859375 c 1
 171.237304688 649.55859375 l 1
 205.833007812 694.776367188 214.029296875 698.994140625 171.612304688 699.025390625 c 2
 132.030273438 699.106445312 l 2
 124.771484375 699.106445312 124.24609375 716.803710938 124.24609375 716.803710938 c 1
 124.24609375 716.803710938 124.75390625 735 132.032226562 735 c 2
227.387695312 583.33984375 m 1
 196.9921875 527.581054688 135.737304688 451.544921875 110.431640625 451.544921875 c 0
 94.1962890625 451.544921875 77.052734375 520.15625 81.1923828125 583.33984375 c 1
 102.618164062 583.33984375 l 2
 104.791015625 555.453125 117.0078125 526.27734375 133.704101562 526.27734375 c 0
 151.67578125 526.27734375 188.201171875 561.388671875 203.208984375 583.33984375 c 2
 227.387695312 583.33984375 l 1
0 378.806640625 m 1
 46.36328125 332.443359375 l 1
 0 332.443359375 l 1
 0 378.806640625 l 1
158.466796875 378.806640625 m 1
 158.466796875 332.443359375 l 1
 112.102539062 332.443359375 l 1
 158.466796875 378.806640625 l 1
EndSplineSet
EndChar

StartChar: l.fina
Encoding: 296 57379 136
Width: 472
VWidth: 800
Flags: HW
HStem: -233.055 21G<54.3213 67.8647> -14.041 21G<297.635 354.418> 58.499 19.4648<198.716 249.812> 366.661 35.8916<-7.78516 335.822> 412.688 20G<403.673 420.76>
VStem: 54.3213 81.2607<-207.308 237.137> 336.402 81.2617<73.1878 366.429>
LayerCount: 2
Fore
SplineSet
300.69921875 539.49609375 m 1
 270.303710938 483.736328125 209.048828125 407.700195312 183.743164062 407.700195312 c 0
 167.5078125 407.700195312 150.365234375 476.311523438 154.50390625 539.49609375 c 1
 175.930664062 539.49609375 l 2
 178.102539062 511.609375 190.3203125 482.432617188 207.015625 482.432617188 c 0
 224.98828125 482.432617188 261.512695312 517.544921875 276.521484375 539.49609375 c 2
 300.69921875 539.49609375 l 1
132.225585938 691.158203125 m 2
 159.740234375 691.158203125 l 2
 362.303710938 691.158203125 369.3359375 652.896484375 460.177734375 735 c 1
 482.075195312 735 l 1
 411.029296875 651.788085938 371.61328125 613.83203125 325.384765625 613.83203125 c 0
 292.001953125 613.83203125 274.244140625 632.130859375 223.611328125 643.526367188 c 0
 189.791992188 651.137695312 156.047851562 655.267578125 132.225585938 655.267578125 c 0
 125.030273438 655.267578125 124.440429688 672.895507812 124.440429688 672.895507812 c 1
 124.440429688 672.895507812 124.161132812 691.158203125 132.225585938 691.158203125 c 2
-0 334.962890625 m 1
 46.36328125 288.598632812 l 1
 -0 288.598632812 l 1
 -0 334.962890625 l 1
347.532226562 334.962890625 m 1
 347.532226562 288.598632812 l 1
 301.16796875 288.598632812 l 1
 347.532226562 334.962890625 l 1
EndSplineSet
EndChar

StartChar: m.init
Encoding: 297 57380 137
Width: 566
VWidth: 800
Flags: HW
HStem: -233.051 21G<430.382 443.925> -20.254 46.4679<145.785 315.132> 366.66 35.8916<517.142 573.752> 376.422 33.0353<139.151 184.962> 494.23 106.453<240.1 325.403>
VStem: 229.525 106.452<504.805 590.109> 247.977 82.0576<173.235 325.092> 430.382 81.2607<-207.303 52.9877 102.713 355.891>
LayerCount: 2
Fore
SplineSet
158.243164062 109.607421875 m 0
 134.08203125 99.921875 96.27734375 89.6396484375 67.9794921875 84.607421875 c 1
 94.423828125 127.478515625 163.104492188 224.958007812 202.592773438 271.642578125 c 0
 280.413085938 363.646484375 337.975585938 417.591796875 401.409179688 463.349609375 c 0
 455.53515625 502.393554688 538.536132812 543.146484375 591.364257812 543.146484375 c 0
 613.934570312 543.146484375 617.751953125 512.16015625 652.874023438 512.16015625 c 2
 677.663085938 512.16015625 l 2
 685.065429688 512.16015625 685.448242188 493.828125 685.448242188 493.828125 c 1
 685.448242188 493.828125 684.806640625 476.268554688 677.663085938 476.268554688 c 2
 581.546875 476.268554688 l 2
 540.55859375 476.268554688 553.580078125 499.240234375 533.385742188 499.240234375 c 0
 523.532226562 499.240234375 482.126953125 475.569335938 462.68359375 461.66796875 c 0
 369.932617188 395.359375 284.864257812 308.364257812 158.243164062 109.607421875 c 0
-0 155.970703125 m 1
 46.36328125 109.606445312 l 1
 -0 109.606445312 l 1
 -0 155.970703125 l 1
545.6328125 155.97265625 m 1
 545.6328125 109.608398438 l 1
 499.26953125 109.608398438 l 1
 545.6328125 155.97265625 l 1
127.079101562 476.26953125 m 2
 120.845703125 476.26953125 120.282226562 480.569335938 123.982421875 484.18359375 c 0
 143.357421875 503.10546875 182.072265625 535.96875 206.912109375 554.76953125 c 1
 242.13671875 512.403320312 l 1
 347.103515625 512.16015625 l 2
 365.407226562 512.116210938 395.813476562 513.364257812 411.125976562 515.256835938 c 1
 388.983398438 466.811523438 l 2
 370.44921875 473.272460938 343.256835938 476.268554688 320.452148438 476.268554688 c 2
 127.079101562 476.26953125 l 2
420.084960938 681.7734375 m 0
 420.084960938 652.376953125 396.25390625 628.546875 366.859375 628.546875 c 0
 337.461914062 628.546875 313.630859375 652.376953125 313.630859375 681.7734375 c 0
 313.630859375 711.169921875 337.461914062 735 366.859375 735 c 0
 396.25390625 735 420.084960938 711.169921875 420.084960938 681.7734375 c 0
EndSplineSet
EndChar

StartChar: m.medi
Encoding: 298 57381 138
Width: 190
VWidth: 800
Flags: HW
HStem: -218.401 106.453<57.1653 142.47> -21.25 21G<54.3232 67.8667> 366.661 35.8916<-7.78613 54.3232 135.585 197.691>
VStem: 46.5908 106.453<-207.827 -122.522> 54.3232 81.2617<4.49688 366.661>
LayerCount: 2
Fore
SplineSet
132.034179688 735 m 2
 269.197265625 735 l 2
 283.141601562 735 291.888671875 730.940429688 294.630859375 724.936523438 c 1
 304.776367188 731.392578125 311.766601562 735 325.151367188 735 c 2
 343.303710938 735 l 2
 350.913085938 735 351.08984375 717.296875 351.08984375 717.296875 c 1
 351.08984375 717.296875 350.91015625 699.103515625 343.303710938 699.103515625 c 2
 325.151367188 699.107421875 l 2
 276.151367188 699.107421875 264.805664062 688.330078125 225.356445312 649.560546875 c 1
 205.891601562 649.560546875 l 1
 240.490234375 694.778320312 248.68359375 698.995117188 206.266601562 699.024414062 c 2
 132.03125 699.104492188 l 2
 124.622070312 699.104492188 124.247070312 716.924804688 124.247070312 716.924804688 c 1
 124.247070312 716.924804688 124.776367188 735 132.034179688 735 c 2
228.008789062 533.370117188 m 0
 228.008789062 503.973632812 204.178710938 480.143554688 174.783203125 480.143554688 c 0
 145.38671875 480.143554688 121.555664062 503.973632812 121.5546875 533.37109375 c 0
 121.5546875 562.766601562 145.385742188 586.596679688 174.783203125 586.596679688 c 0
 204.178710938 586.596679688 228.008789062 562.767578125 228.008789062 533.370117188 c 0
0 378.801757812 m 1
 46.3642578125 332.4375 l 1
 0 332.4375 l 1
 0 378.801757812 l 1
211.080078125 378.801757812 m 1
 211.080078125 332.4375 l 1
 164.716796875 332.4375 l 1
 211.080078125 378.801757812 l 1
EndSplineSet
EndChar

StartChar: m.fina
Encoding: 299 57382 139
Width: 472
VWidth: 800
Flags: HW
HStem: -233.055 21G<54.3203 67.8638> -14.041 21G<297.634 354.418> 58.499 19.4648<198.716 249.811> 366.661 35.8916<-7.78613 335.822> 412.689 20G<403.673 420.76> 494.231 106.453<175.884 261.189>
VStem: 54.3203 81.2607<-207.308 237.137> 165.31 106.454<504.806 590.11> 336.401 81.2617<73.1887 366.429>
LayerCount: 2
Fore
SplineSet
132.2265625 691.158203125 m 2
 159.741210938 691.158203125 l 2
 362.3046875 691.158203125 369.336914062 652.896484375 460.178710938 735 c 1
 482.076171875 735 l 1
 411.030273438 651.788085938 371.614257812 613.83203125 325.385742188 613.83203125 c 0
 292.002929688 613.83203125 274.245117188 632.130859375 223.612304688 643.526367188 c 0
 189.79296875 651.137695312 156.048828125 655.267578125 132.2265625 655.267578125 c 0
 125.381835938 655.267578125 124.44140625 673.212890625 124.44140625 673.212890625 c 1
 124.44140625 673.212890625 125.190429688 691.158203125 132.2265625 691.158203125 c 2
274.921875 489.525390625 m 0
 274.921875 460.12890625 251.090820312 436.298828125 221.6953125 436.298828125 c 0
 192.298828125 436.298828125 168.46875 460.12890625 168.467773438 489.526367188 c 0
 168.467773438 518.921875 192.297851562 542.751953125 221.6953125 542.751953125 c 0
 251.090820312 542.751953125 274.921875 518.921875 274.921875 489.525390625 c 0
0 334.962890625 m 1
 46.3642578125 288.598632812 l 1
 0 288.598632812 l 1
 0 334.962890625 l 1
347.533203125 334.962890625 m 1
 347.533203125 288.598632812 l 1
 301.168945312 288.598632812 l 1
 347.533203125 334.962890625 l 1
EndSplineSet
EndChar

StartChar: n.fina
Encoding: 300 57385 140
Width: 190
VWidth: 800
Flags: HW
HStem: -233.055 21G<54.3223 67.8657> 366.66 35.8926<-7.78516 53.7434> 412.688 20G<121.595 138.681>
VStem: 54.3223 81.2617<-207.308 366.429>
LayerCount: 2
Fore
SplineSet
159.80859375 735 m 2
 270.7890625 735 l 2
 304.734375 735 303.422851562 721.409179688 279.961914062 656.256835938 c 2
 90.263671875 129.447265625 l 2
 66.1025390625 119.760742188 28.298828125 109.478515625 -0 104.446289062 c 1
 187.649414062 625.567382812 l 2
 213.849609375 698.326171875 210.661132812 699.108398438 183.306640625 699.108398438 c 2
 159.80859375 699.108398438 l 2
 151.634765625 699.108398438 152.022460938 717.053710938 152.022460938 717.053710938 c 1
 152.022460938 717.053710938 152.35546875 735 159.80859375 735 c 2
27.7763671875 378.810546875 m 1
 74.1396484375 332.446289062 l 1
 27.7763671875 332.446289062 l 1
 27.7763671875 378.810546875 l 1
217.681640625 378.810546875 m 1
 217.681640625 332.446289062 l 1
 171.318359375 332.446289062 l 1
 217.681640625 378.810546875 l 1
EndSplineSet
EndChar

StartChar: o.init
Encoding: 301 57386 141
Width: 493
VWidth: 800
Flags: HW
HStem: -21.2555 45.2497<182.552 322.99> 366.66 35.8924<139.834 357.738 438.999 501.104> 518.56 106.453<203.442 288.747>
VStem: 54.3223 81.2617<73.0052 353.825> 192.867 106.454<529.134 614.439> 357.738 81.2607<55.293 366.66>
LayerCount: 2
Fore
SplineSet
343.744140625 696.731445312 m 2
 343.744140625 705.247070312 l 1
 422.438476562 735 l 2
 429.73828125 721.131835938 433.151367188 705.077148438 433.151367188 689.91796875 c 0
 433.151367188 664.657226562 416.098632812 637.763671875 391.313476562 627.287109375 c 0
 381.08203125 622.961914062 358.385742188 617.296875 344.959960938 615.249023438 c 2
 340.09375 622.03515625 l 2
 347.654296875 630.080078125 352.107421875 645.12109375 352.107421875 659.197265625 c 0
 352.107421875 673.232421875 348.123046875 685.5390625 343.744140625 696.731445312 c 2
358.543945312 593.546875 m 0
 451.469726562 593.546875 524.57421875 524.75 524.57421875 421.801757812 c 0
 524.57421875 278.80859375 425.743164062 163.375 278.266601562 163.375 c 0
 177.672851562 163.375 99.5205078125 232.118164062 99.5205078125 336.51953125 c 0
 99.5205078125 513.73828125 250.130859375 593.546875 358.543945312 593.546875 c 0
312.530273438 551.169921875 m 0
 250.076171875 551.169921875 180.782226562 480.677734375 180.782226562 372.411132812 c 0
 180.782226562 265.107421875 250.046875 205.4453125 309.534179688 205.4453125 c 0
 382.793945312 205.4453125 443.3125 279.115234375 443.3125 385.909179688 c 0
 443.3125 485.196289062 395.416015625 551.169921875 312.530273438 551.169921875 c 0
559.33984375 588.493164062 m 2
 580.26171875 580.64453125 600.813476562 579.546875 611.89453125 579.546875 c 0
 619.512695312 579.546875 619.680664062 561.280273438 619.680664062 561.280273438 c 1
 619.680664062 561.280273438 619.6953125 543.65625 611.89453125 543.65625 c 0
 559.337890625 543.65625 520.810546875 518.416992188 479.934570312 490.6796875 c 1
 468.587890625 508.55859375 l 1
 559.33984375 588.493164062 l 2
0 223.357421875 m 1
 46.3642578125 176.993164062 l 1
 0 176.993164062 l 1
 0 223.357421875 l 1
479.862304688 223.357421875 m 1
 479.862304688 176.993164062 l 1
 433.498046875 176.993164062 l 1
 479.862304688 223.357421875 l 1
EndSplineSet
EndChar

StartChar: o.medi
Encoding: 302 57387 142
Width: 493
VWidth: 800
Flags: HW
HStem: -21.255 45.2492<182.548 322.984> 366.661 35.8913<-7.78516 54.3193 135.58 357.73 438.992 501.101>
VStem: 54.3193 81.2607<73.005 366.661> 357.732 81.2619<55.2939 366.662 402.553 548.571>
LayerCount: 2
Fore
SplineSet
132.029296875 603.970703125 m 2
 183.000976562 603.970703125 l 1
 226.469726562 542.446289062 l 1
 209.224609375 541.501953125 l 2
 193.327148438 554.217773438 164.671875 568.079101562 132.029296875 568.079101562 c 0
 125.275390625 568.079101562 124.243164062 586.024414062 124.243164062 586.024414062 c 1
 124.243164062 586.024414062 125.270507812 603.970703125 132.029296875 603.970703125 c 2
358.54296875 617.970703125 m 0
 451.46875 617.970703125 524.572265625 549.172851562 524.572265625 446.224609375 c 0
 524.572265625 303.232421875 425.7421875 187.798828125 278.265625 187.798828125 c 0
 177.671875 187.798828125 99.51953125 256.541015625 99.51953125 360.942382812 c 0
 99.51953125 538.161132812 250.129882812 617.970703125 358.54296875 617.970703125 c 0
312.529296875 575.59375 m 0
 250.075195312 575.59375 180.78125 505.100585938 180.78125 396.834960938 c 0
 180.78125 289.530273438 250.045898438 229.868164062 309.533203125 229.868164062 c 0
 382.79296875 229.868164062 443.311523438 303.538085938 443.311523438 410.333007812 c 0
 443.311523438 509.619140625 395.415039062 575.59375 312.529296875 575.59375 c 0
-0 247.78125 m 1
 46.36328125 201.416992188 l 1
 -0 201.416992188 l 1
 -0 247.78125 l 1
479.861328125 247.78125 m 1
 479.861328125 201.416992188 l 1
 433.498046875 201.416992188 l 1
 479.861328125 247.78125 l 1
408.973632812 647.912109375 m 0
 408.973632812 617.96875 425.92578125 603.96875 482.291015625 603.96875 c 2
 611.890625 603.970703125 l 2
 618.923828125 603.970703125 619.676757812 585.893554688 619.676757812 585.893554688 c 1
 619.676757812 585.893554688 620.262695312 568.079101562 611.890625 568.079101562 c 2
 414.161132812 568.078125 l 2
 363.225585938 568.078125 326.145507812 581.978515625 326.145507812 619.420898438 c 0
 326.145507812 655.875 349.985351562 682.870117188 394.25390625 702.916992188 c 0
 417.5078125 713.448242188 476.250976562 735 476.250976562 735 c 1
 476.250976562 715.53515625 l 1
 429.626953125 698.502929688 408.973632812 670.7421875 408.973632812 647.912109375 c 0
EndSplineSet
EndChar

StartChar: o.fina
Encoding: 303 57388 143
Width: 493
VWidth: 800
Flags: HW
HStem: -21.2547 45.2498<182.549 322.988> 366.664 35.8895<-7.78516 54.3193 135.581 357.153> 412.697 20G<425.003 442.09> 518.561 106.453<203.437 288.741>
VStem: 54.3193 81.2617<73.006 366.662> 192.862 106.453<529.135 614.44> 357.735 81.258<55.2939 366.437>
LayerCount: 2
Fore
SplineSet
132.029296875 579.545898438 m 2
 183.000976562 579.545898438 l 1
 226.469726562 518.022460938 l 1
 209.224609375 517.078125 l 2
 193.328125 529.793945312 164.672851562 543.655273438 132.030273438 543.655273438 c 0
 124.784179688 543.655273438 124.244140625 561.279296875 124.244140625 561.279296875 c 1
 124.244140625 561.279296875 124.97265625 579.545898438 132.029296875 579.545898438 c 2
358.54296875 593.545898438 m 0
 451.46875 593.545898438 524.573242188 524.749023438 524.573242188 421.80078125 c 0
 524.573242188 278.80859375 425.7421875 163.374023438 278.265625 163.374023438 c 0
 177.671875 163.374023438 99.51953125 232.1171875 99.51953125 336.518554688 c 0
 99.51953125 513.737304688 250.129882812 593.545898438 358.54296875 593.545898438 c 0
312.529296875 551.168945312 m 0
 250.075195312 551.168945312 180.78125 480.677734375 180.78125 372.411132812 c 0
 180.78125 265.106445312 250.045898438 205.444335938 309.533203125 205.444335938 c 0
 382.79296875 205.444335938 443.311523438 279.114257812 443.311523438 385.909179688 c 0
 443.311523438 485.1953125 395.415039062 551.168945312 312.529296875 551.168945312 c 0
-0 223.357421875 m 1
 46.3642578125 176.993164062 l 1
 -0 176.993164062 l 1
 -0 223.357421875 l 1
479.861328125 223.357421875 m 1
 479.861328125 176.993164062 l 1
 433.497070312 176.993164062 l 1
 479.861328125 223.357421875 l 1
343.744140625 696.731445312 m 2
 343.744140625 705.247070312 l 1
 422.438476562 735 l 2
 429.73828125 721.131835938 433.151367188 705.077148438 433.151367188 689.91796875 c 0
 433.151367188 664.657226562 416.098632812 637.763671875 391.313476562 627.287109375 c 0
 381.08203125 622.961914062 358.385742188 617.296875 344.959960938 615.249023438 c 2
 340.09375 622.03515625 l 2
 347.654296875 630.080078125 352.107421875 645.12109375 352.107421875 659.197265625 c 0
 352.107421875 673.232421875 348.123046875 685.5390625 343.744140625 696.731445312 c 2
EndSplineSet
EndChar

StartChar: p.fina
Encoding: 304 57391 144
Width: 190
VWidth: 800
Flags: HW
HStem: -20.7891 21G<54.3223 67.8657> 366.661 35.8916<-7.78516 53.7424> 412.696 20G<121.593 138.68>
VStem: 54.3223 81.2617<4.95759 366.437>
LayerCount: 2
Fore
SplineSet
132.03125 735 m 2
 226.3359375 735 l 2
 283.69921875 735 286.930664062 720.861328125 266.140625 671.098632812 c 2
 170.104492188 441.228515625 l 2
 135.016601562 357.240234375 98.41015625 313.501953125 69.2333984375 287.166015625 c 1
 58.3564453125 289.745117188 l 1
 57.857421875 324.274414062 65.7451171875 380.987304688 89.9404296875 438.901367188 c 2
 171.953125 635.20703125 l 2
 193.120117188 685.869140625 196.577148438 699.108398438 177.76171875 699.108398438 c 2
 132.03125 699.108398438 l 2
 124.635742188 699.108398438 124.24609375 716.807617188 124.24609375 716.807617188 c 1
 124.24609375 716.807617188 124.637695312 735 132.03125 735 c 2
0 378.810546875 m 1
 46.3642578125 332.447265625 l 1
 0 332.447265625 l 1
 0 378.810546875 l 1
190.635742188 378.810546875 m 1
 190.635742188 332.447265625 l 1
 144.271484375 332.447265625 l 1
 190.635742188 378.810546875 l 1
EndSplineSet
EndChar

StartChar: q.fina
Encoding: 305 57394 145
Width: 530
VWidth: 800
Flags: HW
HStem: -233.05 21G<54.3223 67.8657> 366.659 35.8926<-7.78516 53.7431> 370.582 42.7896<241.776 384.701> 412.688 20G<121.594 138.918> 542.055 35.8926<220.251 419.496>
VStem: 54.3223 81.2617<-207.303 -5.90657 37.8641 321.315 358.48 365.608> 417.4 84.1846<193.906 339.097>
LayerCount: 2
Fore
SplineSet
298.895507812 580.541015625 m 1
 423.995117188 690.7734375 l 2
 465.680664062 727.504882812 489.17578125 735 550.081054688 735 c 2
 614.66015625 735 l 1
 614.66015625 707.854492188 l 1
 561.365234375 697.719726562 506.59765625 684.958007812 447.674804688 650.86328125 c 2
 326.145507812 580.541015625 l 1
 298.895507812 580.541015625 l 1
159.80859375 548.834960938 m 2
 270.788085938 548.834960938 l 2
 304.6953125 548.834960938 303.430664062 535.268554688 280.037109375 470.303710938 c 2
 90.263671875 -56.71875 l 2
 66.1025390625 -66.404296875 28.298828125 -76.6865234375 0 -81.7177734375 c 1
 187.6484375 439.403320312 l 2
 213.84765625 512.162109375 210.661132812 512.943359375 183.306640625 512.943359375 c 2
 159.80859375 512.943359375 l 2
 152.280273438 512.943359375 152.022460938 530.888671875 152.022460938 530.888671875 c 1
 152.022460938 530.888671875 152.544921875 548.834960938 159.80859375 548.834960938 c 2
27.77734375 192.645507812 m 1
 74.1416015625 146.28125 l 1
 27.77734375 146.28125 l 1
 27.77734375 192.645507812 l 1
512.987304688 192.645507812 m 1
 512.987304688 146.28125 l 1
 466.624023438 146.28125 l 1
 512.987304688 192.645507812 l 1
260.939453125 417.266601562 m 0
 260.939453125 417.266601562 207.801757812 477.91015625 273.008789062 512.946289062 c 0
 302.926757812 526.555664062 356.693359375 547.026367188 389.7265625 558.575195312 c 0
 406.794921875 561.034179688 430.455078125 562.836914062 452.01171875 562.836914062 c 0
 521.762695312 562.836914062 580.875 528.645507812 580.875 439.87109375 c 0
 580.875 339.99609375 488.04296875 229.899414062 362.833984375 176.486328125 c 0
 341.029296875 167.185546875 305.68359375 155.828125 281.572265625 150.326171875 c 0
 226.069335938 137.661132812 212.364257812 129.91015625 113.31640625 125.602539062 c 1
 162.197265625 184.322265625 l 1
 400.465820312 161.317382812 499.61328125 318.52734375 499.61328125 413.7109375 c 0
 499.61328125 475.034179688 468.349609375 519.346679688 393.875 519.346679688 c 0
 336.71875 519.346679688 287.653320312 491.455078125 260.939453125 417.266601562 c 0
EndSplineSet
EndChar

StartChar: r.init
Encoding: 306 57395 146
Width: 493
VWidth: 800
Flags: HW
HStem: -233.05 21G<357.735 371.279> -21.2555 45.2497<182.552 323.356> 366.661 35.8922<139.835 500.986>
VStem: 54.3223 81.2607<73.0056 353.826> 357.735 81.2617<-207.303 12.8516>
LayerCount: 2
Fore
SplineSet
423.7421875 105.100585938 m 2
 399.58203125 95.4150390625 361.776367188 85.1318359375 333.478515625 80.1005859375 c 1
 363 150.76171875 l 2
 410.239257812 263.833984375 327.391601562 280.955078125 218.291992188 295.7890625 c 0
 137.245117188 306.809570312 89.728515625 358.456054688 89.728515625 444.109375 c 0
 89.728515625 552.655273438 147.751953125 625.197265625 205.489257812 663.157226562 c 0
 209.703125 665.360351562 264.967773438 692.3828125 269.251953125 694.422851562 c 0
 311.1015625 714.3515625 383.02734375 735 447.436523438 735 c 0
 505.682617188 735 574.004882812 720.310546875 611.473632812 682.831054688 c 1
 589.615234375 663.501953125 561.83203125 650.689453125 530.815429688 641.43359375 c 0
 499.573242188 673.389648438 445.313476562 687.85546875 389.677734375 687.85546875 c 0
 293.828125 687.85546875 178.494140625 616.5 178.494140625 478.048828125 c 0
 178.494140625 388.743164062 226.38671875 345.020507812 297.018554688 335.532226562 c 0
 368.827148438 325.885742188 511.661132812 315.543945312 442.720703125 150.52734375 c 2
 423.7421875 105.100585938 l 2
554.432617188 710.654296875 m 1
 690.005859375 710.654296875 l 2
 697.263671875 710.654296875 697.791015625 692.59765625 697.791015625 692.59765625 c 1
 697.791015625 692.59765625 697.865234375 674.762695312 690.005859375 674.762695312 c 2
 554.432617188 674.762695312 l 1
 554.432617188 710.654296875 l 1
0 354.466796875 m 1
 46.3642578125 308.102539062 l 1
 0 308.102539062 l 1
 0 354.466796875 l 1
557.9765625 354.466796875 m 1
 557.9765625 308.102539062 l 1
 511.612304688 308.102539062 l 1
 557.9765625 354.466796875 l 1
EndSplineSet
EndChar

